<?xml version="1.0" standalone="no"?>
<!DOCTYPE svg PUBLIC "-//W3C//DTD SVG 1.1//EN" "http://www.w3.org/Graphics/SVG/1.1/DTD/svg11.dtd" >
<svg xmlns="http://www.w3.org/2000/svg" xmlns:xlink="http://www.w3.org/1999/xlink" version="1.1">
<metadata>
Created by FontForge 20150318 at Tue Sep 15 11:58:54 2015
 By uniteet7
(c) 2007 Adobe Systems Incorporated. All rights reserved.
</metadata>
<defs>
<font id="CleanPro-Bold05pt" horiz-adv-x="432" >
  <font-face 
    font-family="Clean Pro"
    font-weight="700"
    font-stretch="normal"
    units-per-em="1000"
    panose-1="0 0 8 0 0 0 0 0 0 0"
    ascent="710"
    descent="-290"
    x-height="489"
    cap-height="655"
    bbox="-308 -247 1364.75 970"
    underline-thickness="50"
    underline-position="-50"
    stemh="111"
    stemv="150"
    unicode-range="U+0020-FB05"
  />
<missing-glyph horiz-adv-x="535" 
d="M10 0v686h515v-686h-515zM92 49h351l-176 250zM298 343l175 -250v500zM61 593v-500l176 250zM92 637l175 -250l176 250h-351z" />
    <glyph glyph-name="f_b" unicode="fb" horiz-adv-x="973" 
d="M94 373l-61 3c-5 1 -7 3 -7 9v97c0 5 3 7 7 7h61v20c0 128 78 211 182 211c30 0 48 -3 61 -8c6 -3 6 -5 6 -10v-105c0 -4 -2 -8 -8 -7c-9 2 -20 3 -31 3c-33 0 -60 -24 -60 -85v-19h82c8 0 9 -3 9 -9v-96c0 -6 -2 -8 -9 -9l-82 -3v-362c0 -6 -1 -10 -10 -10h-130
c-8 0 -10 3 -10 10v363zM423 710h132c8 0 10 -1 10 -8v-222c29 11 63 19 106 19c151 0 236 -107 236 -234c0 -176 -132 -274 -300 -274c-60 0 -119 6 -186 30c-4 2 -6 6 -6 11v671c0 5 2 7 8 7zM753 248c0 85 -51 126 -119 126c-29 0 -48 -5 -69 -15v-242c17 -6 34 -7 53 -7
c58 0 135 33 135 138z" />
    <glyph glyph-name="f_f" unicode="ff" horiz-adv-x="675" 
d="M244 489h177v11c0 134 76 220 196 220c21 0 53 -3 66 -8c3 -2 6 -6 6 -10v-109c0 -4 -3 -7 -6 -6c-9 3 -22 6 -42 6c-32 0 -70 -16 -70 -93v-11h87c6 0 8 -4 8 -10v-95c0 -7 -2 -10 -8 -10h-87v-363c0 -7 -2 -11 -10 -11h-130c-8 0 -10 3 -10 10v364h-177v-363
c0 -7 -2 -11 -10 -11h-130c-8 0 -10 3 -10 10v366h-62c-4 0 -6 2 -6 7v97c0 7 4 9 8 9h60v13c0 133 79 218 192 218c25 0 42 -3 55 -8c6 -3 6 -5 6 -10v-107c0 -4 -1 -7 -7 -6c-9 2 -18 4 -32 4c-36 0 -64 -21 -64 -93v-11z" />
    <glyph glyph-name="f_f_b" unicode="ffb" horiz-adv-x="1300" 
d="M244 489h177v11c0 139 73 220 186 220c21 0 33 -1 45 -5c3 -1 6 -4 6 -9v-109c0 -4 -1 -8 -5 -7c-7 2 -15 3 -26 3c-25 0 -56 -18 -56 -91v-13h78c6 0 8 -2 8 -8v-97c0 -7 -2 -10 -8 -10h-78v-363c0 -7 -2 -11 -10 -11h-130c-8 0 -10 3 -10 10v364h-177v-363
c0 -7 -2 -11 -10 -11h-130c-8 0 -10 3 -10 10v366h-62c-4 0 -6 2 -6 7v97c0 7 4 9 8 9h60v13c0 133 79 218 192 218c25 0 42 -3 55 -8c6 -3 6 -5 6 -10v-107c0 -4 -1 -7 -7 -6c-9 2 -18 4 -32 4c-36 0 -64 -21 -64 -93v-11zM750 710h132c8 0 10 -1 10 -8v-222
c29 11 63 19 106 19c151 0 236 -107 236 -234c0 -176 -132 -274 -300 -274c-60 0 -119 6 -186 30c-4 2 -6 6 -6 11v671c0 5 2 7 8 7zM1080 248c0 85 -51 126 -119 126c-29 0 -48 -5 -69 -15v-242c17 -6 34 -7 53 -7c58 0 135 33 135 138z" />
    <glyph glyph-name="f_f_h" unicode="ffh" horiz-adv-x="1291" 
d="M244 489h177v11c0 139 73 220 186 220c21 0 33 -1 45 -5c3 -1 6 -4 6 -9v-109c0 -4 -1 -8 -5 -7c-7 2 -15 3 -26 3c-25 0 -56 -18 -56 -91v-13h78c6 0 8 -2 8 -8v-97c0 -7 -2 -10 -8 -10h-78v-363c0 -7 -2 -11 -10 -11h-130c-8 0 -10 3 -10 10v364h-177v-363
c0 -7 -2 -11 -10 -11h-130c-8 0 -10 3 -10 10v366h-62c-4 0 -6 2 -6 7v97c0 7 4 9 8 9h60v13c0 133 79 218 192 218c25 0 42 -3 55 -8c6 -3 6 -5 6 -10v-107c0 -4 -1 -7 -7 -6c-9 2 -18 4 -32 4c-36 0 -64 -21 -64 -93v-11zM742 9v693c0 6 1 8 8 8h134c6 0 8 -2 8 -7v-245
c34 22 78 41 138 41c91 0 178 -54 178 -215v-274c0 -7 -4 -10 -10 -10h-131c-7 0 -9 3 -9 9v272c0 61 -26 91 -79 91c-40 0 -65 -14 -87 -30v-334c0 -6 -2 -8 -8 -8h-133c-7 0 -9 3 -9 9z" />
    <glyph glyph-name="f_f_i" unicode="ffi" horiz-adv-x="969" 
d="M244 489h177v11c0 139 73 220 186 220c21 0 33 -1 45 -5c3 -1 6 -4 6 -9v-109c0 -4 -1 -8 -5 -7c-7 2 -15 3 -26 3c-25 0 -56 -18 -56 -91v-13h78c6 0 8 -2 8 -8v-97c0 -7 -2 -10 -8 -10h-78v-363c0 -7 -2 -11 -10 -11h-130c-8 0 -10 3 -10 10v364h-177v-363
c0 -7 -2 -11 -10 -11h-130c-8 0 -10 3 -10 10v366h-62c-4 0 -6 2 -6 7v97c0 7 4 9 8 9h60v13c0 133 79 218 192 218c25 0 42 -3 55 -8c6 -3 6 -5 6 -10v-107c0 -4 -1 -7 -7 -6c-9 2 -18 4 -32 4c-36 0 -64 -21 -64 -93v-11zM736 9v470c0 6 3 9 9 9h132c7 0 9 -2 9 -9v-470
c0 -7 -1 -10 -9 -10h-130c-8 0 -11 3 -11 10zM812 538c-48 0 -81 29 -81 74c0 44 34 74 83 74s79 -30 79 -74c0 -45 -32 -74 -81 -74z" />
    <glyph glyph-name="f_f_j" unicode="ffj" horiz-adv-x="975" 
d="M244 489h177v11c0 139 73 220 186 220c21 0 33 -1 45 -5c3 -1 6 -4 6 -9v-109c0 -4 -1 -8 -5 -7c-7 2 -15 3 -26 3c-25 0 -56 -18 -56 -91v-13h78c6 0 8 -2 8 -8v-97c0 -7 -2 -10 -8 -10h-78v-363c0 -7 -2 -11 -10 -11h-130c-8 0 -10 3 -10 10v364h-177v-363
c0 -7 -2 -11 -10 -11h-130c-8 0 -10 3 -10 10v366h-62c-4 0 -6 2 -6 7v97c0 7 4 9 8 9h60v13c0 133 79 218 192 218c25 0 42 -3 55 -8c6 -3 6 -5 6 -10v-107c0 -4 -1 -7 -7 -6c-9 2 -18 4 -32 4c-36 0 -64 -21 -64 -93v-11zM892 76c1 -150 -13 -204 -48 -250
c-36 -43 -89 -56 -137 -56c-10 0 -37 1 -50 4c-7 2 -10 5 -10 12l1 99c0 6 2 9 8 9c72 -3 86 21 86 92v493c0 7 3 10 10 10h131c6 0 10 -2 10 -9zM818 539c-49 0 -81 29 -81 74c0 44 34 74 82 74c49 0 80 -30 80 -74c0 -45 -32 -74 -81 -74z" />
    <glyph glyph-name="f_f_k" unicode="ffk" horiz-adv-x="1267" 
d="M244 489h177v11c0 139 73 220 186 220c21 0 33 -1 45 -5c3 -1 6 -4 6 -9v-109c0 -4 -1 -8 -5 -7c-7 2 -15 3 -26 3c-25 0 -56 -18 -56 -91v-13h78c6 0 8 -2 8 -8v-97c0 -7 -2 -10 -8 -10h-78v-363c0 -7 -2 -11 -10 -11h-130c-8 0 -10 3 -10 10v364h-177v-363
c0 -7 -2 -11 -10 -11h-130c-8 0 -10 3 -10 10v366h-62c-4 0 -6 2 -6 7v97c0 7 4 9 8 9h60v13c0 133 79 218 192 218c25 0 42 -3 55 -8c6 -3 6 -5 6 -10v-107c0 -4 -1 -7 -7 -6c-9 2 -18 4 -32 4c-36 0 -64 -21 -64 -93v-11zM741 702c0 4 1 8 10 8h130c7 0 10 -2 10 -8v-399
h38c7 0 12 2 15 7c25 35 85 126 115 172c4 6 5 7 13 7h136c7 0 8 -6 5 -11c-32 -53 -125 -169 -161 -214c-3 -4 -3 -8 0 -10c64 -79 132 -165 197 -244c3 -4 1 -10 -6 -10h-169c-8 0 -11 2 -14 8c-39 57 -78 110 -120 173c-5 7 -9 8 -16 8h-33v-178c0 -8 -2 -11 -10 -11
h-130c-9 0 -10 3 -10 11v691z" />
    <glyph glyph-name="f_f_l" unicode="ffl" horiz-adv-x="992" 
d="M244 489h177v11c0 139 73 220 186 220c21 0 33 -1 45 -5c3 -1 6 -4 6 -9v-109c0 -4 -1 -8 -5 -7c-7 2 -15 3 -26 3c-25 0 -56 -18 -56 -91v-13h78c6 0 8 -2 8 -8v-97c0 -7 -2 -10 -8 -10h-78v-363c0 -7 -2 -11 -10 -11h-130c-8 0 -10 3 -10 10v364h-177v-363
c0 -7 -2 -11 -10 -11h-130c-8 0 -10 3 -10 10v366h-62c-4 0 -6 2 -6 7v97c0 7 4 9 8 9h60v13c0 133 79 218 192 218c25 0 42 -3 55 -8c6 -3 6 -5 6 -10v-107c0 -4 -1 -7 -7 -6c-9 2 -18 4 -32 4c-36 0 -64 -21 -64 -93v-11zM741 701c0 6 2 9 10 9h130c7 0 10 -2 10 -9v-559
c0 -29 11 -35 30 -35c5 0 16 1 24 1c3 1 5 -1 5 -6l-1 -88c0 -8 -1 -10 -7 -13c-12 -5 -39 -11 -75 -11c-78 0 -126 33 -126 136v575z" />
    <glyph glyph-name="f_f_t" unicode="fft" horiz-adv-x="1036" 
d="M617 720c21 0 53 -3 66 -8c3 -2 6 -6 6 -10v-109c0 -4 -3 -7 -6 -6c-9 3 -22 6 -42 6c-32 0 -69 -16 -69 -93v-11h170c2 43 6 94 12 124c1 4 3 8 8 9l128 24c6 1 8 1 8 -6c-2 -32 -5 -103 -6 -151h101c6 0 8 -2 8 -8v-97c0 -7 -2 -8 -8 -9l-102 -3v-197
c0 -49 15 -65 59 -65c9 0 18 2 37 5c4 0 7 0 7 -7v-87c0 -7 -2 -11 -8 -14c-29 -15 -63 -17 -100 -17c-91 0 -145 44 -145 147v237h-169l-1 -363c0 -7 -2 -11 -10 -11h-130c-8 0 -10 3 -10 10v364h-177v-363c0 -7 -2 -11 -10 -11h-130c-8 0 -10 3 -10 10v366h-62
c-4 0 -6 2 -6 7v97c0 7 4 9 8 9h60v13c0 133 79 218 192 218c25 0 42 -3 55 -8c6 -3 6 -5 6 -10v-107c0 -4 -1 -7 -7 -6c-9 2 -18 4 -32 4c-36 0 -64 -21 -64 -93v-11h177v11c0 134 76 220 196 220z" />
    <glyph glyph-name="f_h" unicode="fh" horiz-adv-x="967" 
d="M94 373l-61 3c-5 1 -7 3 -7 9v97c0 5 3 7 7 7h61v20c0 128 78 211 182 211c30 0 48 -3 61 -8c6 -3 6 -5 6 -10v-105c0 -4 -2 -8 -8 -7c-9 2 -20 3 -31 3c-33 0 -60 -24 -60 -85v-19h82c8 0 9 -3 9 -9v-96c0 -6 -2 -8 -9 -9l-82 -3v-362c0 -6 -1 -10 -10 -10h-130
c-8 0 -10 3 -10 10v363zM418 9v693c0 6 1 8 8 8h134c6 0 8 -2 8 -7v-245c34 22 78 41 138 41c91 0 178 -54 178 -215v-274c0 -7 -4 -10 -10 -10h-131c-7 0 -9 3 -9 9v272c0 61 -26 91 -79 91c-40 0 -65 -14 -87 -30v-334c0 -6 -2 -8 -8 -8h-133c-7 0 -9 3 -9 9z" />
    <glyph glyph-name="f_i" unicode="fi" horiz-adv-x="627" 
d="M394 374h-150v-364c0 -6 -1 -10 -10 -10h-130c-8 0 -10 3 -10 10v366l-61 2c-5 1 -7 3 -7 9v95c0 5 3 7 7 7h62c18 155 120 231 267 231c79 0 124 -16 142 -27c6 -3 6 -6 6 -12v-113c0 -4 -3 -9 -8 -6c-37 19 -80 32 -135 32c-56 0 -112 -17 -120 -105h288c7 0 9 -2 9 -9
v-470c0 -7 -2 -10 -9 -10h-130c-8 0 -11 3 -11 10v364z" />
    <glyph glyph-name="f_j" unicode="fj" horiz-adv-x="627" 
d="M394 -14v388h-150v-364c0 -6 -1 -10 -10 -10h-130c-8 0 -10 3 -10 10v366l-61 2c-5 1 -7 3 -7 9v95c0 5 3 7 7 7h62c18 155 120 231 267 231c79 0 124 -16 142 -27c6 -3 6 -6 6 -12v-113c0 -4 -3 -9 -8 -6c-37 19 -80 32 -135 32c-56 0 -112 -17 -120 -105h288
c7 0 9 -2 9 -9v-404c1 -150 -13 -204 -48 -250c-36 -43 -89 -56 -137 -56c-9 0 -37 1 -49 4c-8 2 -10 5 -10 12l1 99c0 6 2 9 8 9c71 -3 85 21 85 92z" />
    <glyph glyph-name="f_k" unicode="fk" horiz-adv-x="944" 
d="M94 373l-61 3c-5 1 -7 3 -7 9v97c0 5 3 7 7 7h61v20c0 128 78 211 182 211c30 0 48 -3 61 -8c6 -3 6 -5 6 -10v-105c0 -4 -2 -8 -8 -7c-9 2 -20 3 -31 3c-33 0 -60 -24 -60 -85v-19h82c8 0 9 -3 9 -9v-96c0 -6 -2 -8 -9 -9l-82 -3v-362c0 -6 -1 -10 -10 -10h-130
c-8 0 -10 3 -10 10v363zM418 702c0 4 1 8 10 8h130c7 0 10 -2 10 -8v-399h38c7 0 12 2 15 7c25 35 85 126 115 172c4 6 5 7 13 7h136c7 0 8 -6 5 -11c-32 -53 -125 -169 -161 -214c-3 -4 -3 -8 0 -10c64 -79 132 -165 197 -244c3 -4 1 -10 -6 -10h-169c-8 0 -11 2 -14 8
c-39 57 -78 110 -120 173c-5 7 -9 8 -16 8h-33v-178c0 -8 -2 -11 -10 -11h-130c-9 0 -10 3 -10 11v691z" />
    <glyph glyph-name="f_l" unicode="fl" horiz-adv-x="668" 
d="M94 373l-61 3c-5 1 -7 3 -7 9v97c0 5 3 7 7 7h61v20c0 128 78 211 182 211c30 0 48 -3 61 -8c6 -3 6 -5 6 -10v-105c0 -4 -2 -8 -8 -7c-9 2 -20 3 -31 3c-33 0 -60 -24 -60 -85v-19h82c8 0 9 -3 9 -9v-96c0 -6 -2 -8 -9 -9l-82 -3v-362c0 -6 -1 -10 -10 -10h-130
c-8 0 -10 3 -10 10v363zM418 701c0 6 2 9 10 9h130c7 0 10 -2 10 -9v-559c0 -29 11 -35 30 -35c5 0 16 1 24 1c3 1 5 -1 5 -6l-1 -88c0 -8 -1 -10 -7 -13c-12 -5 -39 -11 -75 -11c-78 0 -126 33 -126 136v575z" />
    <glyph glyph-name="f_t" unicode="ft" horiz-adv-x="713" 
d="M418 374h-174v-363c0 -7 -2 -11 -10 -11h-130c-8 0 -10 3 -10 10v366l-61 2c-5 1 -7 4 -7 9v93c0 7 4 9 8 9h60v14c0 138 78 217 194 217c30 0 50 -4 63 -9c4 -2 6 -7 6 -10v-109c0 -4 -3 -6 -6 -6c-9 3 -21 5 -37 5c-36 0 -70 -21 -70 -89v-13h175c3 37 5 94 12 124
c1 4 3 8 8 9l127 24c6 1 8 1 8 -6c-2 -32 -5 -103 -5 -151h100c6 0 7 -2 7 -7v-99c0 -6 -1 -7 -7 -8l-101 -3v-197c0 -48 15 -65 59 -65c9 0 18 0 37 4c4 0 7 -1 7 -8v-85c0 -7 -2 -11 -8 -13c-30 -15 -63 -18 -101 -18c-91 0 -144 44 -144 147v237z" />
    <glyph glyph-name="longs_b" unicode="tt" horiz-adv-x="753" 
d="M601 373v-199c0 -44 12 -64 56 -64c9 0 25 2 40 5c4 0 7 0 7 -7v-87c0 -7 -2 -11 -8 -14c-30 -14 -63 -17 -101 -17c-91 0 -144 44 -144 147v239h-207v-202c0 -44 11 -64 55 -64c10 0 25 2 41 5c4 0 6 0 6 -7v-87c0 -7 -1 -11 -7 -14c-30 -14 -64 -17 -101 -17
c-91 0 -144 44 -144 147v239h-61c-6 1 -8 3 -8 9v95c0 7 2 9 8 9h61c2 34 5 91 11 121c1 5 5 10 10 10l123 25c8 1 12 -1 12 -7c-3 -33 -5 -101 -6 -149h208c1 34 5 94 12 124c1 4 3 8 8 9l127 24c6 1 8 1 8 -6c-2 -32 -5 -103 -6 -151h101c6 0 7 -2 7 -7v-98
c0 -6 -1 -7 -7 -8z" />
    <glyph glyph-name=".notdef" horiz-adv-x="535" 
d="M10 0v686h515v-686h-515zM92 49h351l-176 250zM298 343l175 -250v500zM61 593v-500l176 250zM92 637l175 -250l176 250h-351z" />
    <glyph glyph-name="space" unicode=" " horiz-adv-x="250" 
 />
    <glyph glyph-name="exclam" unicode="!" horiz-adv-x="363" 
d="M197 666c24 0 63 -4 76 -11c6 -4 6 -9 6 -12v-70c0 -84 -20 -302 -24 -332c-1 -3 -2 -7 -9 -7h-100c-4 0 -6 3 -7 8c-3 27 -23 244 -23 328v69c0 4 0 9 6 12c15 9 57 15 75 15zM196 -9c-51 0 -86 31 -86 81c0 47 35 82 86 82c52 0 87 -34 87 -82c0 -50 -35 -81 -87 -81z
" />
    <glyph glyph-name="quotedbl" unicode="&#x22;" horiz-adv-x="440" 
d="M54 456l-3 254c0 7 3 10 10 10h120c7 0 10 -3 9 -10l-20 -256c-1 -6 -6 -7 -9 -7h-96c-8 0 -11 3 -11 9zM256 456l-2 252c-1 8 3 12 10 12h119c9 0 10 -5 9 -12l-20 -254c-1 -7 -6 -7 -9 -7h-97c-6 0 -10 3 -10 9z" />
    <glyph glyph-name="numbersign" unicode="#" horiz-adv-x="618" 
d="M179 26h-77c-6 0 -8 2 -6 7l42 146h-69c-5 0 -7 1 -7 8v88c0 5 3 6 6 6h98l22 84h-71c-2 0 -4 0 -4 5v93c0 3 1 4 5 4h100l37 130c2 6 3 7 9 7h77c4 0 5 -2 4 -7l-35 -130h81l36 132c1 4 3 5 6 5h80c5 0 6 -2 5 -6l-37 -131h69c5 0 6 -1 6 -6v-90c0 -5 -2 -6 -7 -6h-97
l-22 -84h67c5 0 6 -1 6 -6v-91c0 -5 -4 -5 -6 -5h-94l-41 -145c-2 -5 -3 -8 -9 -8h-76c-6 0 -9 3 -6 8l39 145h-81l-41 -147c-1 -3 -3 -6 -9 -6zM280 365l-23 -84h82l24 84h-83z" />
    <glyph glyph-name="dollar" unicode="$" horiz-adv-x="618" 
d="M368 14v-77c0 -5 -2 -6 -6 -6h-100c-5 0 -7 1 -7 7v71c-57 4 -116 19 -160 47c-5 4 -6 8 -6 16v112c0 5 4 8 8 5c74 -49 149 -68 205 -68c67 0 85 23 85 50c0 25 -26 46 -109 76c-146 53 -191 98 -191 193c0 77 58 151 168 171v71c0 5 2 7 7 7h99c5 0 7 -1 7 -7v-69
c56 -5 104 -18 130 -37c4 -2 5 -5 5 -10v-109c0 -5 -5 -7 -9 -4c-42 26 -102 49 -178 49c-73 0 -88 -31 -88 -51c0 -27 33 -47 123 -79c157 -55 185 -114 185 -190c0 -110 -100 -158 -168 -168z" />
    <glyph glyph-name="percent" unicode="%" horiz-adv-x="921" 
d="M238 628c116 0 172 -78 172 -183c0 -87 -56 -183 -173 -183c-119 0 -173 80 -173 179c0 119 81 187 174 187zM176 445c0 -54 21 -97 64 -97c35 0 59 34 59 97s-23 98 -61 98c-37 0 -62 -30 -62 -98zM685 355c116 0 173 -78 173 -183c0 -86 -57 -182 -174 -182
c-118 0 -172 80 -172 179c0 118 81 186 173 186zM624 172c0 -55 21 -96 63 -96c35 0 59 33 59 96c0 64 -22 98 -61 98c-36 0 -61 -33 -61 -98zM735 613l-440 -606c-5 -7 -7 -7 -16 -7h-93c-4 0 -7 5 -2 10l443 603c3 5 7 7 12 7h94c5 0 4 -4 2 -7z" />
    <glyph glyph-name="ampersand" unicode="&#x26;" horiz-adv-x="784" 
d="M360 649c60 0 103 -9 131 -27c4 -3 7 -6 7 -13v-96c0 -8 -5 -9 -10 -6c-24 13 -63 28 -112 28c-54 0 -77 -27 -77 -61c0 -28 20 -53 74 -89h315c7 0 8 -2 7 -9l-17 -94c-1 -8 -4 -9 -11 -9c-3 0 -170 1 -183 1c30 -25 66 -69 94 -105c38 -53 74 -64 106 -64
c16 0 6 1 19 2c4 0 8 0 8 -9v-85c0 -9 -2 -12 -9 -14c-12 -5 -36 -9 -63 -9c-78 0 -135 26 -197 121c-47 76 -133 158 -153 158c-27 0 -63 -26 -63 -71c0 -49 39 -91 107 -91c31 0 50 4 70 10c4 2 5 0 5 -6v-94c0 -7 -2 -9 -7 -11c-18 -7 -54 -15 -104 -15
c-127 0 -224 70 -224 191c0 85 62 145 136 170c-33 32 -62 69 -62 128c0 99 92 169 213 169z" />
    <glyph glyph-name="quoteright" unicode="&#x2019;" horiz-adv-x="245" 
d="M136 446h-102c-5 0 -7 3 -5 7c31 70 40 126 40 181c0 26 -5 63 -8 79c0 4 3 7 6 7h112c5 0 8 -2 9 -8c5 -18 9 -43 9 -74c0 -66 -19 -133 -50 -185c-2 -3 -5 -7 -11 -7z" />
    <glyph glyph-name="parenleft" unicode="(" horiz-adv-x="411" 
d="M69 290c0 217 93 379 163 466c3 3 6 6 12 6h116c6 0 9 -6 4 -12c-102 -136 -163 -287 -163 -454c0 -190 68 -346 161 -464c3 -5 2 -10 -4 -10l-114 -1c-9 0 -12 3 -16 7c-85 94 -159 254 -159 462z" />
    <glyph glyph-name="parenright" unicode=")" horiz-adv-x="408" 
d="M337 293c0 -221 -87 -376 -158 -463c-5 -6 -8 -9 -16 -9h-114c-11 0 -10 6 -6 10c103 138 163 286 163 456c0 191 -67 348 -160 466c-4 4 -2 8 3 8l115 1c7 0 10 -2 17 -9c83 -94 156 -246 156 -460z" />
    <glyph glyph-name="asterisk" unicode="*" horiz-adv-x="398" 
d="M249 470l83 -99c3 -2 4 -5 0 -9l-65 -43c-6 -3 -8 -1 -9 3l-66 115l-83 -96c-1 -1 -4 -3 -8 0l-50 53c-4 3 -3 6 0 8l99 80l-114 38c-2 1 -4 3 -3 8l36 72c2 4 5 4 9 2l97 -66l3 124c-1 4 1 7 6 6l86 -11c5 -1 6 -2 6 -7l-37 -121l111 38c4 1 6 1 7 -4l15 -78
c2 -5 0 -7 -3 -7z" />
    <glyph glyph-name="plus" unicode="+" horiz-adv-x="604" 
d="M255 521h95c5 0 7 -2 7 -9v-198h191c5 0 7 -2 7 -10v-87c0 -6 -2 -8 -9 -8h-189v-203c0 -5 -2 -6 -8 -6h-94c-6 0 -7 2 -7 6v203h-190c-6 0 -9 2 -9 9v89c0 4 3 7 8 7h191v201c0 4 2 6 7 6z" />
    <glyph glyph-name="comma" unicode="," horiz-adv-x="259" 
d="M110 -126h-105c-7 0 -8 6 -6 9c67 109 75 192 70 283c0 5 3 7 6 7h122c6 0 8 -2 9 -9c7 -100 -14 -204 -82 -284c-2 -2 -6 -6 -14 -6z" />
    <glyph glyph-name="hyphen" unicode="-" horiz-adv-x="372" 
d="M314 192h-255c-5 0 -7 4 -7 8v108c0 4 2 7 8 7h253c5 0 7 -1 7 -7v-108c0 -7 -2 -8 -6 -8z" />
    <glyph glyph-name="period" unicode="." horiz-adv-x="271" 
d="M136 -10c-52 0 -90 34 -90 89c0 54 38 88 90 88c53 0 89 -37 89 -88c0 -52 -33 -89 -89 -89z" />
    <glyph glyph-name="slash" unicode="/" horiz-adv-x="347" 
d="M320 730l-177 -764c-1 -3 -3 -5 -8 -5h-101c-7 0 -7 3 -6 8l178 762c1 4 2 4 6 4h103c5 0 6 -1 5 -5z" />
    <glyph glyph-name="zero" unicode="0" horiz-adv-x="618" 
d="M308 513c-64 0 -104 -64 -104 -203c0 -118 33 -203 109 -203s102 84 102 202c0 128 -29 204 -107 204zM311 -10c-189 0 -262 144 -262 321c0 178 94 319 261 319c204 -1 259 -185 259 -320c0 -163 -69 -320 -258 -320z" />
    <glyph glyph-name="one" unicode="1" horiz-adv-x="618" 
d="M251 9v482c-33 -8 -75 -15 -94 -17c-6 0 -9 1 -9 8v86c0 5 2 8 7 9c37 7 98 22 140 40c2 1 9 3 15 3h84c6 0 7 -2 7 -8v-602c0 -7 -1 -10 -9 -10h-132c-7 0 -9 3 -9 9z" />
    <glyph glyph-name="two" unicode="2" horiz-adv-x="618" 
d="M524 0h-439c-7 0 -9 5 -9 9v74c0 6 1 8 6 11c40 33 104 82 191 161c77 67 95 110 95 155c0 59 -38 94 -115 94c-54 0 -114 -21 -161 -47c-5 -3 -8 -1 -8 5v106c0 6 2 10 7 13c46 26 118 49 202 49c150 0 227 -91 227 -198c0 -82 -30 -137 -98 -202
c-60 -59 -105 -92 -132 -115c52 0 179 3 265 3c5 0 7 -3 6 -8l-25 -100c-2 -7 -4 -10 -12 -10z" />
    <glyph glyph-name="three" unicode="3" horiz-adv-x="618" 
d="M181 261l1 101c0 6 1 9 8 9h79c68 0 95 26 95 66c0 46 -38 72 -109 72c-58 0 -114 -20 -165 -47c-6 -4 -10 -1 -10 5v101c0 7 2 9 7 12c55 32 126 50 201 50c141 0 224 -71 224 -166c0 -78 -47 -116 -97 -138v-1c65 -15 128 -56 128 -142c0 -123 -117 -193 -262 -193
c-80 0 -148 13 -198 41c-7 4 -9 7 -9 14l1 115c0 6 5 6 9 4c63 -33 128 -52 185 -52c86 0 117 33 117 72c0 47 -44 69 -114 69h-81c-7 0 -10 2 -10 8z" />
    <glyph glyph-name="four" unicode="4" horiz-adv-x="618" 
d="M47 157v68c1 9 1 11 5 16c48 72 225 308 278 370c7 8 10 9 17 9h116c6 0 8 -2 8 -8v-360h99c4 0 7 -2 6 -9l-16 -85c-1 -8 -4 -9 -11 -9h-78v-142c0 -6 -1 -7 -7 -7h-133c-5 0 -7 2 -7 7v142l-269 1c-7 0 -8 3 -8 7zM178 252h146v63c0 66 1 115 3 150h-2
c-32 -45 -130 -183 -147 -213z" />
    <glyph glyph-name="five" unicode="5" horiz-adv-x="618" 
d="M191 620h316c5 0 7 -3 6 -8l-28 -100c-2 -9 -5 -10 -12 -10h-208c-5 -16 -23 -79 -28 -99c191 -20 299 -79 299 -209c0 -128 -106 -204 -263 -204c-63 0 -139 14 -185 41c-5 3 -8 6 -8 16v108c0 7 5 9 12 6c59 -28 122 -49 189 -49c75 0 104 28 104 68
c0 67 -117 95 -275 104c-5 0 -9 1 -9 8v47c8 42 82 276 82 276c1 4 4 5 8 5z" />
    <glyph glyph-name="six" unicode="6" horiz-adv-x="618" 
d="M305 295c-36 0 -72 -14 -85 -26c-4 -15 -5 -27 -5 -44c0 -73 39 -119 98 -119c58 0 91 42 91 91c0 65 -42 98 -99 98zM490 638v-109c0 -5 -2 -9 -8 -10c-140 -36 -196 -90 -228 -133c27 11 57 21 101 21c115 0 204 -77 204 -198c0 -114 -88 -219 -250 -219
c-160 0 -249 101 -249 248c0 239 229 370 420 408c7 1 10 0 10 -8z" />
    <glyph glyph-name="seven" unicode="7" horiz-adv-x="618" 
d="M77 620h464c5 0 6 -2 6 -6v-75c0 -4 -1 -8 -4 -14c-48 -111 -188 -387 -253 -518c-2 -4 -4 -7 -11 -7h-147c-6 0 -7 3 -5 9c213 406 237 452 261 493h-311c-4 0 -7 1 -7 6v107c0 4 1 5 7 5z" />
    <glyph glyph-name="eight" unicode="8" horiz-adv-x="618" 
d="M308 518c-57 0 -82 -36 -82 -79c0 -30 12 -51 31 -66c9 -7 16 -10 28 -10h48c11 0 18 3 24 8c21 15 33 37 33 69c0 48 -34 78 -82 78zM311 108c62 0 89 39 89 76c0 32 -16 51 -35 64c-7 7 -13 9 -26 9h-59c-12 0 -16 -2 -24 -8c-23 -14 -37 -38 -37 -63
c0 -44 33 -78 92 -78zM313 630c156 0 223 -94 223 -176c0 -62 -27 -107 -80 -139c68 -31 96 -82 96 -138c0 -117 -100 -187 -250 -187c-147 0 -236 78 -236 180c0 48 21 102 98 138c-56 31 -84 79 -84 144c0 95 85 178 233 178z" />
    <glyph glyph-name="nine" unicode="9" horiz-adv-x="618" 
d="M139 -19l-1 113c0 6 1 8 6 10c92 23 175 67 215 129c-31 -17 -68 -22 -92 -22c-126 0 -209 77 -209 198s100 221 251 221c137 0 244 -89 244 -255c0 -223 -194 -371 -402 -400c-9 -2 -12 0 -12 6zM309 321c41 0 74 13 88 27c2 8 4 26 4 43c0 76 -34 126 -97 126
c-55 0 -93 -40 -93 -100c0 -64 44 -96 98 -96z" />
    <glyph glyph-name="colon" unicode=":" horiz-adv-x="344" 
d="M172 -10c-51 0 -89 33 -89 86c0 51 38 85 89 85c53 0 89 -36 89 -85c0 -50 -32 -86 -89 -86zM172 303c-51 0 -89 33 -89 86c0 52 38 86 89 86c53 0 89 -37 89 -86c0 -50 -32 -86 -89 -86z" />
    <glyph glyph-name="semicolon" unicode=";" horiz-adv-x="344" 
d="M172 303c-51 0 -89 33 -89 86c0 52 38 86 89 86c53 0 89 -37 89 -86c0 -50 -32 -86 -89 -86zM152 -126h-105c-7 0 -8 6 -6 9c67 109 75 191 70 283c0 5 3 7 6 7h122c6 0 8 -2 9 -9c7 -100 -14 -204 -82 -284c-2 -2 -6 -6 -14 -6z" />
    <glyph glyph-name="less" unicode="&#x3c;" horiz-adv-x="604" 
d="M85 221v82c0 6 1 7 6 10l419 206c5 3 9 2 9 -4v-96c0 -5 -3 -8 -8 -10l-307 -147v-2l308 -148c5 -2 7 -3 7 -11v-91c0 -8 -3 -10 -8 -8l-420 208c-5 4 -6 6 -6 11z" />
    <glyph glyph-name="equal" unicode="=" horiz-adv-x="604" 
d="M49 407c0 6 3 7 9 7h490c5 0 7 -2 7 -7v-89c0 -7 -2 -8 -9 -8h-488c-6 0 -9 2 -9 9v88zM49 205c0 7 2 8 8 8h489c6 0 9 -1 9 -9v-87c0 -7 -4 -8 -10 -8h-487c-6 0 -9 2 -9 8v88z" />
    <glyph glyph-name="greater" unicode="&#x3e;" horiz-adv-x="604" 
d="M519 302v-81c0 -4 0 -7 -5 -9l-423 -210c-3 -2 -6 -1 -6 5v95c0 8 3 9 6 10l309 148v2l-308 148c-5 2 -7 3 -7 9v96c0 5 3 7 8 5l421 -209c4 -3 5 -5 5 -9z" />
    <glyph glyph-name="question" unicode="?" horiz-adv-x="528" 
d="M258 666c129 0 206 -72 206 -167c0 -110 -143 -175 -143 -226c0 -17 5 -29 15 -46c2 -5 0 -8 -5 -8l-111 -2c-5 0 -7 -1 -13 5c-18 19 -26 47 -26 67c0 78 130 124 130 195c0 34 -27 62 -85 62c-43 0 -89 -11 -129 -26c-4 -1 -8 0 -8 5l-1 96c0 5 0 9 5 11
c27 13 82 34 165 34zM270 -10c-49 0 -85 31 -85 84c0 51 36 83 85 83c51 0 86 -35 86 -83c0 -50 -31 -84 -86 -84z" />
    <glyph glyph-name="at" unicode="@" horiz-adv-x="904" 
d="M475 102l54 261c-3 2 -12 3 -25 3c-77 0 -127 -75 -127 -152c0 -68 30 -102 89 -111c3 -1 6 -1 9 -1zM498 631c191 0 344 -117 344 -310c0 -198 -156 -316 -343 -316c-139 0 -242 60 -242 201c0 155 130 248 275 248c41 0 94 -7 118 -20c4 -2 5 -3 5 -8l-67 -324
c57 10 147 74 147 214c0 152 -97 231 -247 231c-178 0 -312 -136 -312 -333c0 -116 48 -211 158 -268c5 -3 6 -5 6 -12v-95c0 -7 -1 -7 -8 -5c-175 65 -269 207 -269 375c0 238 176 422 435 422z" />
    <glyph glyph-name="A" unicode="A" horiz-adv-x="742" 
d="M479 161h-231l-53 -152c-2 -6 -6 -9 -13 -9h-128c-8 0 -10 4 -8 11c57 156 146 398 213 572c4 9 8 21 11 63c0 6 3 8 7 8l170 1c4 0 6 -1 8 -5c79 -214 160 -427 240 -640c3 -6 1 -10 -6 -10h-141c-6 0 -8 2 -11 7zM280 280h166c-21 66 -63 178 -84 251h-1
c-16 -68 -55 -173 -81 -251z" />
    <glyph glyph-name="B" unicode="B" horiz-adv-x="676" 
d="M96 9v635c0 8 2 10 7 11c47 1 134 2 226 2c214 0 260 -90 260 -175c0 -67 -37 -117 -96 -140v-2c53 -15 123 -58 123 -152c0 -125 -110 -190 -300 -190c-82 -1 -168 1 -213 2c-5 1 -7 4 -7 9zM243 275v-158c12 -1 37 -2 80 -2c86 0 137 20 137 80c0 50 -30 80 -123 80
h-94zM243 538v-145h93c82 0 107 32 107 73c0 53 -35 74 -115 74c-44 0 -76 -1 -85 -2z" />
    <glyph glyph-name="C" unicode="C" horiz-adv-x="672" 
d="M72 326c0 192 149 340 378 340c67 0 122 -10 150 -23c6 -2 7 -5 7 -12v-112c0 -9 -5 -9 -9 -7c-36 16 -84 26 -143 26c-135 0 -228 -75 -228 -207c0 -159 121 -207 226 -207c60 0 114 11 151 25c5 2 8 0 8 -6v-109c0 -7 -1 -12 -8 -14c-38 -19 -101 -30 -177 -30
c-189 0 -355 102 -355 336z" />
    <glyph glyph-name="D" unicode="D" horiz-adv-x="758" 
d="M95 9v638c0 5 1 7 7 8c79 2 163 2 223 2c238 0 359 -128 359 -322c0 -281 -233 -337 -376 -337c-75 0 -131 1 -205 2c-5 0 -8 2 -8 9zM245 538v-422c22 -1 43 -2 65 -2c133 0 220 70 220 218c0 133 -70 208 -204 208c-41 0 -73 -1 -81 -2z" />
    <glyph glyph-name="E" unicode="E" horiz-adv-x="619" 
d="M561 109l-17 -100c-1 -8 -4 -9 -10 -9h-429c-7 0 -9 3 -9 9v637c0 7 2 9 9 9h417c8 0 9 -1 11 -8l13 -100c1 -5 -1 -10 -8 -10h-292v-143h267c5 0 8 -2 8 -8v-103c0 -6 -4 -7 -8 -7h-267v-158h308c7 0 8 -3 7 -9z" />
    <glyph glyph-name="F" unicode="F" horiz-adv-x="584" 
d="M246 255v-246c0 -6 -2 -9 -9 -9h-134c-4 0 -7 4 -7 9v638c0 6 2 8 8 8h417c6 0 8 -2 9 -9l12 -100c1 -6 -2 -9 -9 -9h-287v-163h259c6 0 9 -2 9 -8v-103c0 -5 -3 -8 -8 -8h-260z" />
    <glyph glyph-name="G" unicode="G" horiz-adv-x="760" 
d="M528 244l-100 4c-8 1 -10 3 -10 10v97c0 5 3 7 8 7h243c7 0 9 -4 9 -10v-306c0 -6 -1 -8 -7 -11c-70 -29 -151 -45 -235 -45c-252 0 -364 154 -364 332c0 209 157 344 379 344c78 0 154 -15 194 -37c5 -3 6 -7 6 -14v-112c0 -7 -3 -9 -8 -6c-50 24 -119 41 -187 41
c-147 0 -229 -75 -229 -213c0 -114 78 -210 229 -210c34 0 59 5 72 10v119z" />
    <glyph glyph-name="H" unicode="H" horiz-adv-x="763" 
d="M658 0h-132c-7 0 -9 2 -9 9v267h-271v-266c0 -6 -3 -10 -10 -10h-129c-8 0 -11 3 -11 10v636c0 7 3 9 10 9h130c8 0 10 -2 10 -9v-252h271v253c0 5 2 8 8 8h135c5 0 7 -2 7 -8v-638c0 -7 -2 -9 -9 -9z" />
    <glyph glyph-name="I" unicode="I" horiz-adv-x="342" 
d="M246 646v-636c0 -7 -2 -10 -9 -10h-131c-8 0 -10 3 -10 10v636c0 8 3 9 9 9h133c6 0 8 -2 8 -9z" />
    <glyph glyph-name="J" unicode="J" horiz-adv-x="460" 
d="M222 655h134c5 0 7 -1 7 -6v-474c0 -150 -63 -239 -223 -239c-46 0 -92 8 -117 20c-7 3 -7 6 -7 13v109c0 6 2 10 9 7c36 -16 69 -21 97 -21c60 0 91 22 91 110v473c0 6 2 8 9 8z" />
    <glyph glyph-name="K" unicode="K" horiz-adv-x="710" 
d="M236 0h-130c-6 0 -10 2 -10 11v636c0 6 2 8 8 8h134c5 0 8 -2 8 -9v-256h59c9 1 13 4 18 12c53 81 115 177 162 246c4 5 7 7 13 7h141c11 0 10 -6 6 -12c-56 -89 -155 -225 -213 -296c-4 -4 -3 -6 0 -10c86 -109 166 -217 245 -324c4 -6 1 -13 -5 -13h-155
c-9 0 -14 2 -19 9c-52 70 -124 171 -179 251c-5 7 -10 12 -19 12h-54v-262c0 -7 -3 -10 -10 -10z" />
    <glyph glyph-name="L" unicode="L" horiz-adv-x="595" 
d="M246 647v-529h297c7 0 9 -4 8 -9l-19 -100c-2 -8 -6 -9 -12 -9h-413c-9 0 -11 4 -11 12v633c0 7 3 10 9 10h134c5 0 7 -2 7 -8z" />
    <glyph glyph-name="M" unicode="M" horiz-adv-x="971" 
d="M151 649c1 6 3 6 9 6h195c8 0 10 -2 12 -8c29 -96 103 -354 122 -436h1c18 74 94 329 125 437c1 4 3 7 9 7h189c6 0 8 -1 9 -6l67 -640c1 -6 -3 -9 -8 -9h-150c-5 0 -8 1 -9 7c-14 251 -25 475 -25 539h-1c-22 -101 -87 -320 -145 -537c-2 -7 -6 -9 -11 -9h-118
c-8 0 -10 1 -12 8c-43 157 -113 414 -142 540h-2c-3 -120 -24 -362 -41 -540c-1 -7 -3 -8 -9 -8h-126c-7 0 -10 1 -9 9z" />
    <glyph glyph-name="N" unicode="N" horiz-adv-x="768" 
d="M96 647c0 6 3 8 9 8h166c9 0 10 -2 14 -8c71 -130 224 -410 247 -460h2c-1 28 -3 87 -3 171v288c0 7 2 9 10 9h120c8 0 11 -3 11 -10v-635c0 -8 -3 -10 -12 -10h-162c-9 0 -11 3 -15 8c-63 136 -202 380 -250 491h-1c5 -62 4 -107 5 -204v-285c0 -7 -2 -10 -8 -10h-122
c-8 0 -11 1 -11 10v637z" />
    <glyph glyph-name="O" unicode="O" horiz-adv-x="808" 
d="M405 666c206 0 330 -155 330 -335c1 -210 -135 -341 -332 -341c-207 0 -331 138 -331 338c0 195 132 338 333 338zM227 327c0 -129 69 -214 182 -214c106 0 172 81 172 214c0 130 -67 217 -178 217c-105 0 -176 -82 -176 -217z" />
    <glyph glyph-name="P" unicode="P" horiz-adv-x="657" 
d="M96 8v640c0 5 2 7 7 7c46 1 132 2 215 2c214 0 279 -110 280 -223c1 -162 -139 -233 -292 -233h-60v-192c0 -6 -2 -9 -8 -9h-134c-5 0 -8 3 -8 8zM246 538v-219c6 0 21 -1 65 -1c76 0 139 30 139 113c0 69 -41 109 -132 109c-39 0 -64 -1 -72 -2z" />
    <glyph glyph-name="Q" unicode="Q" horiz-adv-x="809" 
d="M402 544c-106 0 -175 -82 -175 -216c0 -135 72 -215 182 -215c106 0 172 79 172 213c0 128 -62 218 -179 218zM408 666c190 0 327 -140 327 -333c0 -163 -80 -254 -144 -290c40 -32 137 -106 202 -153c3 -2 1 -19 -1 -20l-159 -14c-6 -1 -11 0 -15 2
c-34 21 -114 88 -170 137c-3 -2 -11 -3 -19 -4c-7 -1 -15 -1 -20 -1c-204 0 -337 137 -337 336c0 206 139 340 336 340z" />
    <glyph glyph-name="R" unicode="R" horiz-adv-x="693" 
d="M243 246v-237c0 -6 -2 -9 -8 -9h-130c-7 0 -9 2 -9 9v635c0 6 1 10 7 10c66 2 118 3 223 3c171 0 268 -68 268 -192c0 -92 -54 -150 -136 -180c33 -40 176 -227 208 -272c5 -6 4 -13 -2 -13h-159c-10 0 -12 2 -16 6c-30 38 -110 161 -150 222c-8 13 -14 18 -33 18h-63z
M243 539v-177h75c87 0 126 35 126 93c0 59 -49 86 -126 86c-43 0 -69 -1 -75 -2z" />
    <glyph glyph-name="S" unicode="S" horiz-adv-x="586" 
d="M274 -10c-78 0 -160 17 -211 51c-6 5 -8 8 -8 17l-1 116c0 6 5 8 9 5c57 -38 140 -65 217 -65c71 0 95 27 95 56c0 34 -17 51 -120 92c-146 56 -198 107 -198 211c0 94 76 193 249 193c75 0 139 -17 177 -38c5 -2 7 -6 7 -13v-112c0 -4 -4 -9 -10 -5
c-47 28 -117 48 -178 48c-81 0 -95 -36 -95 -59c0 -29 16 -50 117 -89c167 -64 203 -123 203 -213c0 -125 -102 -195 -253 -195z" />
    <glyph glyph-name="T" unicode="T" horiz-adv-x="633" 
d="M237 10v527h-203c-7 0 -9 3 -8 9l15 100c1 7 4 9 11 9h533c7 0 10 -2 11 -9l11 -98c1 -8 -1 -11 -8 -11h-212v-526c0 -8 -3 -11 -9 -11h-130c-7 -1 -11 3 -11 10z" />
    <glyph glyph-name="U" unicode="U" horiz-adv-x="761" 
d="M246 646v-396c0 -82 41 -138 137 -138c68 0 132 32 132 141v392c0 8 2 10 9 10h131c7 0 10 -2 10 -10v-390c0 -191 -127 -265 -285 -265c-169 0 -284 84 -284 260v395c0 7 2 10 10 10h132c6 0 8 -2 8 -9z" />
    <glyph glyph-name="V" unicode="V" horiz-adv-x="720" 
d="M372 150h2c22 77 83 272 156 496c2 7 5 9 11 9h139c6 0 10 -3 6 -11l-237 -637c-2 -6 -6 -7 -11 -7h-143c-6 0 -9 1 -12 7l-245 637c-3 6 -1 11 6 11h145c7 0 8 -2 10 -7c87 -236 153 -423 173 -498z" />
    <glyph glyph-name="W" unicode="W" horiz-adv-x="999" 
d="M591 646l111 -485h1c11 55 40 188 109 485c2 7 4 9 12 9h132c7 0 9 -2 7 -10l-181 -638c-2 -6 -5 -7 -11 -7h-136c-8 0 -10 2 -12 7c-33 137 -97 400 -119 500h-1c-23 -109 -93 -365 -128 -496c-1 -6 -4 -11 -11 -11h-133c-7 0 -11 3 -14 10l-181 635c-2 7 1 10 7 10h142
c5 0 10 0 12 -8c89 -360 106 -429 115 -487h1c12 60 28 133 115 486c2 8 6 9 12 9h140c6 0 9 -2 11 -9z" />
    <glyph glyph-name="X" unicode="X" horiz-adv-x="691" 
d="M642 642l-195 -305l210 -325c4 -6 1 -11 -5 -12h-155c-10 0 -14 3 -18 10l-140 235h-1l-138 -236c-4 -7 -8 -9 -15 -9h-147c-7 0 -8 7 -4 11l208 317l-200 317c-4 6 0 10 5 10h154c7 0 11 -1 14 -8l136 -237h1l131 236c4 7 6 9 15 9h138c8 0 10 -7 6 -13z" />
    <glyph glyph-name="Y" unicode="Y" horiz-adv-x="675" 
d="M254 259l-222 385c-5 8 2 11 7 11h152c7 0 8 -2 11 -6c100 -203 129 -262 143 -294l137 295c2 4 4 5 10 5h146c6 0 8 -3 5 -9l-223 -389c-7 -11 -9 -19 -9 -34v-213c0 -7 -2 -10 -10 -10h-129c-9 0 -11 3 -11 10v219c0 16 -1 20 -7 30z" />
    <glyph glyph-name="Z" unicode="Z" horiz-adv-x="634" 
d="M577 0h-527c-6 0 -10 0 -10 9v69c0 6 1 8 3 13l341 446h-333c-7 0 -10 1 -9 8l18 101c1 8 4 9 10 9h497c6 0 7 -2 7 -7v-76c0 -5 -1 -10 -5 -15l-330 -439h361c6 0 8 -4 6 -11l-20 -98c-1 -6 -2 -9 -9 -9z" />
    <glyph glyph-name="bracketleft" unicode="[" horiz-adv-x="381" 
d="M199 677v-768l127 -5c3 0 4 -3 4 -6v-71c-1 -4 -2 -6 -7 -6h-227c-6 0 -9 3 -9 10v922c0 7 2 9 9 9h228c4 0 5 -1 5 -5v-71c0 -4 -2 -5 -5 -5z" />
    <glyph glyph-name="backslash" unicode="\" horiz-adv-x="347" 
d="M199 -30l-172 758c-1 4 0 7 5 7h102c5 0 7 -2 8 -6l177 -758c2 -8 0 -10 -7 -10h-102c-9 0 -10 3 -11 9z" />
    <glyph glyph-name="bracketright" unicode="]" horiz-adv-x="383" 
d="M194 -94v768l-127 5c-3 0 -4 3 -4 6v70c1 4 2 7 7 7h227c6 0 9 -3 9 -10v-922c0 -7 -2 -9 -9 -9h-228c-4 0 -5 1 -5 5v71c0 4 2 5 5 5z" />
    <glyph glyph-name="asciicircum" unicode="^" horiz-adv-x="583" 
d="M525 224h-98c-8 0 -11 3 -13 8l-123 286h-1l-120 -285c-3 -6 -4 -10 -11 -9h-97c-6 0 -9 5 -6 10l171 380c1 4 4 6 7 6h111c7 0 9 -2 11 -7l173 -378c3 -7 1 -11 -4 -11z" />
    <glyph glyph-name="underscore" unicode="_" horiz-adv-x="558" 
d="M20 -74h515v-49h-515v49z" />
    <glyph glyph-name="quoteleft" unicode="&#x2018;" horiz-adv-x="245" 
d="M108 720h102c5 0 6 -4 5 -8c-28 -78 -39 -123 -39 -187c0 -26 4 -55 7 -72c0 -4 -1 -7 -7 -7h-109c-6 0 -10 2 -11 8c-5 18 -8 41 -8 72c0 58 14 125 50 188c2 5 4 6 10 6z" />
    <glyph glyph-name="a" unicode="a" horiz-adv-x="580" 
d="M196 161c0 -34 34 -57 103 -57c16 0 40 2 54 7v110c-120 -4 -157 -22 -157 -60zM497 38c-80 -34 -148 -48 -223 -48c-114 0 -225 44 -225 165c0 116 99 154 304 164v4c0 14 -10 54 -98 54c-50 0 -102 -13 -144 -31c-5 -2 -9 0 -9 6v98c0 5 1 9 7 11c50 24 118 38 175 38
c146 0 214 -86 214 -202l-1 -181c0 -25 1 -48 3 -74c0 -2 0 -3 -3 -4z" />
    <glyph glyph-name="b" unicode="b" horiz-adv-x="641" 
d="M91 710h132c8 0 10 -1 10 -8v-222c29 11 63 19 106 19c151 0 236 -107 236 -234c0 -176 -132 -274 -300 -274c-60 0 -119 6 -186 30c-4 2 -6 6 -6 11v671c0 5 2 7 8 7zM421 248c0 85 -51 126 -119 126c-29 0 -48 -5 -69 -15v-242c17 -6 34 -7 53 -7c58 0 135 33 135 138z
" />
    <glyph glyph-name="c" unicode="c" horiz-adv-x="510" 
d="M451 128v-106c0 -5 -1 -8 -5 -10c-35 -16 -74 -22 -127 -22c-169 0 -258 108 -258 254c0 153 119 255 281 255c57 0 88 -11 105 -17c5 -3 6 -5 6 -12l-1 -104c0 -7 -4 -8 -9 -6c-23 9 -49 16 -90 16c-83 0 -137 -48 -137 -130c0 -98 71 -129 135 -129c48 0 73 9 92 16
c6 2 8 -2 8 -5z" />
    <glyph glyph-name="d" unicode="d" horiz-adv-x="636" 
d="M329 -10c-155 0 -268 78 -268 249c0 141 107 260 295 260c22 0 33 -1 47 -5v209c0 5 3 7 8 7h136c5 0 6 -2 6 -6v-575c0 -26 2 -61 4 -77c1 -7 0 -9 -7 -11c-70 -33 -150 -51 -221 -51zM403 121v251c-11 5 -29 7 -49 7c-77 0 -138 -42 -138 -133c0 -92 57 -132 131 -132
c20 0 42 3 56 7z" />
    <glyph glyph-name="e" unicode="e" horiz-adv-x="593" 
d="M315 499c156 0 222 -113 222 -214c0 -50 -6 -74 -10 -77c-11 -5 -45 -6 -106 -6h-207c5 -46 47 -86 144 -86c38 0 87 7 132 25c3 1 7 1 7 -5v-105c0 -8 -2 -10 -7 -13c-43 -20 -95 -28 -165 -28c-195 0 -264 126 -264 253c0 139 88 256 254 256zM213 306h146
c32 0 36 2 37 6v6c0 21 -18 68 -88 68c-57 0 -88 -41 -95 -80z" />
    <glyph glyph-name="f" unicode="f" horiz-adv-x="349" 
d="M94 373l-61 3c-5 1 -7 3 -7 9v97c0 5 3 7 7 7h61v10c0 119 63 221 195 221c31 0 53 -4 66 -9c6 -3 7 -5 7 -11v-110c0 -4 -2 -8 -9 -6c-9 3 -24 6 -38 6c-37 0 -71 -17 -71 -88v-13h86c8 0 9 -3 9 -9v-96c0 -6 -2 -8 -9 -9l-86 -3v-362c0 -6 -1 -10 -10 -10h-130
c-8 0 -10 3 -10 10v363z" />
    <glyph glyph-name="g" unicode="g" horiz-adv-x="592" 
d="M348 328c0 42 -23 68 -71 68c-41 0 -72 -26 -72 -66s28 -67 71 -67s72 23 72 65zM413 -63c0 44 -62 54 -144 54c-24 0 -33 -1 -44 -3c-12 -7 -35 -25 -35 -48c0 -31 34 -65 109 -65c79 0 114 32 114 62zM279 499c61 0 101 -10 134 -23c16 -5 18 -5 26 -6h112
c5 0 7 -2 7 -7v-101c0 -6 -3 -7 -7 -7l-67 3c6 -9 8 -22 8 -36c0 -107 -87 -163 -207 -163c-13 0 -27 2 -34 3c-5 -7 -7 -15 -7 -23c0 -14 6 -23 13 -30c8 1 23 1 41 1c156 0 261 -35 261 -153c0 -105 -109 -194 -266 -194c-148 0 -245 71 -245 168c0 48 34 87 89 131
c-16 24 -24 44 -24 68c0 19 8 42 18 59c-33 19 -72 60 -72 138c0 98 83 172 220 172z" />
    <glyph glyph-name="h" unicode="h" horiz-adv-x="632" 
d="M83 9v693c0 6 1 8 8 8h134c6 0 8 -2 8 -7v-245c34 22 78 41 138 41c91 0 178 -54 178 -215v-274c0 -7 -4 -10 -10 -10h-131c-7 0 -9 3 -9 9v272c0 61 -26 91 -79 91c-40 0 -65 -14 -87 -30v-334c0 -6 -2 -8 -8 -8h-133c-7 0 -9 3 -9 9z" />
    <glyph glyph-name="i" unicode="i" horiz-adv-x="316" 
d="M82 10v470c0 6 3 9 9 9h132c7 0 9 -2 9 -9v-470c0 -7 -1 -10 -9 -10h-130c-8 0 -11 3 -11 10zM158 539c-48 0 -81 29 -81 74c0 44 34 74 83 74s79 -30 79 -74c0 -45 -32 -74 -81 -74z" />
    <glyph glyph-name="j" unicode="j" horiz-adv-x="315" 
d="M233 76c1 -150 -13 -204 -48 -250c-36 -43 -89 -56 -137 -56c-10 0 -37 1 -50 4c-7 2 -10 5 -10 12l1 99c0 6 2 9 8 9c72 -3 86 21 86 92v493c0 7 3 10 10 10h131c6 0 10 -2 10 -9zM159 539c-49 0 -81 29 -81 74c0 44 34 74 82 74c49 0 80 -30 80 -74
c0 -45 -32 -74 -81 -74z" />
    <glyph glyph-name="k" unicode="k" horiz-adv-x="608" 
d="M83 702c0 4 1 8 10 8h130c7 0 10 -2 10 -8v-399h38c7 0 12 2 15 7c25 35 85 126 115 172c4 6 5 7 13 7h136c7 0 8 -6 5 -11c-32 -53 -125 -169 -161 -214c-3 -4 -3 -8 0 -10c64 -79 132 -165 197 -244c3 -4 1 -10 -6 -10h-169c-8 0 -11 2 -14 8c-39 57 -78 110 -120 173
c-5 7 -9 8 -16 8h-33v-178c0 -8 -2 -11 -10 -11h-130c-9 0 -10 3 -10 11v691z" />
    <glyph glyph-name="l" unicode="l" horiz-adv-x="334" 
d="M83 701c0 6 2 9 10 9h130c7 0 10 -2 10 -9v-559c0 -29 11 -35 30 -35c5 0 16 1 24 1c3 1 5 -1 5 -6l-1 -88c0 -8 -1 -10 -7 -13c-12 -5 -39 -11 -75 -11c-78 0 -126 33 -126 136v575z" />
    <glyph glyph-name="m" unicode="m" horiz-adv-x="941" 
d="M685 499c78 0 173 -50 173 -203v-287c0 -6 -4 -9 -10 -9h-130c-6 0 -10 3 -10 10v273c0 51 -17 89 -74 89c-31 0 -63 -14 -92 -36c2 -11 4 -30 4 -47v-279c0 -6 -2 -10 -9 -10h-130c-7 0 -11 2 -11 10v272c0 62 -28 90 -76 90c-31 0 -58 -12 -87 -33v-330
c0 -6 -3 -9 -10 -9h-131c-6 0 -9 3 -9 10v370c0 38 -3 82 -4 99c-1 7 1 10 8 10h116c6 0 8 -2 11 -7c4 -8 7 -28 9 -38c48 35 96 55 152 55c57 0 101 -20 132 -67c51 40 102 67 178 67z" />
    <glyph glyph-name="n" unicode="n" horiz-adv-x="631" 
d="M83 10v361c0 35 -3 87 -4 109c-1 5 1 9 6 9h115c9 0 13 -3 15 -9c4 -9 6 -23 7 -34c41 33 97 53 153 53c88 0 174 -47 174 -215v-274c0 -7 -3 -10 -10 -10h-130c-7 0 -10 3 -10 10v268c0 61 -24 94 -79 94c-31 0 -64 -15 -87 -35v-328c0 -6 -3 -9 -10 -9h-131
c-6 0 -9 3 -9 10z" />
    <glyph glyph-name="o" unicode="o" horiz-adv-x="649" 
d="M328 499c172 0 260 -118 260 -252c0 -160 -110 -257 -263 -257c-187 0 -264 126 -264 253c0 149 107 256 267 256zM321 386c-61 0 -108 -51 -108 -136c0 -86 43 -142 114 -142c60 0 108 44 108 136c0 83 -35 142 -114 142z" />
    <glyph glyph-name="p" unicode="p" horiz-adv-x="636" 
d="M317 499c183 0 258 -117 258 -239c0 -183 -146 -269 -298 -269c-16 0 -34 1 -43 4l-1 -194c0 -5 -2 -7 -9 -9c-42 -4 -125 -12 -134 -12c-6 0 -7 2 -7 7v591c0 14 -3 55 -4 69c0 3 1 5 4 6c57 18 143 46 234 46zM303 374c-32 0 -49 -4 -70 -9v-249c9 -3 34 -6 49 -6
c72 0 138 37 138 141c0 84 -54 123 -117 123z" />
    <glyph glyph-name="q" unicode="q" horiz-adv-x="636" 
d="M317 -10c-152 0 -256 91 -256 244c0 146 111 265 313 265c71 0 135 -14 181 -30c3 -1 4 -2 3 -7c-2 -16 -4 -62 -4 -78v-582c0 -5 -2 -8 -8 -10c-44 -4 -129 -12 -135 -12s-7 4 -7 9v213c-32 -10 -53 -12 -87 -12zM404 124v249c-13 4 -33 6 -47 6
c-79 0 -141 -43 -141 -137c0 -92 66 -128 133 -128c25 0 40 3 55 10z" />
    <glyph glyph-name="r" unicode="r" horiz-adv-x="431" 
d="M84 489h119c7 0 10 -3 13 -10c5 -14 9 -38 11 -61c37 51 103 81 153 81c5 0 10 0 15 -1s7 -2 7 -12l-1 -120c0 -6 -2 -9 -9 -9c-54 2 -119 -17 -159 -56v-292c0 -7 -2 -9 -9 -9h-131c-7 0 -10 3 -10 10v334c0 39 -2 100 -6 138c0 5 2 7 7 7z" />
    <glyph glyph-name="s" unicode="s" horiz-adv-x="474" 
d="M388 347c-40 22 -90 40 -147 40c-41 0 -54 -16 -54 -30c0 -15 4 -23 82 -49c116 -37 160 -84 160 -158c0 -100 -75 -160 -203 -160c-51 0 -118 11 -167 40c-6 3 -8 6 -8 12v112c0 5 5 7 8 5c60 -36 123 -57 178 -57c41 0 53 17 53 31c0 18 -14 28 -86 53
c-116 40 -153 84 -153 158c0 83 67 155 200 155c64 0 109 -12 142 -30c5 -4 6 -7 6 -14l-1 -101c0 -6 -3 -11 -10 -7z" />
    <glyph glyph-name="t" unicode="t" horiz-adv-x="389" 
d="M346 109v-88c0 -7 -1 -11 -7 -13c-30 -14 -64 -18 -101 -18c-91 0 -144 44 -144 147v236l-61 3c-6 1 -8 4 -8 10v94c0 7 2 9 9 9h60c2 33 6 94 12 124c1 4 4 8 9 9l127 24c5 1 8 1 8 -6c-3 -32 -5 -103 -6 -151h100c6 0 8 -2 8 -8v-97c0 -6 -2 -7 -7 -8l-101 -3v-199
c0 -44 11 -64 55 -64c12 0 23 1 40 6c3 1 7 0 7 -7z" />
    <glyph glyph-name="u" unicode="u" horiz-adv-x="625" 
d="M542 481v-366c0 -56 4 -86 6 -107c1 -6 -2 -8 -9 -8h-115c-8 0 -10 2 -12 7c-3 9 -5 23 -5 32c-48 -36 -95 -49 -150 -49c-93 0 -174 47 -174 189v302c0 7 3 8 9 8h133c7 0 8 -2 8 -8v-274c0 -56 17 -95 75 -95c32 0 61 11 84 32v336c0 6 3 9 10 9h132c7 0 8 -2 8 -8z
" />
    <glyph glyph-name="v" unicode="v" horiz-adv-x="573" 
d="M360 0h-148c-7 0 -9 3 -11 7c-42 118 -129 352 -172 473c-2 5 -1 9 6 9h143c7 0 9 -2 11 -7c67 -217 96 -324 106 -371h2c10 46 39 148 112 371c2 5 4 7 9 7h126c4 0 9 -3 6 -10c-46 -122 -133 -359 -177 -470c-2 -6 -5 -9 -13 -9z" />
    <glyph glyph-name="w" unicode="w" horiz-adv-x="826" 
d="M641 0h-139c-8 0 -10 3 -12 10c-47 192 -65 278 -76 329h-1c-10 -54 -37 -152 -89 -329c-2 -8 -5 -10 -11 -10h-139c-11 0 -13 3 -16 10l-133 470c-1 5 1 9 8 9h134c6 0 8 -2 10 -7c60 -236 73 -309 81 -347h2c1 7 30 126 85 345c1 6 3 9 11 9h132c6 0 8 -2 9 -7
c56 -228 72 -312 79 -351h2c15 73 37 184 84 350c1 5 4 8 10 8h122c5 0 9 -3 7 -9l-147 -470c-3 -8 -4 -10 -13 -10z" />
    <glyph glyph-name="x" unicode="x" horiz-adv-x="563" 
d="M180 243l-153 235c-3 4 -1 11 7 11h149c9 0 11 -2 15 -9l86 -158h1l91 161c2 5 5 6 10 6h132c6 0 9 -4 5 -10c-33 -54 -116 -178 -154 -230c50 -72 133 -185 170 -240c3 -5 1 -9 -6 -9h-156c-7 0 -12 4 -14 10l-93 159h-2l-89 -162c-2 -5 -6 -7 -13 -7h-134
c-7 0 -9 6 -6 11z" />
    <glyph glyph-name="y" unicode="y" horiz-adv-x="560" 
d="M28 489h145c6 0 10 -2 11 -8c74 -200 100 -280 112 -317h1c35 99 71 222 97 317c2 5 5 8 12 8h123c9 0 10 -5 9 -11c-28 -122 -102 -309 -169 -446c-61 -127 -118 -215 -147 -248c-4 -6 -9 -9 -19 -9h-144c-6 0 -9 7 -4 12c48 55 131 175 157 228c2 6 6 13 4 21
c-30 58 -153 339 -195 443c-2 6 1 10 7 10z" />
    <glyph glyph-name="z" unicode="z" horiz-adv-x="501" 
d="M447 0h-407c-4 0 -6 2 -6 6v64c0 6 2 8 4 11l237 293c-21 -1 -58 -1 -97 -1h-137c-8 0 -9 4 -8 11l17 95c1 6 4 10 11 10h382c5 0 7 -2 8 -7v-65c0 -7 -1 -9 -6 -15c-79 -107 -201 -256 -227 -288c41 0 77 1 115 1h135c6 0 8 -2 6 -10l-18 -97c-1 -6 -5 -8 -9 -8z" />
    <glyph glyph-name="braceleft" unicode="{" horiz-adv-x="447" 
d="M55 240c-5 0 -5 3 -5 7v96c0 3 2 5 5 5c88 0 118 21 120 83c1 43 -5 112 -5 156c0 63 43 168 218 191c5 1 8 0 8 -6v-91c0 -5 -1 -6 -6 -7c-84 -16 -98 -61 -98 -98c0 -45 6 -107 6 -149c0 -70 -35 -111 -111 -130v-3c88 -19 112 -72 113 -132c1 -48 -8 -112 -8 -159
c0 -42 19 -79 101 -93c6 -2 6 -2 6 -9v-91c0 -5 -2 -7 -6 -7c-134 10 -223 77 -223 190c0 57 8 98 8 155c0 62 -29 92 -123 92z" />
    <glyph glyph-name="bar" unicode="|" horiz-adv-x="298" 
d="M212 -196h-126v980h126v-980z" />
    <glyph glyph-name="braceright" unicode="}" horiz-adv-x="447" 
d="M394 347c5 0 6 -3 6 -7v-96c0 -3 -2 -5 -6 -5c-88 0 -118 -20 -120 -83c-1 -43 5 -117 5 -161c0 -64 -43 -169 -218 -191c-5 -1 -7 0 -7 6l-1 90c0 6 1 7 6 8c85 15 98 60 98 97c0 45 -5 113 -5 155c0 70 35 111 110 130v3c-88 19 -112 72 -113 132c0 48 8 107 8 154
c0 41 -18 79 -100 93c-7 1 -7 2 -7 8v92c0 5 3 7 6 7c135 -10 223 -78 223 -191c0 -57 -8 -92 -8 -149c0 -62 30 -92 123 -92z" />
    <glyph glyph-name="asciitilde" unicode="~" horiz-adv-x="604" 
d="M144 183h-86c-6 1 -7 4 -7 9c-2 138 60 186 139 186c49 0 81 -18 134 -54c47 -31 68 -45 92 -45c26 0 39 12 38 84c0 6 2 8 8 8h84c6 0 8 -4 8 -7c9 -149 -60 -188 -133 -188c-47 0 -85 16 -137 52c-45 31 -63 49 -87 49c-22 0 -47 -10 -45 -86c0 -5 -2 -8 -8 -8z" />
    <glyph glyph-name="exclamdown" unicode="&#xa1;" horiz-adv-x="332" 
d="M134 -212c-24 0 -63 4 -76 11c-6 4 -6 9 -6 12v70c0 84 20 302 24 332c1 3 2 7 9 7h100c4 0 6 -3 7 -8c3 -27 23 -244 23 -328v-69c0 -4 0 -9 -6 -12c-15 -9 -57 -15 -75 -15zM135 463c51 0 86 -31 86 -81c0 -47 -35 -82 -86 -82c-52 0 -87 34 -87 82c0 50 35 81 87 81z
" />
    <glyph glyph-name="cent" unicode="&#xa2;" horiz-adv-x="618" 
d="M421 81v-86c0 -6 -2 -7 -7 -7h-101c-6 0 -7 3 -7 8v86c-117 17 -206 102 -206 233c0 134 97 216 206 237v84c0 5 2 6 7 6h101c4 0 7 -1 7 -6v-79c22 0 68 -8 87 -19c5 -2 6 -5 6 -11l-1 -103c0 -6 -4 -9 -11 -6c-28 11 -66 21 -113 21c-85 0 -140 -45 -140 -119
c0 -91 79 -121 144 -121c48 0 84 8 117 22c5 1 7 -1 7 -7v-100c0 -6 -3 -9 -8 -11c-25 -14 -63 -20 -88 -22z" />
    <glyph glyph-name="sterling" unicode="&#xa3;" horiz-adv-x="618" 
d="M520 0h-442c-4 0 -5 3 -5 7v82c0 5 1 7 5 8c74 22 101 80 101 144v15h-83c-5 0 -6 1 -6 7v82c0 5 1 7 7 7h75c-2 16 -2 38 -2 47c0 135 81 231 223 231c53 0 96 -9 114 -19c6 -3 6 -7 6 -12v-106c0 -5 -3 -6 -7 -5c-23 10 -49 17 -86 17c-74 0 -106 -47 -106 -121v-32
h136c5 0 7 -2 7 -7v-82c0 -6 -2 -7 -7 -7h-132c-4 -62 -26 -105 -66 -137h288c6 0 8 -3 7 -8l-17 -103c-1 -6 -4 -8 -10 -8z" />
    <glyph glyph-name="fraction" unicode="&#x2044;" horiz-adv-x="148" 
d="M-80 -11h-87c-5 0 -6 3 -4 7l362 629c3 4 5 5 8 5h89c3 0 4 -3 2 -5l-360 -630c-3 -4 -4 -6 -10 -6z" />
    <glyph glyph-name="yen" unicode="&#xa5;" horiz-adv-x="618" 
d="M370 0h-129c-6 0 -8 4 -8 10v125h-132c-5 0 -8 2 -8 8v66c0 5 1 7 7 7h133v60h-132c-5 0 -8 1 -8 8v63c0 6 3 7 8 7h111l-174 258c-3 4 -2 8 3 8h150c6 0 7 -1 9 -6l69 -126c16 -33 30 -60 44 -92h1c12 25 27 60 42 92l66 125c2 5 6 7 11 7h142c5 0 8 -3 4 -9l-171 -257
h106c4 0 7 -1 7 -6v-65c0 -5 -1 -7 -7 -7h-136v-60h136c6 0 7 -3 7 -7v-67c0 -5 -4 -7 -7 -7h-136v-126c0 -5 -2 -9 -8 -9z" />
    <glyph glyph-name="florin" unicode="&#x192;" horiz-adv-x="618" 
d="M128 289v80c0 6 2 7 7 7h91l9 60c11 84 63 224 215 224c40 0 65 -4 84 -13c5 -3 6 -4 6 -10v-101c0 -6 -3 -8 -8 -6c-15 7 -32 11 -59 11c-53 0 -81 -39 -92 -110l-7 -55h106c4 0 7 0 7 -7v-80c0 -6 -1 -7 -6 -7h-118l-27 -202c-16 -123 -65 -214 -197 -214
c-47 0 -77 7 -95 18c-5 3 -8 5 -8 12v107c0 5 4 8 9 6c29 -13 54 -18 71 -18c53 0 66 33 74 99l26 192h-81c-4 0 -7 2 -7 7z" />
    <glyph glyph-name="section" unicode="&#xa7;" horiz-adv-x="566" 
d="M157 414c1 -59 20 -98 128 -220c89 -92 117 -143 111 -195c27 28 41 69 41 104c0 64 -20 116 -120 217c-112 112 -124 145 -128 199c-22 -29 -33 -65 -32 -105zM477 531c0 -8 -7 -7 -10 -5c-50 35 -94 43 -131 43c-35 0 -53 -14 -53 -33c0 -22 3 -34 108 -136
c84 -81 145 -151 145 -272c0 -148 -118 -285 -273 -285c-84 0 -143 31 -164 48c-3 3 -6 5 -6 13v97c0 4 4 7 8 4c69 -48 126 -57 163 -57c32 0 44 11 44 27c0 30 -13 44 -116 155c-94 101 -128 164 -128 255c0 148 117 281 273 281c65 0 113 -16 133 -33c5 -4 6 -6 6 -10z
" />
    <glyph glyph-name="currency" unicode="&#xa4;" horiz-adv-x="618" 
d="M214 314c0 -83 50 -110 94 -110c46 0 94 24 94 110c0 62 -32 111 -95 111c-56 0 -93 -43 -93 -111zM106 314c0 48 14 80 30 103l-79 75c-2 3 -3 6 0 10l58 60c4 4 8 3 11 -1l76 -75c28 18 60 30 105 30c46 0 78 -11 107 -30l77 73c3 3 7 4 10 0l57 -58c4 -4 3 -6 -1 -9
l-76 -75c15 -23 30 -57 30 -104c0 -52 -13 -78 -30 -105l74 -72c3 -3 4 -6 0 -11l-57 -55c-4 -4 -8 -3 -12 1l-69 72c-23 -17 -63 -31 -109 -31c-50 0 -85 13 -110 30l-66 -72c-5 -4 -8 -6 -13 -1l-56 53c-6 5 -6 8 -1 13l73 72c-17 25 -29 54 -29 107z" />
    <glyph glyph-name="quotesingle" unicode="'" horiz-adv-x="240" 
d="M55 454l-2 256c0 8 2 10 8 10h124c6 0 8 -2 7 -6l-21 -261c-1 -6 -5 -6 -10 -6h-98c-5 0 -8 3 -8 7z" />
    <glyph glyph-name="quotedblleft" unicode="&#x201c;" horiz-adv-x="446" 
d="M98 720h100c3 0 5 -5 4 -8c-18 -79 -24 -150 -24 -196c0 -25 1 -50 3 -64c0 -4 -1 -6 -4 -6h-113c-5 0 -7 2 -8 7c-3 14 -5 42 -4 63c0 57 13 134 37 197c1 3 4 7 9 7zM302 720h101c4 0 5 -5 4 -9c-19 -78 -25 -149 -25 -195c0 -25 1 -50 3 -64c0 -4 -2 -6 -6 -6h-110
c-5 0 -7 2 -8 7c-3 14 -5 42 -5 63c0 57 14 134 37 197c1 2 4 7 9 7z" />
    <glyph glyph-name="guillemotleft" unicode="&#xab;" horiz-adv-x="732" 
d="M94 206v76c0 4 2 7 6 9l242 176c6 3 11 1 11 -6v-98c0 -8 -1 -11 -8 -14l-134 -106l136 -106c4 -4 6 -7 6 -12v-103c0 -8 -5 -9 -11 -6l-243 180c-4 3 -5 5 -5 10zM381 206v76c0 4 2 5 6 6l242 179c5 3 9 1 9 -6v-98c0 -8 0 -11 -6 -14l-135 -106l135 -105
c5 -4 6 -6 6 -13v-103c0 -8 -4 -9 -10 -6l-242 180c-4 3 -5 5 -5 10z" />
    <glyph glyph-name="guilsinglleft" unicode="&#x2039;" horiz-adv-x="501" 
d="M94 206v76c0 4 2 7 6 9l298 176c5 3 9 1 9 -6v-97c0 -7 -1 -10 -7 -14l-178 -107l178 -107c5 -3 7 -6 7 -13v-101c0 -8 -4 -9 -10 -6l-298 180c-4 3 -5 5 -5 10z" />
    <glyph glyph-name="guilsinglright" unicode="&#x203a;" horiz-adv-x="501" 
d="M407 277v-76c0 -4 -2 -7 -6 -9l-297 -176c-6 -3 -10 -1 -10 6v97c0 7 1 10 7 13l178 108l-178 107c-5 3 -7 6 -7 13v101c0 8 4 9 10 6l298 -180c4 -3 5 -6 5 -10z" />
    <glyph glyph-name="endash" unicode="&#x2013;" horiz-adv-x="567" 
d="M84 300c0 6 2 7 7 7h386c5 0 6 -2 6 -6v-93c0 -5 -2 -6 -6 -6h-386c-6 0 -7 2 -7 7v91z" />
    <glyph glyph-name="dagger" unicode="&#x2020;" horiz-adv-x="491" 
d="M189 408v180c0 7 2 9 8 9h84c6 0 8 -1 8 -8v-181h141c4 0 6 -2 6 -6v-71c0 -8 0 -9 -8 -9h-139v-399c0 -5 -1 -7 -6 -7h-87c-4 0 -7 2 -7 8v397h-143c-5 0 -7 1 -7 6v75c0 5 2 6 6 6h144z" />
    <glyph glyph-name="daggerdbl" unicode="&#x2021;" horiz-adv-x="491" 
d="M289 125v-200c0 -6 -2 -9 -9 -9h-82c-7 0 -9 4 -9 10v199h-140c-7 0 -10 1 -10 8v72c0 5 2 6 8 6h142v127h-140c-7 0 -10 1 -10 8v72c0 5 2 7 8 7h142v163c0 7 2 9 8 9h84c6 0 8 -1 8 -8v-164h139c7 0 8 -2 8 -9v-69c0 -7 0 -9 -8 -9h-139v-127h139c6 0 8 -1 8 -7v-70
c0 -7 0 -9 -8 -9h-139z" />
    <glyph glyph-name="periodcentered" unicode="&#xb7;" horiz-adv-x="367" 
d="M185 172c-52 0 -90 34 -90 89c0 54 38 88 90 88c53 0 89 -37 89 -88c0 -52 -33 -89 -89 -89z" />
    <glyph glyph-name="paragraph" unicode="&#xb6;" horiz-adv-x="561" 
d="M406 -178c-2 -3 -6 -5 -12 -5h-79c-5 0 -7 4 -5 8c34 61 40 138 40 183v14c-136 11 -290 74 -290 280c0 144 98 257 287 282c2 26 11 63 18 77c3 4 5 6 10 6h82c5 0 7 -1 6 -6c-4 -17 -17 -75 -17 -117c0 -177 3 -298 4 -492c0 -98 -13 -187 -44 -230z" />
    <glyph glyph-name="bullet" unicode="&#x2022;" horiz-adv-x="450" 
d="M94 261c0 73 50 127 131 127s131 -56 131 -127c0 -74 -49 -128 -131 -128c-81 0 -131 56 -131 128z" />
    <glyph glyph-name="quotesinglbase" unicode="&#x201a;" horiz-adv-x="259" 
d="M132 -124h-103c-7 0 -9 6 -6 10c43 95 49 157 49 203c0 26 -5 62 -7 77c0 5 2 7 6 7h124c6 0 8 -2 10 -9c4 -15 7 -41 7 -71c0 -59 -15 -132 -67 -210c-1 -3 -5 -7 -13 -7z" />
    <glyph glyph-name="quotedblbase" unicode="&#x201e;" horiz-adv-x="484" 
d="M357 -124h-103c-7 0 -9 6 -6 10c43 95 49 157 49 203c0 26 -5 62 -7 77c0 5 2 7 6 7h124c6 0 8 -2 10 -9c4 -15 7 -41 7 -71c0 -59 -15 -132 -67 -210c-1 -3 -5 -7 -13 -7zM132 -124h-103c-7 0 -9 6 -6 10c43 95 49 157 49 203c0 26 -5 62 -7 77c0 5 2 7 6 7h124
c6 0 8 -2 10 -9c4 -15 7 -41 7 -71c0 -59 -15 -132 -67 -210c-1 -3 -5 -7 -13 -7z" />
    <glyph glyph-name="quotedblright" unicode="&#x201d;" horiz-adv-x="446" 
d="M356 446h-100c-3 0 -4 4 -4 8c19 78 25 150 25 195c0 25 -1 51 -3 65c0 4 0 6 4 6h113c4 0 6 -2 7 -7c3 -15 5 -43 5 -63c0 -57 -13 -134 -37 -197c-1 -3 -4 -7 -10 -7zM152 446h-101c-3 0 -4 5 -3 9c19 78 25 149 25 194c0 25 -1 51 -3 65c0 4 2 6 5 6h111
c5 0 7 -2 8 -7c3 -15 5 -43 5 -63c0 -57 -14 -134 -38 -197c-1 -3 -4 -7 -9 -7z" />
    <glyph glyph-name="guillemotright" unicode="&#xbb;" horiz-adv-x="732" 
d="M638 277v-76c0 -4 -1 -7 -6 -9l-242 -176c-5 -3 -10 -1 -10 6v98c0 8 1 10 7 14l134 106l-134 105c-5 4 -7 6 -7 13v103c0 8 5 9 11 6l242 -180c4 -3 5 -6 5 -10zM352 277v-76c0 -4 -2 -5 -6 -7l-242 -178c-6 -3 -10 -1 -10 6v98c0 8 1 10 7 14l134 106l-134 105
c-5 4 -7 6 -7 13v103c0 8 4 9 10 6l242 -180c5 -3 6 -6 6 -10z" />
    <glyph glyph-name="ellipsis" unicode="&#x2026;" horiz-adv-x="992" 
d="M162 -10c-52 0 -90 34 -90 89c0 54 38 88 90 88c53 0 89 -37 89 -88c0 -52 -33 -89 -89 -89zM484 -10c-52 0 -90 34 -90 89c0 54 38 88 90 88c53 0 89 -37 89 -88c0 -52 -33 -89 -89 -89zM807 -10c-52 0 -90 34 -90 89c0 54 38 88 90 88c53 0 89 -37 89 -88
c0 -52 -33 -89 -89 -89z" />
    <glyph glyph-name="perthousand" unicode="&#x2030;" horiz-adv-x="1302" 
d="M1065 355c117 0 173 -78 173 -183c0 -86 -56 -182 -173 -182c-119 0 -173 80 -173 179c0 118 81 186 173 186zM1004 172c0 -55 21 -96 63 -96c35 0 60 33 60 96c0 64 -23 98 -61 98c-37 0 -62 -33 -62 -98zM238 628c116 0 172 -78 172 -183c0 -87 -56 -183 -173 -183
c-119 0 -173 80 -173 179c0 119 81 187 174 187zM176 445c0 -54 21 -97 64 -97c35 0 59 34 59 97s-23 98 -61 98c-37 0 -62 -30 -62 -98zM685 355c116 0 173 -78 173 -183c0 -86 -57 -182 -174 -182c-118 0 -172 80 -172 179c0 118 81 186 173 186zM624 172
c0 -55 21 -96 63 -96c35 0 59 33 59 96c0 64 -22 98 -61 98c-36 0 -61 -33 -61 -98zM735 613l-440 -606c-5 -7 -7 -7 -16 -7h-93c-4 0 -7 5 -2 10l443 603c3 5 7 7 12 7h94c5 0 4 -4 2 -7z" />
    <glyph glyph-name="questiondown" unicode="&#xbf;" horiz-adv-x="480" 
d="M235 -212c-129 0 -206 72 -206 167c0 110 143 175 143 226c0 17 -5 29 -15 46c-2 5 0 8 5 8l111 2c5 0 7 1 13 -5c18 -19 26 -47 26 -67c0 -78 -130 -124 -130 -195c0 -34 27 -62 85 -62c43 0 89 11 129 26c4 1 8 0 8 -5l1 -96c0 -5 0 -9 -5 -11
c-27 -13 -82 -34 -165 -34zM223 464c49 0 85 -31 85 -84c0 -51 -36 -83 -85 -83c-51 0 -86 35 -86 83c0 50 31 84 86 84z" />
    <glyph glyph-name="grave" unicode="`" 
d="M217 696l87 -147c2 -4 1 -9 -5 -9h-117c-5 0 -8 3 -11 6l-115 146c-4 5 -2 10 4 10h145c5 0 9 -1 12 -6z" />
    <glyph glyph-name="acute" unicode="&#xb4;" 
d="M143 548l77 144c3 7 8 10 13 10h143c8 0 10 -3 6 -10l-104 -146c-4 -5 -11 -6 -17 -6h-114c-5 0 -6 3 -4 8z" />
    <glyph glyph-name="circumflex" unicode="&#x2c6;" 
d="M211 628c-14 -22 -46 -70 -60 -89c-3 -2 -4 -4 -10 -4h-93c-6 0 -7 6 -4 10l106 148c3 3 5 5 10 5h109c6 0 8 -1 10 -5l109 -149c3 -4 0 -9 -5 -9h-101c-6 0 -8 2 -11 5z" />
    <glyph glyph-name="tilde" unicode="&#x2dc;" 
d="M118 550h-82c-6 0 -8 3 -8 7c-1 104 53 148 113 148c65 0 112 -50 141 -50c20 0 27 18 28 42c0 5 2 6 7 6h81c5 0 7 -1 7 -6c1 -112 -49 -149 -109 -149s-102 47 -141 47c-16 0 -30 -10 -32 -39c0 -2 -2 -6 -5 -6z" />
    <glyph glyph-name="macron" unicode="&#xaf;" 
d="M65 673h305c5 0 7 -3 7 -8v-86c0 -6 -2 -8 -7 -8h-307c-6 0 -7 3 -7 8v85c0 7 4 9 9 9z" />
    <glyph glyph-name="breve" unicode="&#x2d8;" 
d="M40 693h101c3 0 5 -1 6 -4c11 -28 33 -46 68 -46c34 0 60 14 71 46c1 3 2 4 5 4h101c5 0 5 -2 5 -6c-17 -95 -84 -145 -183 -145c-93 0 -164 42 -179 145c-1 5 2 6 5 6z" />
    <glyph glyph-name="dotaccent" unicode="&#x2d9;" 
d="M217 539c-49 0 -81 29 -81 74c0 44 34 74 82 74c49 0 80 -30 80 -74c0 -45 -32 -74 -81 -74z" />
    <glyph glyph-name="dieresis" unicode="&#xa8;" 
d="M112 540c-43 0 -73 29 -73 73c0 43 32 74 74 74s71 -31 71 -74c0 -44 -30 -73 -72 -73zM319 540c-42 0 -72 29 -72 73c0 43 32 74 73 74c44 0 71 -31 71 -74c0 -44 -29 -73 -72 -73z" />
    <glyph glyph-name="ring" unicode="&#x2da;" 
d="M99 630c0 58 45 101 116 101s118 -42 118 -101c0 -62 -46 -103 -118 -103s-116 39 -116 103zM173 630c0 -25 18 -41 42 -41s43 16 43 41c0 24 -19 40 -43 40s-42 -16 -42 -40z" />
    <glyph glyph-name="cedilla" unicode="&#xb8;" 
d="M185 3h86l-33 -42c58 -17 89 -44 89 -100s-53 -103 -133 -103c-28 0 -62 6 -78 14c-6 3 -7 6 -7 13v54c0 7 3 9 9 7c18 -7 47 -13 66 -13c24 0 41 7 41 26s-31 35 -98 44c-3 4 -4 26 0 31z" />
    <glyph glyph-name="hungarumlaut" unicode="&#x2dd;" 
d="M59 557l65 126c4 8 8 10 19 10h106c9 0 11 -8 7 -13l-86 -130c-3 -5 -3 -10 -17 -10h-86c-11 0 -11 10 -8 17zM263 558l66 126c4 8 7 9 15 9h110c9 0 12 -8 8 -13l-87 -129c-4 -5 -8 -10 -22 -10h-81c-12 0 -13 10 -9 17z" />
    <glyph glyph-name="ogonek" unicode="&#x2db;" 
d="M85 -117c0 54 50 106 134 149h109c-90 -46 -113 -79 -113 -108c0 -25 20 -43 57 -43c18 0 33 2 46 6c8 2 10 -2 10 -8v-75c0 -9 -2 -13 -8 -16c-17 -8 -49 -15 -90 -15c-66 0 -145 25 -145 110zM199 -8l87 3l-25 -34c59 -17 89 -44 89 -100s-52 -103 -133 -103
c-27 0 -62 6 -78 14c-5 3 -6 6 -6 13v54c0 7 2 9 8 7c19 -7 48 -13 67 -13c24 0 40 7 40 26s-30 35 -97 44c-3 4 -4 26 0 31z" />
    <glyph glyph-name="caron" unicode="&#x2c7;" 
d="M220 605c14 23 46 70 61 89c2 3 4 4 9 4h93c6 0 8 -6 4 -10l-105 -147c-3 -4 -6 -6 -11 -6h-109c-5 0 -7 2 -10 5l-108 149c-3 5 0 9 4 9h102c5 0 7 -1 11 -5z" />
    <glyph glyph-name="emdash" unicode="&#x2014;" horiz-adv-x="795" 
d="M84 300c0 5 1 7 7 7h613c4 0 7 -1 7 -7v-91c0 -5 -2 -7 -7 -7h-611c-6 0 -9 1 -9 7v91z" />
    <glyph glyph-name="AE" unicode="&#xc6;" horiz-adv-x="973" 
d="M193 0h-141c-7 0 -9 4 -7 11l262 575c3 7 9 23 18 63c2 5 4 6 10 6h506c7 0 9 -2 10 -8l13 -103c1 -6 -2 -7 -7 -7h-278l19 -155h252c5 0 6 -1 6 -7v-104c0 -5 -2 -6 -7 -6h-231l20 -147h276c5 0 7 -2 6 -8l-17 -103c-1 -7 -4 -7 -9 -7h-383c-4 0 -5 1 -6 5l-25 180h-199
l-77 -177c-3 -6 -5 -8 -11 -8zM327 303h137l-21 153c-4 29 -10 65 -14 96h-2c-12 -32 -25 -65 -35 -93z" />
    <glyph glyph-name="ordfeminine" unicode="&#xaa;" horiz-adv-x="425" 
d="M205 600c103 0 158 -57 158 -136l-1 -158c0 -6 -3 -7 -7 -9c-49 -15 -103 -25 -152 -25c-82 0 -159 25 -159 106c0 89 129 101 211 103v4c0 12 -11 33 -65 33c-35 0 -70 -6 -103 -18c-4 -1 -7 1 -7 6v67c0 3 1 4 3 5c38 16 83 22 122 22zM151 381c0 -20 17 -33 59 -33
c20 0 38 3 46 5v63c-40 -1 -105 -3 -105 -35z" />
    <glyph glyph-name="Lslash" unicode="&#x141;" horiz-adv-x="605" 
d="M256 295v-177h298c6 0 8 -4 7 -9l-19 -99c-3 -7 -5 -10 -12 -10h-416c-5 0 -8 3 -8 7v224l-67 -28c-4 -1 -6 1 -6 5v88c0 4 2 6 5 8l68 30v313c0 5 3 8 8 8h134c6 0 8 -2 8 -9v-251l137 58c5 2 9 1 9 -6v-83c0 -7 -1 -9 -8 -12z" />
    <glyph glyph-name="Oslash" unicode="&#xd8;" horiz-adv-x="807" 
d="M234 30l-19 -26c-2 -3 -5 -4 -9 -4h-88c-6 0 -6 5 -5 8l54 70c-59 58 -94 140 -95 250c0 194 134 338 335 338c67 0 117 -15 156 -37l15 21c3 4 4 5 9 5h88c8 0 8 -3 5 -8l-47 -67c62 -56 102 -146 102 -249c1 -203 -130 -341 -327 -341c-79 0 -129 16 -174 40zM546 461
l-226 -326c26 -16 55 -25 91 -24c108 0 173 84 173 217c0 60 -17 108 -38 133zM259 196l229 324c-18 13 -48 25 -88 25c-96 0 -175 -71 -175 -216c0 -54 10 -96 34 -133z" />
    <glyph glyph-name="OE" unicode="&#x152;" horiz-adv-x="1049" 
d="M526 115v421c-19 4 -49 6 -82 6c-127 0 -218 -73 -218 -213c0 -141 83 -218 220 -218c28 0 60 1 80 4zM964 0h-382c-22 -1 -45 -3 -70 -4c-24 -1 -50 -2 -79 -2c-224 0 -361 123 -361 332c0 210 153 334 369 334c54 0 100 -3 141 -5h372c5 0 7 0 9 -7l12 -103
c1 -6 -3 -8 -8 -8h-291v-143h267c5 0 7 -3 7 -7v-104c0 -6 -2 -7 -6 -7h-268v-158h309c5 0 7 -2 6 -8l-17 -102c-1 -8 -5 -8 -10 -8z" />
    <glyph glyph-name="ordmasculine" unicode="&#xba;" horiz-adv-x="479" 
d="M243 600c128 0 186 -75 186 -162c0 -107 -75 -166 -188 -166c-141 0 -192 81 -192 164c0 95 73 164 194 164zM241 521c-41 0 -70 -31 -70 -83c0 -49 26 -84 71 -84c40 0 71 27 71 83c0 46 -20 84 -72 84z" />
    <glyph glyph-name="ae" unicode="&#xe6;" horiz-adv-x="877" 
d="M41 153c0 112 115 152 245 152h62v14c0 18 -9 66 -106 66c-43 0 -92 -10 -140 -29c-7 -2 -9 1 -9 7v86c0 6 2 8 6 9c55 24 120 36 171 36c88 0 138 -31 159 -63c35 33 88 63 167 63c156 0 224 -114 224 -210c0 -46 -4 -71 -10 -73c-27 -6 -63 -6 -109 -6h-214v-5
c0 -46 47 -97 149 -97c53 0 100 8 146 25c4 2 7 1 7 -5v-85c0 -5 -1 -9 -6 -12c-51 -28 -121 -36 -180 -36c-82 0 -147 23 -181 53c-56 -36 -113 -53 -186 -53c-85 0 -195 38 -195 163zM188 152c0 -40 35 -63 82 -63c25 0 65 6 99 28c-13 24 -21 62 -23 97h-61
c-57 0 -97 -18 -97 -62zM590 400c-52 0 -97 -35 -104 -98l166 -1c18 0 25 2 27 7c1 4 1 7 1 14c0 31 -26 78 -90 78z" />
    <glyph glyph-name="dotlessi" unicode="&#x131;" horiz-adv-x="316" 
d="M83 10v470c0 6 2 9 9 9h132c7 0 9 -2 9 -9v-470c0 -7 -2 -10 -10 -10h-129c-8 0 -11 3 -11 10z" />
    <glyph glyph-name="lslash" unicode="&#x142;" horiz-adv-x="344" 
d="M243 386v-244c0 -29 13 -35 31 -35h18c7 0 7 -2 7 -9v-85c0 -8 0 -10 -6 -12c-13 -5 -40 -11 -74 -11c-78 0 -126 33 -126 136v191l-59 -27c-3 -2 -7 -1 -7 5v81c0 6 2 8 5 9l61 28v290c0 6 3 7 7 7h136c4 0 7 -2 7 -7v-222l73 34c4 2 7 0 7 -5v-66c0 -5 0 -20 -5 -23z
" />
    <glyph glyph-name="oslash" unicode="&#xf8;" horiz-adv-x="663" 
d="M227 172l166 205c-18 14 -38 20 -67 20c-64 0 -117 -51 -117 -150c0 -34 8 -61 18 -75zM193 21l-20 -23c-3 -5 -8 -6 -13 -6h-71c-6 0 -7 5 -4 10l48 57c-48 50 -72 110 -72 182c0 149 106 258 267 258c62 0 104 -13 137 -33l15 18c2 3 5 5 9 5h75c5 0 7 -4 3 -9l-45 -55
c49 -45 73 -109 73 -180c0 -159 -112 -255 -266 -255c-49 0 -98 9 -136 31zM431 316l-164 -204c16 -10 37 -19 65 -19c59 0 116 41 116 145c0 25 -4 54 -17 78z" />
    <glyph glyph-name="oe" unicode="&#x153;" horiz-adv-x="969" 
d="M61 241c0 155 110 258 263 258c89 0 146 -29 186 -86c45 61 111 86 181 86c161 0 221 -122 221 -218c0 -50 -7 -64 -12 -68c-10 -4 -34 -6 -106 -6h-211c-1 -49 44 -104 149 -104c51 0 96 8 141 25c7 3 8 -2 8 -7v-81c0 -10 0 -13 -7 -16c-46 -24 -105 -34 -169 -34
c-81 0 -155 21 -196 82c-53 -65 -121 -82 -186 -82c-181 0 -262 124 -262 251zM324 392c-64 0 -111 -52 -111 -144c0 -90 44 -146 115 -146c57 0 107 45 107 138c0 89 -34 152 -111 152zM582 306h154c23 0 34 -1 35 5c1 4 1 7 1 13c0 29 -26 76 -89 76
c-60 0 -94 -36 -101 -94z" />
    <glyph glyph-name="germandbls" unicode="&#xdf;" horiz-adv-x="676" 
d="M32 376c-4 0 -6 5 -6 10v94c0 8 3 9 7 9h60c5 133 104 230 264 230c185 0 239 -124 239 -200c0 -25 -2 -40 -6 -52c-89 -31 -120 -56 -120 -81c0 -18 7 -30 57 -63c90 -60 105 -103 105 -162c0 -98 -76 -171 -205 -171c-39 0 -101 5 -133 27c-7 3 -8 9 -8 19v98
c0 6 4 8 8 6c45 -26 92 -36 127 -36c39 0 66 16 66 45c0 23 -10 37 -64 71c-85 53 -104 91 -104 142c0 50 34 103 134 148v12c0 39 -31 86 -98 86c-72 0 -111 -46 -111 -141v-457c0 -6 -3 -10 -8 -10h-135c-6 0 -8 3 -8 9v364z" />
    <glyph glyph-name="logicalnot" unicode="&#xac;" horiz-adv-x="604" 
d="M55 414h493c4 0 7 -1 7 -7v-297c0 -5 -1 -7 -6 -7h-96c-5 0 -6 2 -6 7v200h-392c-4 0 -6 2 -6 8v89c0 6 3 7 6 7z" />
    <glyph glyph-name="mu" unicode="&#xb5;" horiz-adv-x="635" 
d="M545 482v-335c2 -37 15 -44 36 -44c5 0 18 1 24 3c4 0 5 -2 5 -7v-86c0 -6 0 -7 -4 -9c-18 -9 -47 -14 -74 -14c-54 0 -100 18 -114 80c0 1 -1 9 -1 10c-29 -69 -82 -90 -127 -90c-25 0 -51 7 -66 23c3 -39 4 -113 4 -208c0 -8 -3 -10 -9 -11c-39 -4 -121 -12 -127 -12
s-9 2 -9 10v689c0 7 2 8 9 8h134c6 0 7 -2 7 -8v-298c0 -42 20 -72 63 -72c45 0 99 36 99 159v213c0 5 2 6 7 6h137c4 0 6 -2 6 -7z" />
    <glyph glyph-name="trademark" unicode="&#x2122;" horiz-adv-x="362" 
d="M162 486l10 131c0 1 1 2 4 2h51c1 0 2 0 3 -2c12 -41 23 -73 25 -82v-1c2 9 11 43 25 83c1 2 2 2 3 2h49c3 0 4 -1 4 -2l6 -130c0 -2 0 -3 -3 -3h-37c-2 0 -2 1 -2 3c0 78 -1 92 -1 102h-1c-2 -11 -16 -66 -27 -99c0 -1 -1 -4 -3 -4h-32c-2 0 -3 2 -3 3
c-12 41 -25 92 -27 102h-1c1 -13 1 -27 -2 -105c-1 -2 -1 -2 -3 -2h-34c-3 0 -4 1 -4 2zM70 486v99h-40c-2 0 -2 2 -2 3l2 29c1 2 1 2 3 2h118c2 0 2 0 2 -1l3 -30c0 -1 0 -3 -2 -3h-42v-98c0 -2 -1 -2 -3 -3h-36c-2 0 -3 1 -3 2z" />
    <glyph glyph-name="Eth" unicode="&#xd0;" horiz-adv-x="768" 
d="M106 648c0 3 1 5 6 6c57 2 153 3 213 3c237 0 370 -120 370 -322c0 -286 -241 -338 -382 -338c-97 0 -128 1 -198 3c-6 0 -9 4 -9 11v273h-58c-6 0 -7 2 -7 7v90c0 6 1 7 6 7h59v260zM326 540c-31 0 -60 -1 -70 -1v-151h133c4 0 6 -1 6 -7v-90c0 -6 -1 -7 -7 -7h-132
v-168c10 0 21 -1 58 -1c135 0 226 65 226 217c0 142 -81 208 -214 208z" />
    <glyph glyph-name="onehalf" unicode="&#xbd;" horiz-adv-x="836" 
d="M122 267v265c-23 -8 -48 -13 -65 -17c-5 -1 -7 1 -7 5v65c0 3 3 5 5 5c25 7 70 22 96 33c1 0 6 2 10 2h72c3 -1 4 -3 4 -6v-353c0 -5 -1 -7 -6 -7h-102c-5 0 -7 2 -7 8zM241 -11h-87c-5 0 -6 3 -4 7l362 629c3 4 5 5 8 5h89c3 0 4 -3 2 -5l-360 -630c-3 -4 -4 -6 -10 -6z
M775 -13h-281c-5 0 -6 3 -6 6v52c0 4 2 6 3 7c56 36 174 100 174 163c0 29 -18 54 -67 54c-36 0 -65 -10 -96 -26c-7 -3 -10 -1 -10 4v69c0 5 1 8 7 11c32 18 72 30 127 31c100 0 147 -56 147 -124c0 -71 -54 -116 -118 -160h139c4 0 5 0 5 -5l-16 -76c-2 -4 -3 -6 -8 -6z
" />
    <glyph glyph-name="plusminus" unicode="&#xb1;" horiz-adv-x="604" 
d="M49 97c0 6 3 8 9 8h487c7 0 10 -1 10 -10v-84c0 -7 -3 -11 -10 -11h-484c-7 0 -12 2 -12 9v88zM256 644h93c6 0 8 -3 8 -9v-184h189c8 0 9 -2 9 -9v-87c0 -7 -3 -9 -8 -9h-190v-186c0 -6 -2 -9 -8 -9h-94c-6 0 -7 3 -7 8v187h-191c-5 0 -8 3 -8 8v89c0 6 2 8 7 8h192v185
c0 6 3 8 8 8z" />
    <glyph glyph-name="Thorn" unicode="&#xde;" horiz-adv-x="658" 
d="M96 8v640c0 5 0 7 7 7h133c8 0 10 -2 10 -8v-109c15 1 43 2 85 2c146 0 259 -63 259 -208c0 -157 -126 -216 -278 -216c-21 0 -55 1 -66 2v-109c0 -5 -2 -9 -8 -9h-135c-5 0 -7 3 -7 8zM246 423v-188c14 -2 41 -2 67 -2c89 0 129 37 129 96c0 58 -35 96 -128 96
c-33 0 -56 -1 -68 -2z" />
    <glyph glyph-name="onequarter" unicode="&#xbc;" horiz-adv-x="826" 
d="M446 89v44c0 4 1 7 4 10c32 37 137 176 170 216c4 5 7 6 13 6h75c5 0 7 -2 7 -7v-208h60c3 0 5 -2 4 -5l-9 -56c-1 -4 -2 -6 -6 -6h-49v-77c0 -4 -1 -7 -7 -7h-91c-3 0 -6 2 -6 7v77l-159 1c-4 0 -6 2 -6 5zM530 150h81c0 77 2 93 3 114h-2c-18 -28 -67 -95 -82 -114z
M135 267v265c-23 -8 -48 -13 -65 -17c-5 -1 -7 1 -7 5v65c0 3 3 5 5 5c25 7 70 22 96 33c1 0 6 2 10 2h72c3 -1 4 -3 4 -6v-353c0 -5 -1 -7 -6 -7h-102c-5 0 -7 2 -7 8zM260 -11h-87c-5 0 -6 3 -4 7l362 629c3 4 5 5 8 5h89c3 0 4 -3 2 -5l-360 -630c-3 -4 -4 -6 -10 -6z
" />
    <glyph glyph-name="divide" unicode="&#xf7;" horiz-adv-x="604" 
d="M302 372h-1c-40 0 -67 28 -66 69c0 41 27 68 67 68c41 0 68 -27 68 -68s-26 -69 -68 -69zM302 14h-1c-40 0 -67 28 -66 68c0 42 27 70 67 70c41 0 68 -28 68 -70c0 -40 -26 -68 -68 -68zM49 305c0 8 3 9 8 9h490c6 0 8 -1 8 -9v-86c0 -7 -2 -9 -8 -9h-489
c-6 0 -9 2 -9 10v85z" />
    <glyph glyph-name="brokenbar" unicode="&#xa6;" horiz-adv-x="298" 
d="M212 392h-126v392h126v-392zM212 196v-392h-126v392h126z" />
    <glyph glyph-name="degree" unicode="&#xb0;" horiz-adv-x="338" 
d="M173 630h1c78 0 131 -58 131 -133s-51 -135 -132 -135s-134 60 -134 135c-1 73 53 133 134 133zM173 560c-34 0 -60 -27 -60 -63c0 -37 26 -64 60 -64s59 27 59 64c0 36 -26 63 -59 63z" />
    <glyph glyph-name="thorn" unicode="&#xfe;" horiz-adv-x="634" 
d="M331 494c162 0 242 -124 242 -246c0 -160 -116 -254 -271 -258c-15 0 -52 4 -68 9l-1 -199c0 -7 -3 -9 -8 -10c-43 -5 -126 -12 -132 -12s-10 1 -10 10v914c0 6 3 8 8 8h132c7 0 10 -1 10 -9v-223c16 7 52 16 98 16zM293 381c-25 0 -42 -5 -60 -14v-259
c14 -7 40 -10 61 -10c52 0 124 28 124 144c0 99 -58 139 -125 139z" />
    <glyph glyph-name="threequarters" unicode="&#xbe;" horiz-adv-x="869" 
d="M126 411v60c0 5 0 6 5 6h42c45 0 56 18 56 34c0 20 -19 37 -64 37c-31 0 -64 -7 -96 -24c-5 -2 -7 0 -7 3v66c0 5 1 6 4 7c36 19 77 30 124 30c92 0 140 -43 140 -96c0 -37 -22 -64 -64 -79v-1c46 -12 83 -37 83 -87c0 -81 -74 -114 -166 -114c-46 0 -87 9 -120 26
c-5 2 -5 7 -5 10v70c0 4 3 5 6 4c40 -21 79 -29 115 -29c46 0 64 17 64 36c0 25 -21 36 -74 36h-38c-3 0 -5 1 -5 5zM310 -11h-87c-5 0 -6 3 -4 7l362 629c3 4 5 5 8 5h89c3 0 4 -3 2 -5l-360 -630c-3 -4 -4 -6 -10 -6zM493 89v44c0 4 1 7 4 10c32 37 137 176 170 216
c4 5 7 6 13 6h75c5 0 7 -2 7 -7v-208h60c3 0 5 -2 4 -5l-9 -56c-1 -4 -2 -6 -6 -6h-49v-77c0 -4 -1 -7 -7 -7h-91c-3 0 -6 2 -6 7v77l-159 1c-4 0 -6 2 -6 5zM577 150h81c0 77 2 93 3 114h-2c-18 -28 -67 -95 -82 -114z" />
    <glyph glyph-name="registered" unicode="&#xae;" horiz-adv-x="250" 
d="M142 439c-65 0 -108 47 -108 105s44 105 108 105c61 0 106 -47 106 -105c0 -60 -46 -105 -106 -105zM142 462c46 0 78 33 78 81c0 47 -33 82 -80 82c-48 0 -77 -34 -77 -82c0 -45 32 -81 79 -81zM128 531v-32c0 -2 -1 -3 -2 -3h-24c-2 0 -3 1 -3 3v94c0 2 1 3 3 3h39
c31 0 45 -11 45 -31c0 -13 -7 -22 -22 -28c5 -7 22 -27 29 -38c1 -2 0 -3 -2 -3h-28c-2 0 -4 1 -5 3c-5 6 -12 17 -19 29c-1 2 -2 3 -4 3h-7zM128 573v-22h12c13 0 16 5 16 11c0 8 -6 11 -17 11h-11z" />
    <glyph glyph-name="minus" unicode="&#x2212;" horiz-adv-x="604" 
d="M49 305c0 6 2 9 10 9h487c7 0 9 -1 9 -7v-88c0 -8 -3 -9 -10 -9h-485c-7 0 -11 2 -11 10v85z" />
    <glyph glyph-name="eth" unicode="&#xf0;" horiz-adv-x="652" 
d="M333 350c-56 0 -120 -30 -120 -121c0 -76 52 -121 115 -121c61 0 107 43 107 149c0 19 -4 38 -8 49c-2 4 -6 8 -9 12c-17 17 -46 32 -85 32zM514 637l-67 -36c89 -74 140 -178 140 -319c0 -197 -118 -292 -273 -292c-173 0 -253 110 -253 239c0 140 108 235 261 235
c30 0 53 -4 71 -15c-12 29 -36 59 -77 84l-147 -75c-4 -1 -8 1 -8 5v57c0 5 2 7 6 9l80 40c-25 11 -67 23 -121 30c-5 1 -8 4 -8 11l-1 100c0 8 3 10 8 10c7 0 26 -1 34 -2c90 -12 160 -32 232 -74l123 66c4 2 6 0 6 -3v-60c0 -6 -1 -8 -6 -10z" />
    <glyph glyph-name="multiply" unicode="&#xd7;" horiz-adv-x="604" 
d="M57 451l56 58c4 2 9 4 14 0l176 -184l176 184c4 3 8 5 13 1l56 -60c4 -5 4 -8 0 -12l-178 -181l180 -182c1 -1 4 -6 -1 -11l-58 -58c-5 -4 -9 -3 -13 2l-176 181l-176 -183c-2 -1 -4 -7 -10 -1l-60 61c-5 4 -3 7 1 12l177 179l-178 182c-1 1 -5 6 1 12z" />
    <glyph glyph-name="copyright" unicode="&#xa9;" horiz-adv-x="803" 
d="M65 329c0 191 148 332 337 332s336 -142 336 -332c0 -195 -148 -335 -336 -335c-189 0 -337 142 -337 335zM139 329c0 -156 116 -268 263 -268c162 0 263 113 263 268c0 157 -118 266 -263 266c-159 0 -263 -113 -263 -266zM531 251v-68c1 -5 -2 -6 -6 -9
c-26 -17 -68 -22 -102 -22c-116 0 -189 78 -189 175c0 106 83 182 197 182c45 0 73 -7 91 -15c6 -3 6 -7 6 -12l-1 -67c0 -5 -3 -7 -8 -6c-20 8 -47 14 -75 14c-60 0 -99 -39 -99 -92c0 -63 49 -94 97 -94c34 0 62 6 83 18c4 2 6 -1 6 -4z" />
    <glyph glyph-name="Aacute" unicode="&#xc1;" horiz-adv-x="742" 
d="M479 161h-231l-53 -152c-2 -6 -6 -9 -13 -9h-128c-8 0 -10 4 -8 11c57 156 146 398 213 572c4 9 8 21 11 63c0 6 3 8 7 8l170 1c4 0 6 -1 8 -5c79 -214 160 -427 240 -640c3 -6 1 -10 -6 -10h-141c-6 0 -8 2 -11 7zM280 280h166c-21 66 -63 178 -84 251h-1
c-16 -68 -55 -173 -81 -251zM280 708l106 122c4 5 7 5 14 5h147c6 0 7 -5 4 -9l-127 -119c-6 -5 -11 -8 -17 -8h-122c-5 0 -8 5 -5 9z" />
    <glyph glyph-name="Acircumflex" unicode="&#xc2;" horiz-adv-x="742" 
d="M479 161h-231l-53 -152c-2 -6 -6 -9 -13 -9h-128c-8 0 -10 4 -8 11c57 156 146 398 213 572c4 9 8 21 11 63c0 6 3 8 7 8l170 1c4 0 6 -1 8 -5c79 -214 160 -427 240 -640c3 -6 1 -10 -6 -10h-141c-6 0 -8 2 -11 7zM280 280h166c-21 66 -63 178 -84 251h-1
c-16 -68 -55 -173 -81 -251zM420 702l-58 60l-58 -59c-4 -5 -7 -7 -11 -7h-110c-5 0 -7 6 -3 9l119 123c4 2 6 4 12 4h109c6 0 10 -2 13 -5l123 -124c3 -3 1 -7 -4 -7h-118c-7 0 -10 3 -14 6z" />
    <glyph glyph-name="Adieresis" unicode="&#xc4;" horiz-adv-x="742" 
d="M479 161h-231l-53 -152c-2 -6 -6 -9 -13 -9h-128c-8 0 -10 4 -8 11c57 156 146 398 213 572c4 9 8 21 11 63c0 6 3 8 7 8l170 1c4 0 6 -1 8 -5c79 -214 160 -427 240 -640c3 -6 1 -10 -6 -10h-141c-6 0 -8 2 -11 7zM280 280h166c-21 66 -63 178 -84 251h-1
c-16 -68 -55 -173 -81 -251zM250 701c-47 0 -77 27 -77 69c0 41 32 71 80 71c46 0 76 -30 76 -71c0 -42 -32 -69 -79 -69zM474 701c-46 0 -77 26 -77 69c0 41 34 71 79 71c46 0 77 -30 77 -71c0 -43 -32 -69 -79 -69z" />
    <glyph glyph-name="Agrave" unicode="&#xc0;" horiz-adv-x="742" 
d="M479 161h-231l-53 -152c-2 -6 -6 -9 -13 -9h-128c-8 0 -10 4 -8 11c57 156 146 398 213 572c4 9 8 21 11 63c0 6 3 8 7 8l170 1c4 0 6 -1 8 -5c79 -214 160 -427 240 -640c3 -6 1 -10 -6 -10h-141c-6 0 -8 2 -11 7zM280 280h166c-21 66 -63 178 -84 251h-1
c-16 -68 -55 -173 -81 -251zM336 827l104 -120c5 -7 2 -10 -5 -10h-121c-6 0 -11 1 -15 6l-133 120c-3 5 -1 10 5 10h151c6 0 11 -1 14 -6z" />
    <glyph glyph-name="Aring" unicode="&#xc5;" horiz-adv-x="742" 
d="M479 161h-231l-53 -152c-2 -6 -6 -9 -13 -9h-128c-8 0 -10 4 -8 11c57 156 146 398 213 572c4 9 8 21 11 63c0 6 3 8 7 8l170 1c4 0 6 -1 8 -5c79 -214 160 -427 240 -640c3 -6 1 -10 -6 -10h-141c-6 0 -8 2 -11 7zM280 280h166c-21 66 -63 178 -84 251h-1
c-16 -68 -55 -173 -81 -251zM247 770c0 62 52 95 116 95c66 0 117 -36 117 -95c0 -63 -51 -98 -117 -98s-116 33 -116 98zM323 770c0 -23 17 -37 40 -37c24 0 40 14 40 37c0 22 -16 37 -40 37c-23 0 -40 -15 -40 -37z" />
    <glyph glyph-name="Atilde" unicode="&#xc3;" horiz-adv-x="742" 
d="M479 161h-231l-53 -152c-2 -6 -6 -9 -13 -9h-128c-8 0 -10 4 -8 11c57 156 146 398 213 572c4 9 8 21 11 63c0 6 3 8 7 8l170 1c4 0 6 -1 8 -5c79 -214 160 -427 240 -640c3 -6 1 -10 -6 -10h-141c-6 0 -8 2 -11 7zM280 280h166c-21 66 -63 178 -84 251h-1
c-16 -68 -55 -173 -81 -251zM273 704h-83c-6 0 -9 2 -9 7c1 98 53 140 113 140c66 0 102 -49 136 -49c16 0 25 17 26 39c0 5 1 8 7 8h81c6 0 8 -2 8 -8c-3 -107 -50 -139 -108 -139c-64 0 -100 47 -136 47c-13 0 -26 -12 -29 -39c0 -2 -1 -6 -6 -6z" />
    <glyph glyph-name="Ccedilla" unicode="&#xc7;" horiz-adv-x="672" 
d="M455 -10l-22 -29c59 -17 90 -44 90 -100s-53 -103 -133 -103c-28 0 -62 6 -78 14c-6 3 -7 6 -7 13v54c0 7 2 9 8 7c19 -7 48 -13 67 -13c24 0 40 7 40 26s-30 35 -97 44c-3 4 -4 26 0 31l49 59c-166 19 -300 126 -300 333c0 192 149 340 378 340c68 0 122 -10 150 -23
c6 -2 7 -5 7 -12v-111c0 -9 -5 -9 -10 -7c-35 14 -88 25 -140 25c-135 0 -230 -71 -230 -207c0 -161 122 -207 227 -207c59 0 114 12 150 25c5 2 8 0 8 -6v-110c0 -7 -1 -12 -8 -15c-32 -16 -88 -26 -149 -28z" />
    <glyph glyph-name="Eacute" unicode="&#xc9;" horiz-adv-x="619" 
d="M561 109l-17 -100c-1 -8 -4 -9 -10 -9h-429c-7 0 -9 3 -9 9v637c0 7 2 9 9 9h417c8 0 9 -1 11 -8l13 -100c1 -5 -1 -10 -8 -10h-292v-143h267c5 0 8 -2 8 -8v-103c0 -6 -4 -7 -8 -7h-267v-158h308c7 0 8 -3 7 -9zM237 710l106 122c4 5 7 5 14 5h147c6 0 7 -5 4 -9
l-127 -119c-6 -5 -11 -8 -17 -8h-122c-5 0 -8 5 -5 9z" />
    <glyph glyph-name="Ecircumflex" unicode="&#xca;" horiz-adv-x="619" 
d="M561 109l-17 -100c-1 -8 -4 -9 -10 -9h-429c-7 0 -9 3 -9 9v637c0 7 2 9 9 9h417c8 0 9 -1 11 -8l13 -100c1 -5 -1 -10 -8 -10h-292v-143h267c5 0 8 -2 8 -8v-103c0 -6 -4 -7 -8 -7h-267v-158h308c7 0 8 -3 7 -9zM367 708l-58 60l-58 -59c-4 -5 -7 -7 -11 -7h-110
c-5 0 -7 6 -3 9l119 123c4 2 6 4 12 4h109c6 0 10 -2 13 -5l123 -124c3 -3 1 -7 -4 -7h-118c-7 0 -10 3 -14 6z" />
    <glyph glyph-name="Edieresis" unicode="&#xcb;" horiz-adv-x="619" 
d="M561 109l-17 -100c-1 -8 -4 -9 -10 -9h-429c-7 0 -9 3 -9 9v637c0 7 2 9 9 9h417c8 0 9 -1 11 -8l13 -100c1 -5 -1 -10 -8 -10h-292v-143h267c5 0 8 -2 8 -8v-103c0 -6 -4 -7 -8 -7h-267v-158h308c7 0 8 -3 7 -9zM201 707c-47 0 -77 27 -77 69c0 41 32 71 80 71
c46 0 76 -30 76 -71c0 -42 -32 -69 -79 -69zM425 707c-46 0 -77 26 -77 69c0 41 34 71 79 71c46 0 77 -30 77 -71c0 -43 -32 -69 -79 -69z" />
    <glyph glyph-name="Egrave" unicode="&#xc8;" horiz-adv-x="619" 
d="M561 109l-17 -100c-1 -8 -4 -9 -10 -9h-429c-7 0 -9 3 -9 9v637c0 7 2 9 9 9h417c8 0 9 -1 11 -8l13 -100c1 -5 -1 -10 -8 -10h-292v-143h267c5 0 8 -2 8 -8v-103c0 -6 -4 -7 -8 -7h-267v-158h308c7 0 8 -3 7 -9zM298 835l104 -120c5 -7 2 -10 -5 -10h-121
c-6 0 -11 1 -15 6l-133 120c-3 5 -1 10 5 10h151c6 0 11 -1 14 -6z" />
    <glyph glyph-name="Iacute" unicode="&#xcd;" horiz-adv-x="342" 
d="M246 646v-636c0 -7 -2 -10 -9 -10h-131c-8 0 -10 3 -10 10v636c0 8 3 9 9 9h133c6 0 8 -2 8 -9zM92 708l106 122c4 5 7 5 14 5h147c6 0 7 -5 4 -9l-127 -119c-6 -5 -11 -8 -17 -8h-122c-5 0 -8 5 -5 9z" />
    <glyph glyph-name="Icircumflex" unicode="&#xce;" horiz-adv-x="342" 
d="M246 646v-636c0 -7 -2 -10 -9 -10h-131c-8 0 -10 3 -10 10v636c0 8 3 9 9 9h133c6 0 8 -2 8 -9zM224 705l-58 60l-58 -59c-4 -5 -7 -7 -11 -7h-110c-5 0 -7 6 -3 9l119 123c4 2 6 4 12 4h109c6 0 10 -2 13 -5l123 -124c3 -3 1 -7 -4 -7h-118c-7 0 -10 3 -14 6z" />
    <glyph glyph-name="Idieresis" unicode="&#xcf;" horiz-adv-x="342" 
d="M246 646v-636c0 -7 -2 -10 -9 -10h-131c-8 0 -10 3 -10 10v636c0 8 3 9 9 9h133c6 0 8 -2 8 -9zM58 706c-47 0 -77 27 -77 69c0 41 32 71 80 71c46 0 76 -30 76 -71c0 -42 -32 -69 -79 -69zM282 706c-46 0 -77 26 -77 69c0 41 34 71 79 71c46 0 77 -30 77 -71
c0 -43 -32 -69 -79 -69z" />
    <glyph glyph-name="Igrave" unicode="&#xcc;" horiz-adv-x="342" 
d="M246 646v-636c0 -7 -2 -10 -9 -10h-131c-8 0 -10 3 -10 10v636c0 8 3 9 9 9h133c6 0 8 -2 8 -9zM146 837l104 -120c5 -7 2 -10 -5 -10h-121c-6 0 -11 1 -15 6l-133 120c-3 5 -1 10 5 10h151c6 0 11 -1 14 -6z" />
    <glyph glyph-name="Ntilde" unicode="&#xd1;" horiz-adv-x="768" 
d="M96 647c0 6 3 8 9 8h166c9 0 10 -2 14 -8c71 -130 224 -410 247 -460h2c-1 28 -3 87 -3 171v288c0 7 2 9 10 9h120c8 0 11 -3 11 -10v-635c0 -8 -3 -10 -12 -10h-162c-9 0 -11 3 -15 8c-63 136 -202 380 -250 491h-1c5 -62 4 -107 5 -204v-285c0 -7 -2 -10 -8 -10h-122
c-8 0 -11 1 -11 10v637zM297 712h-83c-6 0 -9 2 -9 7c1 98 53 140 113 140c66 0 102 -49 136 -49c16 0 25 17 26 39c0 5 1 8 7 8h81c6 0 8 -2 8 -8c-3 -107 -50 -139 -108 -139c-64 0 -100 47 -136 47c-13 0 -26 -12 -29 -39c0 -2 -1 -6 -6 -6z" />
    <glyph glyph-name="Oacute" unicode="&#xd3;" horiz-adv-x="808" 
d="M405 666c206 0 330 -155 330 -335c1 -210 -135 -341 -332 -341c-207 0 -331 138 -331 338c0 195 132 338 333 338zM227 327c0 -129 69 -214 182 -214c106 0 172 81 172 214c0 130 -67 217 -178 217c-105 0 -176 -82 -176 -217zM317 717l106 122c4 5 7 5 14 5h147
c6 0 7 -5 4 -9l-127 -119c-6 -5 -11 -8 -17 -8h-122c-5 0 -8 5 -5 9z" />
    <glyph glyph-name="Ocircumflex" unicode="&#xd4;" horiz-adv-x="808" 
d="M405 666c206 0 330 -155 330 -335c1 -210 -135 -341 -332 -341c-207 0 -331 138 -331 338c0 195 132 338 333 338zM227 327c0 -129 69 -214 182 -214c106 0 172 81 172 214c0 130 -67 217 -178 217c-105 0 -176 -82 -176 -217zM457 712l-58 60l-58 -59
c-4 -5 -7 -7 -11 -7h-110c-5 0 -7 6 -3 9l119 123c4 2 6 4 12 4h109c6 0 10 -2 13 -5l123 -124c3 -3 1 -7 -4 -7h-118c-7 0 -10 3 -14 6z" />
    <glyph glyph-name="Odieresis" unicode="&#xd6;" horiz-adv-x="808" 
d="M405 666c206 0 330 -155 330 -335c1 -210 -135 -341 -332 -341c-207 0 -331 138 -331 338c0 195 132 338 333 338zM227 327c0 -129 69 -214 182 -214c106 0 172 81 172 214c0 130 -67 217 -178 217c-105 0 -176 -82 -176 -217zM291 709c-47 0 -77 27 -77 69
c0 41 32 71 80 71c46 0 76 -30 76 -71c0 -42 -32 -69 -79 -69zM515 709c-46 0 -77 26 -77 69c0 41 34 71 79 71c46 0 77 -30 77 -71c0 -43 -32 -69 -79 -69z" />
    <glyph glyph-name="Ograve" unicode="&#xd2;" horiz-adv-x="808" 
d="M405 666c206 0 330 -155 330 -335c1 -210 -135 -341 -332 -341c-207 0 -331 138 -331 338c0 195 132 338 333 338zM227 327c0 -129 69 -214 182 -214c106 0 172 81 172 214c0 130 -67 217 -178 217c-105 0 -176 -82 -176 -217zM380 840l104 -120c5 -7 2 -10 -5 -10h-121
c-6 0 -11 1 -15 6l-133 120c-3 5 -1 10 5 10h151c6 0 11 -1 14 -6z" />
    <glyph glyph-name="Otilde" unicode="&#xd5;" horiz-adv-x="808" 
d="M405 666c206 0 330 -155 330 -335c1 -210 -135 -341 -332 -341c-207 0 -331 138 -331 338c0 195 132 338 333 338zM227 327c0 -129 69 -214 182 -214c106 0 172 81 172 214c0 130 -67 217 -178 217c-105 0 -176 -82 -176 -217zM311 710h-83c-6 0 -9 2 -9 7
c1 98 53 140 113 140c66 0 102 -49 136 -49c16 0 25 17 26 39c0 5 1 8 7 8h81c6 0 8 -2 8 -8c-3 -107 -50 -139 -108 -139c-64 0 -100 47 -136 47c-13 0 -26 -12 -29 -39c0 -2 -1 -6 -6 -6z" />
    <glyph glyph-name="Scaron" unicode="&#x160;" horiz-adv-x="586" 
d="M274 -10c-78 0 -160 17 -211 51c-6 5 -8 8 -8 17l-1 116c0 6 5 8 9 5c57 -38 140 -65 217 -65c71 0 95 27 95 56c0 34 -17 51 -120 92c-146 56 -198 107 -198 211c0 94 76 193 249 193c75 0 139 -17 177 -38c5 -2 7 -6 7 -13v-112c0 -4 -4 -9 -10 -5
c-47 28 -117 48 -178 48c-81 0 -95 -36 -95 -59c0 -29 16 -50 117 -89c167 -64 203 -123 203 -213c0 -125 -102 -195 -253 -195zM241 836l58 -60l58 60c4 4 7 6 11 6h110c5 0 7 -6 3 -9l-119 -122c-4 -3 -6 -5 -12 -5h-109c-6 0 -10 2 -13 6l-123 123c-3 4 -1 7 4 7h118
c7 0 10 -3 14 -6z" />
    <glyph glyph-name="Uacute" unicode="&#xda;" horiz-adv-x="761" 
d="M246 646v-396c0 -82 41 -138 137 -138c68 0 132 32 132 141v392c0 8 2 10 9 10h131c7 0 10 -2 10 -10v-390c0 -191 -127 -265 -285 -265c-169 0 -284 84 -284 260v395c0 7 2 10 10 10h132c6 0 8 -2 8 -9zM303 705l106 122c4 5 7 5 14 5h147c6 0 7 -5 4 -9l-127 -119
c-6 -5 -11 -8 -17 -8h-122c-5 0 -8 5 -5 9z" />
    <glyph glyph-name="Ucircumflex" unicode="&#xdb;" horiz-adv-x="761" 
d="M246 646v-396c0 -82 41 -138 137 -138c68 0 132 32 132 141v392c0 8 2 10 9 10h131c7 0 10 -2 10 -10v-390c0 -191 -127 -265 -285 -265c-169 0 -284 84 -284 260v395c0 7 2 10 10 10h132c6 0 8 -2 8 -9zM437 705l-58 60l-58 -59c-4 -5 -7 -7 -11 -7h-110c-5 0 -7 6 -3 9
l119 123c4 2 6 4 12 4h109c6 0 10 -2 13 -5l123 -124c3 -3 1 -7 -4 -7h-118c-7 0 -10 3 -14 6z" />
    <glyph glyph-name="Udieresis" unicode="&#xdc;" horiz-adv-x="761" 
d="M246 646v-396c0 -82 41 -138 137 -138c68 0 132 32 132 141v392c0 8 2 10 9 10h131c7 0 10 -2 10 -10v-390c0 -191 -127 -265 -285 -265c-169 0 -284 84 -284 260v395c0 7 2 10 10 10h132c6 0 8 -2 8 -9zM267 706c-47 0 -77 27 -77 69c0 41 32 71 80 71
c46 0 76 -30 76 -71c0 -42 -32 -69 -79 -69zM491 706c-46 0 -77 26 -77 69c0 41 34 71 79 71c46 0 77 -30 77 -71c0 -43 -32 -69 -79 -69z" />
    <glyph glyph-name="Ugrave" unicode="&#xd9;" horiz-adv-x="761" 
d="M246 646v-396c0 -82 41 -138 137 -138c68 0 132 32 132 141v392c0 8 2 10 9 10h131c7 0 10 -2 10 -10v-390c0 -191 -127 -265 -285 -265c-169 0 -284 84 -284 260v395c0 7 2 10 10 10h132c6 0 8 -2 8 -9zM366 829l104 -120c5 -7 2 -10 -5 -10h-121c-6 0 -11 1 -15 6
l-133 120c-3 5 -1 10 5 10h151c6 0 11 -1 14 -6z" />
    <glyph glyph-name="Yacute" unicode="&#xdd;" horiz-adv-x="675" 
d="M254 259l-222 385c-5 8 2 11 7 11h152c7 0 8 -2 11 -6c100 -203 129 -262 143 -294l137 295c2 4 4 5 10 5h146c6 0 8 -3 5 -9l-223 -389c-7 -11 -9 -19 -9 -34v-213c0 -7 -2 -10 -10 -10h-129c-9 0 -11 3 -11 10v219c0 16 -1 20 -7 30zM260 708l106 122c4 5 7 5 14 5h147
c6 0 7 -5 4 -9l-127 -119c-6 -5 -11 -8 -17 -8h-122c-5 0 -8 5 -5 9z" />
    <glyph glyph-name="Ydieresis" unicode="&#x178;" horiz-adv-x="675" 
d="M254 259l-222 385c-5 8 2 11 7 11h152c7 0 8 -2 11 -6c100 -203 129 -262 143 -294l137 295c2 4 4 5 10 5h146c6 0 8 -3 5 -9l-223 -389c-7 -11 -9 -19 -9 -34v-213c0 -7 -2 -10 -10 -10h-129c-9 0 -11 3 -11 10v219c0 16 -1 20 -7 30zM224 703c-47 0 -77 27 -77 69
c0 41 32 71 80 71c46 0 76 -30 76 -71c0 -42 -32 -69 -79 -69zM448 703c-46 0 -77 26 -77 69c0 41 34 71 79 71c46 0 77 -30 77 -71c0 -43 -32 -69 -79 -69z" />
    <glyph glyph-name="Zcaron" unicode="&#x17d;" horiz-adv-x="634" 
d="M577 0h-527c-6 0 -10 0 -10 9v69c0 6 1 8 3 13l341 446h-333c-7 0 -10 1 -9 8l18 101c1 8 4 9 10 9h497c6 0 7 -2 7 -7v-76c0 -5 -1 -10 -5 -15l-330 -439h361c6 0 8 -4 6 -11l-20 -98c-1 -6 -2 -9 -9 -9zM264 839l58 -60l58 60c4 4 7 6 11 6h110c5 0 7 -6 3 -9
l-119 -122c-4 -3 -6 -5 -12 -5h-109c-6 0 -10 2 -13 6l-123 123c-3 4 -1 7 4 7h118c7 0 10 -3 14 -6z" />
    <glyph glyph-name="aacute" unicode="&#xe1;" horiz-adv-x="580" 
d="M196 161c0 -34 34 -57 103 -57c16 0 40 2 54 7v110c-120 -4 -157 -22 -157 -60zM497 38c-80 -34 -148 -48 -223 -48c-114 0 -225 44 -225 165c0 116 99 154 304 164v4c0 14 -10 54 -98 54c-50 0 -102 -13 -144 -31c-5 -2 -9 0 -9 6v98c0 5 1 9 7 11c50 24 118 38 175 38
c146 0 214 -86 214 -202l-1 -181c0 -25 1 -48 3 -74c0 -2 0 -3 -3 -4zM221 548l77 144c3 7 8 10 13 10h143c8 0 10 -3 6 -10l-104 -146c-4 -5 -11 -6 -17 -6h-114c-5 0 -6 3 -4 8z" />
    <glyph glyph-name="acircumflex" unicode="&#xe2;" horiz-adv-x="580" 
d="M196 161c0 -34 34 -57 103 -57c16 0 40 2 54 7v110c-120 -4 -157 -22 -157 -60zM497 38c-80 -34 -148 -48 -223 -48c-114 0 -225 44 -225 165c0 116 99 154 304 164v4c0 14 -10 54 -98 54c-50 0 -102 -13 -144 -31c-5 -2 -9 0 -9 6v98c0 5 1 9 7 11c50 24 118 38 175 38
c146 0 214 -86 214 -202l-1 -181c0 -25 1 -48 3 -74c0 -2 0 -3 -3 -4zM286 628c-14 -22 -46 -70 -60 -89c-3 -2 -4 -4 -10 -4h-93c-6 0 -7 6 -4 10l106 148c3 3 5 5 10 5h109c6 0 8 -1 10 -5l109 -149c3 -4 0 -9 -5 -9h-101c-6 0 -8 2 -11 5z" />
    <glyph glyph-name="adieresis" unicode="&#xe4;" horiz-adv-x="580" 
d="M196 161c0 -34 34 -57 103 -57c16 0 40 2 54 7v110c-120 -4 -157 -22 -157 -60zM497 38c-80 -34 -148 -48 -223 -48c-114 0 -225 44 -225 165c0 116 99 154 304 164v4c0 14 -10 54 -98 54c-50 0 -102 -13 -144 -31c-5 -2 -9 0 -9 6v98c0 5 1 9 7 11c50 24 118 38 175 38
c146 0 214 -86 214 -202l-1 -181c0 -25 1 -48 3 -74c0 -2 0 -3 -3 -4zM187 540c-43 0 -73 29 -73 73c0 43 32 74 74 74s71 -31 71 -74c0 -44 -30 -73 -72 -73zM394 540c-42 0 -72 29 -72 73c0 43 32 74 73 74c44 0 71 -31 71 -74c0 -44 -29 -73 -72 -73z" />
    <glyph glyph-name="agrave" unicode="&#xe0;" horiz-adv-x="580" 
d="M196 161c0 -34 34 -57 103 -57c16 0 40 2 54 7v110c-120 -4 -157 -22 -157 -60zM497 38c-80 -34 -148 -48 -223 -48c-114 0 -225 44 -225 165c0 116 99 154 304 164v4c0 14 -10 54 -98 54c-50 0 -102 -13 -144 -31c-5 -2 -9 0 -9 6v98c0 5 1 9 7 11c50 24 118 38 175 38
c146 0 214 -86 214 -202l-1 -181c0 -25 1 -48 3 -74c0 -2 0 -3 -3 -4zM292 696l87 -147c2 -4 1 -9 -5 -9h-117c-5 0 -8 3 -11 6l-115 146c-4 5 -2 10 4 10h145c5 0 9 -1 12 -6z" />
    <glyph glyph-name="aring" unicode="&#xe5;" horiz-adv-x="580" 
d="M196 161c0 -34 34 -57 103 -57c16 0 40 2 54 7v110c-120 -4 -157 -22 -157 -60zM497 38c-80 -34 -148 -48 -223 -48c-114 0 -225 44 -225 165c0 116 99 154 304 164v4c0 14 -10 54 -98 54c-50 0 -102 -13 -144 -31c-5 -2 -9 0 -9 6v98c0 5 1 9 7 11c50 24 118 38 175 38
c146 0 214 -86 214 -202l-1 -181c0 -25 1 -48 3 -74c0 -2 0 -3 -3 -4zM174 630c0 58 45 101 116 101s118 -42 118 -101c0 -62 -46 -103 -118 -103s-116 39 -116 103zM248 630c0 -25 18 -41 42 -41s43 16 43 41c0 24 -19 40 -43 40s-42 -16 -42 -40z" />
    <glyph glyph-name="atilde" unicode="&#xe3;" horiz-adv-x="580" 
d="M196 161c0 -34 34 -57 103 -57c16 0 40 2 54 7v110c-120 -4 -157 -22 -157 -60zM497 38c-80 -34 -148 -48 -223 -48c-114 0 -225 44 -225 165c0 116 99 154 304 164v4c0 14 -10 54 -98 54c-50 0 -102 -13 -144 -31c-5 -2 -9 0 -9 6v98c0 5 1 9 7 11c50 24 118 38 175 38
c146 0 214 -86 214 -202l-1 -181c0 -25 1 -48 3 -74c0 -2 0 -3 -3 -4zM193 550h-82c-6 0 -8 3 -8 7c-1 104 53 148 113 148c65 0 112 -50 141 -50c20 0 27 18 28 42c0 5 2 6 7 6h81c5 0 7 -1 7 -6c1 -112 -49 -149 -109 -149s-102 47 -141 47c-16 0 -30 -10 -32 -39
c0 -2 -2 -6 -5 -6z" />
    <glyph glyph-name="ccedilla" unicode="&#xe7;" horiz-adv-x="510" 
d="M350 -9l-22 -30c56 -19 88 -47 88 -100c0 -61 -53 -103 -133 -103c-35 0 -64 5 -79 13c-4 3 -4 6 -4 10v59c0 5 2 7 6 6c19 -8 51 -13 68 -13c23 0 40 7 40 26c0 20 -30 35 -96 44c-4 4 -3 26 -1 31l50 60c-137 18 -206 124 -206 249c0 159 126 256 281 256
c59 0 84 -8 105 -17c5 -2 6 -4 6 -11l-1 -103c0 -7 -2 -10 -10 -8c-20 8 -53 16 -89 16c-78 0 -137 -44 -137 -133c0 -88 63 -126 136 -126c30 0 60 5 91 16c6 1 8 -2 8 -6v-103c1 -8 -3 -12 -8 -14c-25 -11 -49 -16 -93 -19z" />
    <glyph glyph-name="eacute" unicode="&#xe9;" horiz-adv-x="593" 
d="M315 499c156 0 222 -113 222 -214c0 -50 -6 -74 -10 -77c-11 -5 -45 -6 -106 -6h-207c5 -46 47 -86 144 -86c38 0 87 7 132 25c3 1 7 1 7 -5v-105c0 -8 -2 -10 -7 -13c-43 -20 -95 -28 -165 -28c-195 0 -264 126 -264 253c0 139 88 256 254 256zM213 306h146
c32 0 36 2 37 6v6c0 21 -18 68 -88 68c-57 0 -88 -41 -95 -80zM233 548l77 144c3 7 8 10 13 10h143c8 0 10 -3 6 -10l-104 -146c-4 -5 -11 -6 -17 -6h-114c-5 0 -6 3 -4 8z" />
    <glyph glyph-name="ecircumflex" unicode="&#xea;" horiz-adv-x="593" 
d="M315 499c156 0 222 -113 222 -214c0 -50 -6 -74 -10 -77c-11 -5 -45 -6 -106 -6h-207c5 -46 47 -86 144 -86c38 0 87 7 132 25c3 1 7 1 7 -5v-105c0 -8 -2 -10 -7 -13c-43 -20 -95 -28 -165 -28c-195 0 -264 126 -264 253c0 139 88 256 254 256zM213 306h146
c32 0 36 2 37 6v6c0 21 -18 68 -88 68c-57 0 -88 -41 -95 -80zM304 628c-14 -22 -46 -70 -60 -89c-3 -2 -4 -4 -10 -4h-93c-6 0 -7 6 -4 10l106 148c3 3 5 5 10 5h109c6 0 8 -1 10 -5l109 -149c3 -4 0 -9 -5 -9h-101c-6 0 -8 2 -11 5z" />
    <glyph glyph-name="edieresis" unicode="&#xeb;" horiz-adv-x="593" 
d="M315 499c156 0 222 -113 222 -214c0 -50 -6 -74 -10 -77c-11 -5 -45 -6 -106 -6h-207c5 -46 47 -86 144 -86c38 0 87 7 132 25c3 1 7 1 7 -5v-105c0 -8 -2 -10 -7 -13c-43 -20 -95 -28 -165 -28c-195 0 -264 126 -264 253c0 139 88 256 254 256zM213 306h146
c32 0 36 2 37 6v6c0 21 -18 68 -88 68c-57 0 -88 -41 -95 -80zM196 540c-43 0 -73 29 -73 73c0 43 32 74 74 74s71 -31 71 -74c0 -44 -30 -73 -72 -73zM403 540c-42 0 -72 29 -72 73c0 43 32 74 73 74c44 0 71 -31 71 -74c0 -44 -29 -73 -72 -73z" />
    <glyph glyph-name="egrave" unicode="&#xe8;" horiz-adv-x="593" 
d="M315 499c156 0 222 -113 222 -214c0 -50 -6 -74 -10 -77c-11 -5 -45 -6 -106 -6h-207c5 -46 47 -86 144 -86c38 0 87 7 132 25c3 1 7 1 7 -5v-105c0 -8 -2 -10 -7 -13c-43 -20 -95 -28 -165 -28c-195 0 -264 126 -264 253c0 139 88 256 254 256zM213 306h146
c32 0 36 2 37 6v6c0 21 -18 68 -88 68c-57 0 -88 -41 -95 -80zM299 696l87 -147c2 -4 1 -9 -5 -9h-117c-5 0 -8 3 -11 6l-115 146c-4 5 -2 10 4 10h145c5 0 9 -1 12 -6z" />
    <glyph glyph-name="iacute" unicode="&#xed;" horiz-adv-x="316" 
d="M83 10v470c0 6 2 9 9 9h132c7 0 9 -2 9 -9v-470c0 -7 -2 -10 -10 -10h-129c-8 0 -11 3 -11 10zM89 548l77 144c3 7 8 10 13 10h143c8 0 10 -3 6 -10l-104 -146c-4 -5 -11 -6 -17 -6h-114c-5 0 -6 3 -4 8z" />
    <glyph glyph-name="icircumflex" unicode="&#xee;" horiz-adv-x="316" 
d="M83 10v470c0 6 2 9 9 9h132c7 0 9 -2 9 -9v-470c0 -7 -2 -10 -10 -10h-129c-8 0 -11 3 -11 10zM155 628c-14 -22 -46 -70 -60 -89c-3 -2 -4 -4 -10 -4h-93c-6 0 -7 6 -4 10l106 148c3 3 5 5 10 5h109c6 0 8 -1 10 -5l109 -149c3 -4 0 -9 -5 -9h-101c-6 0 -8 2 -11 5z" />
    <glyph glyph-name="idieresis" unicode="&#xef;" horiz-adv-x="316" 
d="M83 10v470c0 6 2 9 9 9h132c7 0 9 -2 9 -9v-470c0 -7 -2 -10 -10 -10h-129c-8 0 -11 3 -11 10zM56 540c-43 0 -73 29 -73 73c0 43 32 74 74 74s71 -31 71 -74c0 -44 -30 -73 -72 -73zM263 540c-42 0 -72 29 -72 73c0 43 32 74 73 74c44 0 71 -31 71 -74
c0 -44 -29 -73 -72 -73z" />
    <glyph glyph-name="igrave" unicode="&#xec;" horiz-adv-x="316" 
d="M83 10v470c0 6 2 9 9 9h132c7 0 9 -2 9 -9v-470c0 -7 -2 -10 -10 -10h-129c-8 0 -11 3 -11 10zM141 696l87 -147c2 -4 1 -9 -5 -9h-117c-5 0 -8 3 -11 6l-115 146c-4 5 -2 10 4 10h145c5 0 9 -1 12 -6z" />
    <glyph glyph-name="ntilde" unicode="&#xf1;" horiz-adv-x="631" 
d="M83 10v361c0 35 -3 87 -4 109c-1 5 1 9 6 9h115c9 0 13 -3 15 -9c4 -9 6 -23 7 -34c41 33 97 53 153 53c88 0 174 -47 174 -215v-274c0 -7 -3 -10 -10 -10h-130c-7 0 -10 3 -10 10v268c0 61 -24 94 -79 94c-31 0 -64 -15 -87 -35v-328c0 -6 -3 -9 -10 -9h-131
c-6 0 -9 3 -9 10zM219 550h-82c-6 0 -8 3 -8 7c-1 104 53 148 113 148c65 0 112 -50 141 -50c20 0 27 18 28 42c0 5 2 6 7 6h81c5 0 7 -1 7 -6c1 -112 -49 -149 -109 -149s-102 47 -141 47c-16 0 -30 -10 -32 -39c0 -2 -2 -6 -5 -6z" />
    <glyph glyph-name="oacute" unicode="&#xf3;" horiz-adv-x="649" 
d="M328 499c172 0 260 -118 260 -252c0 -160 -110 -257 -263 -257c-187 0 -264 126 -264 253c0 149 107 256 267 256zM321 386c-61 0 -108 -51 -108 -136c0 -86 43 -142 114 -142c60 0 108 44 108 136c0 83 -35 142 -114 142zM245 548l77 144c3 7 8 10 13 10h143
c8 0 10 -3 6 -10l-104 -146c-4 -5 -11 -6 -17 -6h-114c-5 0 -6 3 -4 8z" />
    <glyph glyph-name="ocircumflex" unicode="&#xf4;" horiz-adv-x="649" 
d="M328 499c172 0 260 -118 260 -252c0 -160 -110 -257 -263 -257c-187 0 -264 126 -264 253c0 149 107 256 267 256zM321 386c-61 0 -108 -51 -108 -136c0 -86 43 -142 114 -142c60 0 108 44 108 136c0 83 -35 142 -114 142zM321 628c-14 -22 -46 -70 -60 -89
c-3 -2 -4 -4 -10 -4h-93c-6 0 -7 6 -4 10l106 148c3 3 5 5 10 5h109c6 0 8 -1 10 -5l109 -149c3 -4 0 -9 -5 -9h-101c-6 0 -8 2 -11 5z" />
    <glyph glyph-name="odieresis" unicode="&#xf6;" horiz-adv-x="649" 
d="M328 499c172 0 260 -118 260 -252c0 -160 -110 -257 -263 -257c-187 0 -264 126 -264 253c0 149 107 256 267 256zM321 386c-61 0 -108 -51 -108 -136c0 -86 43 -142 114 -142c60 0 108 44 108 136c0 83 -35 142 -114 142zM222 540c-43 0 -73 29 -73 73c0 43 32 74 74 74
s71 -31 71 -74c0 -44 -30 -73 -72 -73zM429 540c-42 0 -72 29 -72 73c0 43 32 74 73 74c44 0 71 -31 71 -74c0 -44 -29 -73 -72 -73z" />
    <glyph glyph-name="ograve" unicode="&#xf2;" horiz-adv-x="649" 
d="M328 499c172 0 260 -118 260 -252c0 -160 -110 -257 -263 -257c-187 0 -264 126 -264 253c0 149 107 256 267 256zM321 386c-61 0 -108 -51 -108 -136c0 -86 43 -142 114 -142c60 0 108 44 108 136c0 83 -35 142 -114 142zM320 696l87 -147c2 -4 1 -9 -5 -9h-117
c-5 0 -8 3 -11 6l-115 146c-4 5 -2 10 4 10h145c5 0 9 -1 12 -6z" />
    <glyph glyph-name="otilde" unicode="&#xf5;" horiz-adv-x="649" 
d="M328 499c172 0 260 -118 260 -252c0 -160 -110 -257 -263 -257c-187 0 -264 126 -264 253c0 149 107 256 267 256zM321 386c-61 0 -108 -51 -108 -136c0 -86 43 -142 114 -142c60 0 108 44 108 136c0 83 -35 142 -114 142zM228 550h-82c-6 0 -8 3 -8 7
c-1 104 53 148 113 148c65 0 112 -50 141 -50c20 0 27 18 28 42c0 5 2 6 7 6h81c5 0 7 -1 7 -6c1 -112 -49 -149 -109 -149s-102 47 -141 47c-16 0 -30 -10 -32 -39c0 -2 -2 -6 -5 -6z" />
    <glyph glyph-name="scaron" unicode="&#x161;" horiz-adv-x="474" 
d="M388 347c-40 22 -90 40 -147 40c-41 0 -54 -16 -54 -30c0 -15 4 -23 82 -49c116 -37 160 -84 160 -158c0 -100 -75 -160 -203 -160c-51 0 -118 11 -167 40c-6 3 -8 6 -8 12v112c0 5 5 7 8 5c60 -36 123 -57 178 -57c41 0 53 17 53 31c0 18 -14 28 -86 53
c-116 40 -153 84 -153 158c0 83 67 155 200 155c64 0 109 -12 142 -30c5 -4 6 -7 6 -14l-1 -101c0 -6 -3 -11 -10 -7zM242 605c14 23 46 70 61 89c2 3 4 4 9 4h93c6 0 8 -6 4 -10l-105 -147c-3 -4 -6 -6 -11 -6h-109c-5 0 -7 2 -10 5l-108 149c-3 5 0 9 4 9h102
c5 0 7 -1 11 -5z" />
    <glyph glyph-name="uacute" unicode="&#xfa;" horiz-adv-x="625" 
d="M542 481v-366c0 -56 4 -86 6 -107c1 -6 -2 -8 -9 -8h-115c-8 0 -10 2 -12 7c-3 9 -5 23 -5 32c-48 -36 -95 -49 -150 -49c-93 0 -174 47 -174 189v302c0 7 3 8 9 8h133c7 0 8 -2 8 -8v-274c0 -56 17 -95 75 -95c32 0 61 11 84 32v336c0 6 3 9 10 9h132c7 0 8 -2 8 -8z
M239 548l77 144c3 7 8 10 13 10h143c8 0 10 -3 6 -10l-104 -146c-4 -5 -11 -6 -17 -6h-114c-5 0 -6 3 -4 8z" />
    <glyph glyph-name="ucircumflex" unicode="&#xfb;" horiz-adv-x="625" 
d="M542 481v-366c0 -56 4 -86 6 -107c1 -6 -2 -8 -9 -8h-115c-8 0 -10 2 -12 7c-3 9 -5 23 -5 32c-48 -36 -95 -49 -150 -49c-93 0 -174 47 -174 189v302c0 7 3 8 9 8h133c7 0 8 -2 8 -8v-274c0 -56 17 -95 75 -95c32 0 61 11 84 32v336c0 6 3 9 10 9h132c7 0 8 -2 8 -8z
M310 628c-14 -22 -46 -70 -60 -89c-3 -2 -4 -4 -10 -4h-93c-6 0 -7 6 -4 10l106 148c3 3 5 5 10 5h109c6 0 8 -1 10 -5l109 -149c3 -4 0 -9 -5 -9h-101c-6 0 -8 2 -11 5z" />
    <glyph glyph-name="udieresis" unicode="&#xfc;" horiz-adv-x="625" 
d="M542 481v-366c0 -56 4 -86 6 -107c1 -6 -2 -8 -9 -8h-115c-8 0 -10 2 -12 7c-3 9 -5 23 -5 32c-48 -36 -95 -49 -150 -49c-93 0 -174 47 -174 189v302c0 7 3 8 9 8h133c7 0 8 -2 8 -8v-274c0 -56 17 -95 75 -95c32 0 61 11 84 32v336c0 6 3 9 10 9h132c7 0 8 -2 8 -8z
M214 540c-43 0 -73 29 -73 73c0 43 32 74 74 74s71 -31 71 -74c0 -44 -30 -73 -72 -73zM421 540c-42 0 -72 29 -72 73c0 43 32 74 73 74c44 0 71 -31 71 -74c0 -44 -29 -73 -72 -73z" />
    <glyph glyph-name="ugrave" unicode="&#xf9;" horiz-adv-x="625" 
d="M542 481v-366c0 -56 4 -86 6 -107c1 -6 -2 -8 -9 -8h-115c-8 0 -10 2 -12 7c-3 9 -5 23 -5 32c-48 -36 -95 -49 -150 -49c-93 0 -174 47 -174 189v302c0 7 3 8 9 8h133c7 0 8 -2 8 -8v-274c0 -56 17 -95 75 -95c32 0 61 11 84 32v336c0 6 3 9 10 9h132c7 0 8 -2 8 -8z
M314 696l87 -147c2 -4 1 -9 -5 -9h-117c-5 0 -8 3 -11 6l-115 146c-4 5 -2 10 4 10h145c5 0 9 -1 12 -6z" />
    <glyph glyph-name="yacute" unicode="&#xfd;" horiz-adv-x="560" 
d="M28 489h145c6 0 10 -2 11 -8c74 -200 100 -280 112 -317h1c35 99 71 222 97 317c2 5 5 8 12 8h123c9 0 10 -5 9 -11c-28 -122 -102 -309 -169 -446c-61 -127 -118 -215 -147 -248c-4 -6 -9 -9 -19 -9h-144c-6 0 -9 7 -4 12c48 55 131 175 157 228c2 6 6 13 4 21
c-30 58 -153 339 -195 443c-2 6 1 10 7 10zM206 548l77 144c3 7 8 10 13 10h143c8 0 10 -3 6 -10l-104 -146c-4 -5 -11 -6 -17 -6h-114c-5 0 -6 3 -4 8z" />
    <glyph glyph-name="ydieresis" unicode="&#xff;" horiz-adv-x="560" 
d="M28 489h145c6 0 10 -2 11 -8c74 -200 100 -280 112 -317h1c35 99 71 222 97 317c2 5 5 8 12 8h123c9 0 10 -5 9 -11c-28 -122 -102 -309 -169 -446c-61 -127 -118 -215 -147 -248c-4 -6 -9 -9 -19 -9h-144c-6 0 -9 7 -4 12c48 55 131 175 157 228c2 6 6 13 4 21
c-30 58 -153 339 -195 443c-2 6 1 10 7 10zM177 540c-43 0 -73 29 -73 73c0 43 32 74 74 74s71 -31 71 -74c0 -44 -30 -73 -72 -73zM384 540c-42 0 -72 29 -72 73c0 43 32 74 73 74c44 0 71 -31 71 -74c0 -44 -29 -73 -72 -73z" />
    <glyph glyph-name="zcaron" unicode="&#x17e;" horiz-adv-x="501" 
d="M447 0h-407c-4 0 -6 2 -6 6v64c0 6 2 8 4 11l237 293c-21 -1 -58 -1 -97 -1h-137c-8 0 -9 4 -8 11l17 95c1 6 4 10 11 10h382c5 0 7 -2 8 -7v-65c0 -7 -1 -9 -6 -15c-79 -107 -201 -256 -227 -288c41 0 77 1 115 1h135c6 0 8 -2 6 -10l-18 -97c-1 -6 -5 -8 -9 -8z
M256 605c14 23 46 70 61 89c2 3 4 4 9 4h93c6 0 8 -6 4 -10l-105 -147c-3 -4 -6 -6 -11 -6h-109c-5 0 -7 2 -10 5l-108 149c-3 5 0 9 4 9h102c5 0 7 -1 11 -5z" />
    <glyph glyph-name="twodotenleader" unicode="&#x2025;" horiz-adv-x="641" 
d="M165 -10c-52 0 -90 34 -90 89c0 54 38 88 90 88c53 0 89 -37 89 -88c0 -52 -33 -89 -89 -89zM477 -10c-52 0 -90 34 -90 89c0 54 38 88 90 88c53 0 89 -37 89 -88c0 -52 -33 -89 -89 -89z" />
    <glyph glyph-name="onedotenleader" unicode="&#x2024;" horiz-adv-x="597" 
d="M299 -10c-52 0 -90 34 -90 89c0 54 38 88 90 88c53 0 89 -37 89 -88c0 -52 -33 -89 -89 -89z" />
    <glyph glyph-name="exclamdbl" unicode="&#x203c;" horiz-adv-x="651" 
d="M484 666c24 0 63 -4 76 -11c6 -4 6 -9 6 -12v-70c0 -84 -20 -302 -24 -332c-1 -3 -2 -7 -9 -7h-100c-4 0 -6 3 -7 8c-3 27 -23 244 -23 328v69c0 4 0 9 6 12c15 9 57 15 75 15zM483 -9c-51 0 -86 31 -86 81c0 47 35 82 86 82c52 0 87 -34 87 -82c0 -50 -35 -81 -87 -81z
M197 666c24 0 63 -4 76 -11c6 -4 6 -9 6 -12v-70c0 -84 -20 -302 -24 -332c-1 -3 -2 -7 -9 -7h-100c-4 0 -6 3 -7 8c-3 27 -23 244 -23 328v69c0 4 0 9 6 12c15 9 57 15 75 15zM196 -9c-51 0 -86 31 -86 81c0 47 35 82 86 82c52 0 87 -34 87 -82c0 -50 -35 -81 -87 -81z" />
    <glyph glyph-name="quotereversed" unicode="&#x201b;" horiz-adv-x="245" 
d="M210 446h-102c-6 0 -9 4 -11 7c-32 52 -50 119 -50 185c0 31 3 56 8 74c2 6 4 8 10 8h112c3 0 5 -3 5 -7c-2 -16 -7 -53 -7 -79c0 -55 9 -111 40 -181c2 -4 0 -7 -5 -7z" />
    <glyph glyph-name="uni02BC" unicode="&#x2bc;" horiz-adv-x="245" 
d="M136 446h-102c-5 0 -7 3 -5 7c31 70 40 126 40 181c0 26 -5 63 -8 79c0 4 3 7 6 7h112c5 0 8 -2 9 -8c5 -18 9 -43 9 -74c0 -66 -19 -133 -50 -185c-2 -3 -5 -7 -11 -7z" />
    <glyph glyph-name="emdash.alt" horiz-adv-x="795" 
d="M84 300c0 5 1 7 7 7h613c4 0 7 -1 7 -7v-91c0 -5 -2 -7 -7 -7h-611c-6 0 -9 1 -9 7v91z" />
    <glyph glyph-name="uni2014.alt" horiz-adv-x="682" 
d="M84 300c0 5 3 7 8 7h498c7 0 8 -2 8 -8v-89c0 -7 -3 -8 -10 -8h-495c-5 0 -9 0 -9 9v89z" />
    <glyph glyph-name="figuredash" unicode="&#x2012;" horiz-adv-x="393" 
d="M323 268h-250c-8 0 -10 2 -10 11v103c0 4 2 8 9 8h250c7 0 9 -2 9 -8v-106c0 -6 -4 -8 -8 -8z" />
    <glyph glyph-name="revlogicalnot" unicode="&#x2310;" horiz-adv-x="633" 
d="M65 414h493c3 0 6 -1 6 -7v-89c0 -6 -2 -8 -6 -8h-392v-200c0 -5 -1 -7 -6 -7h-96c-5 0 -6 2 -6 7v297c0 6 3 7 7 7z" />
    <glyph glyph-name="uni2015" unicode="&#x2015;" horiz-adv-x="885" 
d="M50 300c0 5 1 7 7 7h613c4 0 7 -1 7 -7v-91c0 -5 -2 -7 -7 -7h-611c-6 0 -9 1 -9 7v91z" />
    <glyph glyph-name="underscoredbl" unicode="&#x2017;" horiz-adv-x="535" 
d="M6 -74h515v-49h-515v49zM6 -172h515v-49h-515v49z" />
    <glyph glyph-name="prescription" unicode="&#x211e;" horiz-adv-x="820" 
d="M449 29l-127 199c-8 13 -14 20 -33 20h-46v-238c0 -8 -3 -10 -10 -10h-127c-7 0 -10 2 -10 10v635c0 6 1 11 8 11c26 2 102 4 192 4c178 0 279 -65 279 -201c0 -82 -48 -142 -130 -172l106 -170h2l88 148c3 6 5 8 10 8h136c6 0 9 -5 4 -11c-36 -53 -111 -166 -151 -219
c50 -72 129 -182 168 -237c3 -3 2 -10 -5 -10h-158c-7 0 -10 2 -13 8l-92 155h-2l-92 -154c-1 -3 -6 -8 -16 -9h-137c-4 0 -7 5 -3 9c47 64 114 161 159 224zM243 544v-183h58c81 0 125 32 125 92c0 63 -49 94 -125 94c-21 0 -47 -1 -58 -3z" />
    <glyph glyph-name="uni2120" unicode="&#x2120;" horiz-adv-x="363" 
d="M161 486l11 131c0 2 1 2 4 2h51c1 1 2 0 4 -2c11 -41 21 -68 23 -77c2 8 12 36 26 78c1 1 1 1 3 1h49c3 0 4 -1 4 -2l5 -130c0 -2 0 -3 -3 -3h-37c-2 0 -3 1 -3 4c0 78 1 91 1 101h-1c-2 -11 -17 -61 -28 -94c0 0 -1 -3 -3 -3h-32c-2 0 -3 2 -3 3c-12 41 -24 87 -26 96
h-1c0 -8 0 -23 -4 -105c-1 -1 -1 -2 -3 -2h-33c-3 0 -4 2 -4 2zM132 579c-12 7 -26 11 -42 11c-11 0 -14 -4 -14 -7c0 -6 6 -9 24 -15c34 -11 44 -24 44 -43c0 -32 -32 -44 -60 -44c-16 0 -35 4 -49 11c-2 2 -3 3 -3 5v30c0 2 2 3 3 2c16 -9 37 -15 51 -15c11 0 15 4 15 8
c0 5 -4 7 -21 13c-33 11 -48 24 -48 45c0 23 18 42 59 42c16 0 32 -3 43 -9c2 0 2 -2 2 -4v-28c0 -2 -1 -3 -4 -2z" />
    <glyph glyph-name="uni2117" unicode="&#x2117;" horiz-adv-x="798" 
d="M65 329c0 191 148 332 337 332s336 -142 336 -332c0 -195 -148 -335 -336 -335c-189 0 -337 142 -337 335zM139 329c0 -156 116 -268 263 -268c162 0 263 113 263 268c0 157 -118 266 -263 266c-159 0 -263 -113 -263 -266zM287 171v324c0 3 2 5 4 5c14 1 93 2 124 2
c106 0 149 -60 149 -121c0 -87 -69 -123 -149 -123h-34v-87c0 -4 0 -6 -6 -6h-81c-6 0 -7 2 -7 6zM381 435v-113h27c34 0 62 17 62 56c0 35 -20 58 -62 58c-7 0 -20 0 -27 -1z" />
    <glyph glyph-name="zero.slash" horiz-adv-x="618" 
d="M430 308c0 31 -5 77 -15 103l-171 -283c20 -24 44 -33 70 -33c75 0 116 74 116 213zM189 311c0 -31 6 -72 15 -89l170 281c-15 18 -41 26 -66 26c-60 0 -119 -58 -119 -218zM311 -10c-184 0 -262 138 -262 321c0 184 97 319 261 319c198 -1 259 -178 259 -320
c0 -169 -72 -320 -258 -320z" />
    <glyph glyph-name="onethird" unicode="&#x2153;" horiz-adv-x="830" 
d="M125 267v265c-23 -8 -48 -13 -65 -17c-5 -1 -7 1 -7 5v65c0 3 3 5 5 5c25 7 70 22 96 33c1 0 6 2 10 2h72c3 -1 4 -3 4 -6v-353c0 -5 -1 -7 -6 -7h-102c-5 0 -7 2 -7 8zM237 -11h-87c-5 0 -6 3 -4 7l362 629c3 4 5 5 8 5h89c3 0 4 -3 2 -5l-360 -630c-3 -4 -4 -6 -10 -6z
M557 151v60c0 5 0 6 5 6h42c45 0 56 18 56 34c0 20 -19 37 -64 37c-31 0 -64 -7 -96 -24c-5 -2 -7 0 -7 3v66c0 5 1 6 4 7c36 19 77 30 124 30c92 0 140 -43 140 -96c0 -37 -22 -64 -64 -79v-1c46 -12 83 -37 83 -87c0 -81 -74 -114 -166 -114c-46 0 -87 9 -120 26
c-5 2 -5 7 -5 10v70c0 4 3 5 6 4c40 -21 79 -29 115 -29c46 0 64 17 64 36c0 25 -21 36 -74 36h-38c-3 0 -5 1 -5 5z" />
    <glyph glyph-name="twothirds" unicode="&#x2154;" horiz-adv-x="909" 
d="M334 259h-281c-5 0 -6 3 -6 6v52c0 4 2 6 3 7c56 36 174 100 174 163c0 29 -18 54 -67 54c-36 0 -65 -10 -96 -26c-7 -3 -10 -1 -10 4v69c0 5 1 8 7 11c32 18 72 30 127 31c100 0 147 -56 147 -124c0 -71 -54 -116 -118 -160h139c4 0 5 0 5 -5l-16 -76c-2 -4 -3 -6 -8 -6
zM319 -11h-87c-5 0 -6 3 -4 7l362 629c3 4 5 5 8 5h89c3 0 4 -3 2 -5l-360 -630c-3 -4 -4 -6 -10 -6zM636 151v60c0 5 0 6 5 6h42c45 0 56 18 56 34c0 20 -19 37 -64 37c-31 0 -64 -7 -96 -24c-5 -2 -7 0 -7 3v66c0 5 1 6 4 7c36 19 77 30 124 30c92 0 140 -43 140 -96
c0 -37 -22 -64 -64 -79v-1c46 -12 83 -37 83 -87c0 -81 -74 -114 -166 -114c-46 0 -87 9 -120 26c-5 2 -5 7 -5 10v70c0 4 3 5 6 4c40 -21 79 -29 115 -29c46 0 64 17 64 36c0 25 -21 36 -74 36h-38c-3 0 -5 1 -5 5z" />
    <glyph glyph-name="oneeighth" unicode="&#x215b;" horiz-adv-x="843" 
d="M641 370c105 0 139 -59 139 -103c0 -38 -18 -65 -55 -82c48 -19 66 -44 66 -84c0 -67 -58 -108 -156 -108c-87 0 -147 45 -147 104c0 33 15 63 66 84c-39 19 -59 46 -59 86c0 54 48 103 146 103zM640 306c-31 0 -46 -20 -46 -42c0 -17 8 -29 17 -37c4 -3 8 -5 12 -6
c7 -3 28 -3 35 -1c5 1 8 2 12 5c9 7 18 19 18 39c0 25 -20 42 -48 42zM639 61c34 0 51 19 51 41c1 18 -8 31 -20 38c-3 3 -5 4 -9 5c-5 1 -34 2 -46 0c-4 -1 -7 -4 -9 -5c-14 -9 -21 -22 -21 -37c0 -23 19 -42 54 -42zM127 267v265c-23 -8 -48 -13 -65 -17c-5 -1 -7 1 -7 5
v65c0 3 3 5 5 5c25 7 70 22 96 33c1 0 6 2 10 2h72c3 -1 4 -3 4 -6v-353c0 -5 -1 -7 -6 -7h-102c-5 0 -7 2 -7 8zM248 -11h-87c-5 0 -6 3 -4 7l362 629c3 4 5 5 8 5h89c3 0 4 -3 2 -5l-360 -630c-3 -4 -4 -6 -10 -6z" />
    <glyph glyph-name="threeeighths" unicode="&#x215c;" horiz-adv-x="893" 
d="M692 370c105 0 139 -59 139 -103c0 -38 -18 -65 -55 -82c48 -19 66 -44 66 -84c0 -67 -58 -108 -156 -108c-87 0 -147 45 -147 104c0 33 15 63 66 84c-39 19 -59 46 -59 86c0 54 48 103 146 103zM691 306c-31 0 -46 -20 -46 -42c0 -17 8 -29 17 -37c4 -3 8 -5 12 -6
c7 -3 28 -3 35 -1c5 1 8 2 12 5c9 7 18 19 18 39c0 25 -20 42 -48 42zM690 61c34 0 51 19 51 41c1 18 -8 31 -20 38c-3 3 -5 4 -9 5c-5 1 -34 2 -46 0c-4 -1 -7 -4 -9 -5c-14 -9 -21 -22 -21 -37c0 -23 19 -42 54 -42zM123 411v60c0 5 0 6 5 6h42c45 0 56 18 56 34
c0 20 -19 37 -64 37c-31 0 -64 -7 -96 -24c-5 -2 -7 0 -7 3v66c0 5 1 6 4 7c36 19 77 30 124 30c92 0 140 -43 140 -96c0 -37 -22 -64 -64 -79v-1c46 -12 83 -37 83 -87c0 -81 -74 -114 -166 -114c-46 0 -87 9 -120 26c-5 2 -5 7 -5 10v70c0 4 3 5 6 4
c40 -21 79 -29 115 -29c46 0 64 17 64 36c0 25 -21 36 -74 36h-38c-3 0 -5 1 -5 5zM303 -11h-87c-5 0 -6 3 -4 7l362 629c3 4 5 5 8 5h89c3 0 4 -3 2 -5l-360 -630c-3 -4 -4 -6 -10 -6z" />
    <glyph glyph-name="fiveeighths" unicode="&#x215d;" horiz-adv-x="880" 
d="M677 370c105 0 139 -59 139 -103c0 -38 -18 -65 -55 -82c48 -19 66 -44 66 -84c0 -67 -58 -108 -156 -108c-87 0 -147 45 -147 104c0 33 15 63 66 84c-39 19 -59 46 -59 86c0 54 48 103 146 103zM676 306c-31 0 -46 -20 -46 -42c0 -17 8 -29 17 -37c4 -3 8 -5 12 -6
c7 -3 28 -3 35 -1c5 1 8 2 12 5c9 7 18 19 18 39c0 25 -20 42 -48 42zM675 61c34 0 51 19 51 41c1 18 -8 31 -20 38c-3 3 -5 4 -9 5c-5 1 -34 2 -46 0c-4 -1 -7 -4 -9 -5c-14 -9 -21 -22 -21 -37c0 -23 19 -42 54 -42zM117 625h198c6 0 7 -2 6 -6l-21 -70c-1 -5 -2 -6 -7 -7
h-126c-3 -9 -8 -32 -11 -42c132 -17 179 -57 179 -128c0 -74 -61 -119 -157 -119c-43 0 -86 8 -117 24c-2 2 -5 6 -5 9v70c0 4 1 6 6 4c37 -17 72 -27 110 -27c46 0 61 14 61 32c0 27 -41 47 -158 56c-3 0 -6 0 -6 5v34c5 28 43 161 43 161c1 2 2 4 5 4zM288 -11h-87
c-5 0 -6 3 -4 7l362 629c3 4 5 5 8 5h89c3 0 4 -3 2 -5l-360 -630c-3 -4 -4 -6 -10 -6z" />
    <glyph glyph-name="seveneighths" unicode="&#x215e;" horiz-adv-x="857" 
d="M651 370c105 0 139 -59 139 -103c0 -38 -18 -65 -55 -82c48 -19 66 -44 66 -84c0 -67 -58 -108 -156 -108c-87 0 -147 45 -147 104c0 33 15 63 66 84c-39 19 -59 46 -59 86c0 54 48 103 146 103zM650 306c-31 0 -46 -20 -46 -42c0 -17 8 -29 17 -37c4 -3 8 -5 12 -6
c7 -3 28 -3 35 -1c5 1 8 2 12 5c9 7 18 19 18 39c0 25 -20 42 -48 42zM649 61c34 0 51 19 51 41c1 18 -8 31 -20 38c-3 3 -5 4 -9 5c-5 1 -34 2 -46 0c-4 -1 -7 -4 -9 -5c-14 -9 -21 -22 -21 -37c0 -23 19 -42 54 -42zM71 626l272 -1c4 0 5 -2 5 -6v-50c0 -2 -2 -8 -3 -10
c-22 -51 -113 -232 -147 -296c-2 -2 -3 -4 -8 -4h-95c-4 0 -6 3 -2 8l114 216c11 22 22 41 31 56h-178c-4 0 -5 3 -5 6l10 77c1 3 2 4 6 4zM244 -11h-87c-5 0 -6 3 -4 7l362 629c3 4 5 5 8 5h89c3 0 4 -3 2 -5l-360 -630c-3 -4 -4 -6 -10 -6z" />
    <glyph glyph-name="Euro" unicode="&#x20ac;" horiz-adv-x="618" 
d="M544 127v-102c0 -5 -2 -9 -7 -11c-32 -17 -83 -25 -139 -25c-159 0 -257 87 -281 234h-49c-5 0 -7 1 -7 7v53c0 3 2 6 6 6h40c0 16 0 30 1 44h-40c-5 0 -7 1 -7 7v53c0 5 2 6 6 6h51c30 141 141 231 291 231c57 0 99 -9 127 -23c5 -3 7 -5 7 -13v-102c0 -7 -4 -9 -8 -6
c-24 12 -65 24 -114 24c-91 0 -141 -49 -158 -111h202c3 0 7 0 7 -6v-53c0 -7 -5 -7 -7 -7h-209c-2 -12 -1 -31 -1 -44h210c4 0 7 -1 7 -6v-53c0 -4 -1 -7 -7 -7h-200c16 -74 79 -112 159 -112c42 0 82 7 113 20c5 2 7 0 7 -4z" />
    <glyph glyph-name="franc" unicode="&#x20a3;" horiz-adv-x="618" 
d="M129 189v422c0 7 2 9 8 9h387c4 0 8 0 9 -5l11 -104c1 -6 -1 -9 -8 -9h-256v-132h227c8 0 9 -3 9 -9v-101c0 -7 -4 -8 -11 -8h-225v-63h95c6 0 8 -1 8 -7v-74c0 -5 -2 -8 -9 -8h-94v-92c0 -6 -4 -8 -9 -8h-133c-7 0 -9 3 -9 9v91h-55c-5 0 -8 2 -8 8v74c0 6 2 7 7 7h56z
" />
    <glyph glyph-name="lira" unicode="&#x20a4;" horiz-adv-x="618" 
d="M514 598v-102c0 -7 -3 -10 -10 -7c-21 9 -46 16 -83 16c-76 0 -104 -50 -105 -112h133c5 0 8 -1 8 -7v-55c0 -5 -2 -8 -8 -8h-132c0 -19 1 -37 -1 -51h133c5 0 8 -1 8 -7v-54c0 -5 -2 -8 -8 -8h-147c-7 -42 -22 -61 -48 -84h284c7 0 10 -2 9 -9l-17 -99
c-1 -8 -5 -11 -14 -11h-438c-4 0 -5 3 -5 7v80c0 5 1 9 8 10c70 17 92 77 93 106h-79c-5 0 -7 2 -7 9v53c0 6 3 7 7 7h84c0 8 0 44 -1 51h-83c-5 0 -7 3 -7 8v55c0 5 2 7 7 7h79v19c0 118 81 218 223 218c48 0 86 -7 109 -19c5 -3 8 -7 8 -13z" />
    <glyph glyph-name="peseta" unicode="&#x20a7;" horiz-adv-x="1265" 
d="M96 588c0 5 2 8 7 8c44 2 114 4 168 4c181 0 239 -86 250 -164h69v108c0 4 3 7 8 7l122 24c6 1 10 0 10 -5l-2 -134h97c8 0 9 -2 9 -9v-77c0 -6 -1 -8 -8 -9l-98 -6v-174c0 -42 24 -62 66 -62c28 0 55 10 78 27c4 4 7 6 14 2c51 -26 96 -37 143 -37c32 0 43 15 43 28
c0 15 -9 25 -64 46c-102 34 -138 80 -138 142c0 77 65 137 175 137c55 0 99 -12 127 -28c8 -5 8 -11 8 -16l-1 -80c0 -6 -4 -11 -12 -7c-31 14 -78 31 -127 31c-31 0 -44 -15 -44 -26c0 -18 19 -26 74 -46c95 -36 134 -74 134 -139c0 -105 -98 -143 -179 -143
c-58 0 -106 13 -145 35c-31 -20 -70 -36 -137 -36c-85 0 -153 40 -153 150v196l-74 3c-23 -95 -111 -148 -229 -148h-51v-180c0 -7 -1 -10 -11 -10h-117c-10 0 -12 3 -12 10v578zM236 497v-204c9 -1 26 -1 42 -1c59 0 109 27 109 104c0 63 -35 102 -109 102
c-19 0 -33 -1 -42 -1z" />
    <glyph glyph-name="uni20B4" unicode="&#x20b4;" horiz-adv-x="618" 
d="M360 286h169c5 0 7 -1 7 -6v-52c0 -5 -1 -7 -7 -7h-253c-21 -17 -35 -32 -35 -56c0 -26 25 -55 95 -55c68 0 123 16 169 46c5 3 7 -2 7 -6v-98c0 -8 -4 -12 -11 -17c-46 -31 -111 -45 -179 -45c-125 0 -219 58 -219 165c0 26 11 48 25 66h-45c-3 0 -5 0 -5 6v53
c0 6 3 6 5 6h95c16 14 49 35 63 43h-157c-4 0 -6 1 -6 7v53c0 6 3 6 5 6h243c27 18 46 35 46 64c0 32 -27 59 -81 59c-59 0 -109 -21 -156 -47c-3 -2 -8 1 -8 5v98c0 7 0 8 6 13c29 19 97 43 166 43c151 0 201 -85 201 -158c0 -38 -10 -57 -29 -77h59c2 0 6 0 6 -6v-53
c0 -7 -4 -7 -6 -7h-110c-15 -11 -40 -28 -60 -43z" />
    <glyph glyph-name="colonmonetary" unicode="&#x20a1;" horiz-adv-x="618" 
d="M209 308c0 -84 27 -130 66 -157l68 348c-79 -11 -134 -85 -134 -191zM458 617l11 53c1 4 2 5 5 5h36c3 0 5 -2 4 -6l-12 -61c11 -3 23 -7 33 -13c3 -2 5 -5 5 -10v-106c0 -6 -4 -9 -10 -6c-14 6 -33 13 -49 18l-72 -375c31 -1 77 6 124 28c6 3 8 0 8 -5v-104
c0 -7 -1 -10 -6 -13c-35 -21 -90 -29 -149 -30l-8 -49c0 -3 -2 -4 -5 -4h-38c-2 0 -5 1 -4 4l10 50c-12 1 -33 2 -47 7l-10 -57c-1 -3 -2 -4 -6 -4h-36c-2 0 -6 1 -4 5l12 68c-113 40 -189 131 -189 292c0 169 114 306 305 318l10 47c1 4 1 6 5 6h36c4 0 4 -3 4 -5l-9 -49
c12 0 29 -2 46 -4zM391 504l-73 -374c11 -6 31 -10 44 -11l74 381c-17 3 -32 4 -45 4z" />
    <glyph glyph-name="R_p" horiz-adv-x="1111" 
d="M237 505v-168h53c69 0 113 29 113 85c0 64 -47 84 -111 85c-13 0 -46 -2 -55 -2zM595 0h-133c-5 0 -8 1 -12 5c-27 35 -107 156 -144 212c-9 14 -15 14 -26 14h-43v-221c0 -8 -2 -10 -9 -10h-119c-10 0 -10 2 -10 11v583c0 7 3 9 8 9c34 3 119 5 191 5
c153 0 243 -58 243 -180c0 -69 -39 -130 -124 -162c35 -48 130 -168 178 -226v306c0 13 -2 49 -3 60c0 4 0 7 6 9c52 13 133 35 211 35c149 0 231 -99 231 -220c0 -155 -115 -236 -258 -240c-10 0 -33 1 -48 7l-2 -185c0 -6 -3 -11 -11 -11c-12 0 -108 -11 -115 -11
s-11 1 -11 10v200zM793 350c-20 0 -40 -5 -61 -11v-238c15 -7 37 -11 61 -11c48 0 105 35 105 129c0 92 -42 131 -105 131z" />
    <glyph glyph-name="uni20B5" unicode="&#x20b5;" horiz-adv-x="618" 
d="M370 503c-86 -1 -144 -78 -144 -191c0 -87 31 -141 72 -167zM451 501l-74 -382c7 -2 16 -2 21 -2c55 0 101 10 136 29c4 1 6 0 6 -4v-99c0 -6 1 -9 -5 -13c-31 -20 -91 -33 -157 -33c-6 0 -13 0 -23 2l-9 -57c0 -3 -2 -4 -5 -4h-73c-3 0 -6 1 -5 4l12 66
c-113 35 -203 126 -203 297c0 184 135 314 318 316l9 47c0 2 3 5 7 5h72c4 0 4 -3 4 -5l-11 -55c19 -3 46 -7 62 -18c5 -2 5 -4 5 -10v-102c0 -5 -3 -7 -8 -4c-21 12 -53 20 -79 22z" />
    <glyph glyph-name="uni20B1" unicode="&#x20b1;" horiz-adv-x="618" 
d="M528 464h42c2 0 4 0 4 -3v-44c0 -3 -1 -4 -4 -4h-35c0 -12 0 -27 -1 -36h35c3 0 5 0 5 -3v-44c0 -3 -1 -4 -4 -4h-44c-27 -109 -132 -163 -235 -163c-28 0 -40 1 -51 2v-157c0 -5 -2 -8 -7 -8h-119c-6 0 -9 3 -9 9v317h-48c-3 0 -4 2 -4 6v41c0 3 1 4 4 4h48v36h-48
c-3 0 -4 0 -4 4v43c0 3 1 4 4 4h48v150c0 7 3 7 8 8c46 2 122 4 176 4c150 0 218 -78 239 -162zM240 377h160c0 10 1 27 0 36h-160v-36zM240 464h149c-12 39 -52 57 -101 57c-13 0 -38 -1 -48 -2v-55zM240 326v-57c12 -2 28 -2 45 -2c50 0 91 19 104 59h-149z" />
    <glyph glyph-name="uni2116" unicode="&#x2116;" horiz-adv-x="1018" 
d="M85 613c0 6 2 7 7 7h153c6 0 8 -2 11 -8l97 -243c29 -95 42 -133 57 -190c0 20 -2 58 -4 149v285c0 6 2 7 7 7h114c4 0 6 -2 6 -6v-605c0 -5 -1 -9 -8 -9h-152c-6 0 -9 3 -11 8l-89 230c-23 67 -46 150 -70 231h-1c5 -46 8 -101 9 -184v-279c0 -6 -3 -6 -8 -6h-110
c-6 0 -8 3 -8 9v604zM615 177h315c6 0 7 -1 7 -7v-66c0 -7 -2 -8 -9 -8h-313c-4 0 -8 1 -8 7v67c0 5 3 7 8 7zM776 622c122 0 189 -92 189 -199c0 -128 -82 -204 -191 -204c-140 0 -195 99 -195 200c0 119 81 203 197 203zM772 530c-43 0 -72 -38 -72 -105
c0 -63 24 -109 75 -109c38 0 69 32 69 104c0 61 -21 110 -72 110z" />
    <glyph glyph-name="estimated" unicode="&#x212e;" horiz-adv-x="845" 
d="M792 318h-601c-3 0 -5 -1 -5 -4v-183c0 -8 3 -13 8 -20c59 -60 139 -98 228 -98c96 0 180 43 238 110h54c-66 -78 -174 -129 -293 -129c-205 0 -371 149 -371 332c0 185 166 335 371 335c204 0 371 -150 371 -335v-8zM656 341v183c0 8 -4 16 -9 22
c-58 58 -137 94 -225 94c-89 0 -168 -38 -227 -97c-6 -6 -9 -14 -9 -24v-178c0 -1 2 -6 5 -6h460c4 0 5 5 5 6z" />
    <glyph glyph-name="longs" unicode="&#x17f;" horiz-adv-x="323" 
d="M33 489h61v10c0 119 63 221 195 221c31 0 53 -4 66 -9c6 -3 7 -5 7 -11v-110c0 -4 -2 -8 -9 -6c-9 3 -24 6 -38 6c-37 0 -71 -17 -71 -88v-492c0 -6 -1 -10 -10 -10h-130c-8 0 -10 3 -10 10v363l-61 3c-5 1 -7 3 -7 9v97c0 5 3 7 7 7z" />
    <glyph glyph-name="T_h" horiz-adv-x="1156" 
d="M757 699v-241c41 25 85 41 143 41c96 0 173 -63 173 -208v-281c0 -7 -3 -10 -9 -10h-132c-7 0 -9 3 -9 9v272c0 57 -24 91 -78 91c-36 0 -65 -14 -88 -31v-329c0 -9 -4 -12 -13 -12h-126c-7 0 -11 4 -11 11v526h-216v-525c0 -9 -3 -11 -11 -12h-128c-8 -1 -11 4 -11 11
v526h-209c-7 0 -8 5 -7 11l15 98c1 6 4 9 10 9h557v45c0 9 3 10 11 10h127c9 0 11 -1 12 -11z" />
    <glyph glyph-name="c_h" horiz-adv-x="1090" 
d="M449 128v-106c0 -5 -1 -8 -5 -10c-35 -16 -74 -22 -127 -22c-169 0 -258 108 -258 254c0 153 119 255 281 255c57 0 88 -11 105 -17c5 -3 6 -5 6 -12l-1 -104c0 -7 -4 -8 -9 -6c-23 9 -49 16 -90 16c-83 0 -137 -48 -137 -130c0 -98 71 -129 135 -129c48 0 73 9 92 16
c6 2 8 -2 8 -5zM541 9v693c0 6 1 8 8 8h134c6 0 8 -2 8 -7v-245c34 22 78 41 138 41c91 0 178 -54 178 -215v-274c0 -7 -4 -10 -10 -10h-131c-7 0 -9 3 -9 9v272c0 61 -26 91 -79 91c-40 0 -65 -14 -87 -30v-334c0 -6 -2 -8 -8 -8h-133c-7 0 -9 3 -9 9z" />
    <glyph glyph-name="c_k" horiz-adv-x="1063" 
d="M449 128v-106c0 -5 -1 -8 -5 -10c-35 -16 -74 -22 -127 -22c-169 0 -258 108 -258 254c0 153 119 255 281 255c57 0 88 -11 105 -17c5 -3 6 -5 6 -12l-1 -104c0 -7 -4 -8 -9 -6c-23 9 -49 16 -90 16c-83 0 -137 -48 -137 -130c0 -98 71 -129 135 -129c48 0 73 9 92 16
c6 2 8 -2 8 -5zM539 702c0 4 1 8 10 8h130c7 0 10 -2 10 -8v-399h38c7 0 12 2 15 7c25 35 85 126 115 172c4 6 5 7 13 7h136c7 0 8 -6 5 -11c-32 -53 -125 -169 -161 -214c-3 -4 -3 -8 0 -10c64 -79 132 -165 197 -244c3 -4 1 -10 -6 -10h-169c-8 0 -11 2 -14 8
c-39 57 -78 110 -120 173c-5 7 -9 8 -16 8h-33v-178c0 -8 -2 -11 -10 -11h-130c-9 0 -10 3 -10 11v691z" />
    <glyph glyph-name="longs_h" horiz-adv-x="968" 
d="M416 9v693c0 6 1 8 8 8h134c6 0 8 -2 8 -7v-254c38 28 84 50 147 50c93 0 172 -59 172 -204v-285c0 -7 -4 -10 -10 -10h-131c-7 0 -9 3 -9 9v277c0 57 -24 91 -74 91c-42 0 -73 -19 -95 -39v-330c0 -6 -2 -8 -8 -8h-133c-7 0 -9 3 -9 9zM244 504v-494
c0 -6 -1 -10 -10 -10h-130c-8 0 -10 3 -10 10v363l-61 3c-5 1 -7 3 -7 9v97c0 5 3 7 7 7h61v19c0 126 74 212 186 212c25 0 44 -3 57 -8c6 -3 6 -5 6 -11v-109c0 -4 -2 -7 -8 -6c-9 2 -19 4 -33 4c-33 0 -58 -17 -58 -86z" />
    <glyph glyph-name="longs_i" horiz-adv-x="632" 
d="M399 10v470c0 6 3 9 9 9h133c7 0 9 -2 9 -9v-470c0 -7 -2 -10 -10 -10h-130c-7 0 -11 3 -11 10zM475 539c-48 0 -81 29 -81 74c0 44 35 74 83 74c49 0 79 -30 79 -74c0 -45 -32 -74 -81 -74zM244 504v-494c0 -6 -1 -10 -10 -10h-130c-8 0 -10 3 -10 10v363l-61 3
c-5 1 -7 3 -7 9v97c0 5 3 7 7 7h61v19c0 126 74 212 186 212c25 0 44 -3 57 -8c6 -3 6 -5 6 -11v-109c0 -4 -2 -7 -8 -6c-9 2 -19 4 -33 4c-33 0 -58 -17 -58 -86z" />
    <glyph glyph-name="longs_k" horiz-adv-x="943" 
d="M416 702c0 4 1 8 10 8h130c7 0 10 -2 10 -8v-403h38c7 0 12 2 15 7c25 36 86 130 116 176c3 6 5 7 12 7h136c8 0 9 -6 5 -11c-32 -53 -124 -169 -160 -214c-3 -4 -2 -8 0 -10c64 -79 133 -165 198 -244c3 -4 1 -10 -6 -10h-169c-8 0 -11 2 -14 8c-39 57 -79 113 -122 176
c-4 7 -8 8 -15 8h-34v-181c0 -8 -2 -11 -10 -11h-130c-9 0 -10 3 -10 11v691zM244 504v-494c0 -6 -1 -10 -10 -10h-130c-8 0 -10 3 -10 10v363l-61 3c-5 1 -7 3 -7 9v97c0 5 3 7 7 7h61v19c0 126 74 212 186 212c25 0 44 -3 57 -8c6 -3 6 -5 6 -11v-109c0 -4 -2 -7 -8 -6
c-9 2 -19 4 -33 4c-33 0 -58 -17 -58 -86z" />
    <glyph glyph-name="longs_l" horiz-adv-x="670" 
d="M244 504v-494c0 -6 -1 -10 -10 -10h-130c-8 0 -10 3 -10 10v363l-61 3c-5 1 -7 3 -7 9v97c0 5 3 7 7 7h61v19c0 126 74 212 186 212c25 0 44 -3 57 -8c6 -3 6 -5 6 -11v-109c0 -4 -2 -7 -8 -6c-9 2 -19 4 -33 4c-33 0 -58 -17 -58 -86zM420 701c0 6 2 9 10 9h130
c7 0 10 -2 10 -9v-559c0 -29 11 -35 30 -35c5 0 16 1 24 1c3 1 5 -1 5 -6l-1 -88c0 -8 -1 -10 -7 -13c-12 -5 -39 -11 -75 -11c-78 0 -126 33 -126 136v575z" />
    <glyph glyph-name="longs_longs" horiz-adv-x="649" 
d="M244 504v-494c0 -6 -2 -10 -10 -10h-131c-7 0 -10 3 -10 10v363l-60 3c-6 1 -7 3 -7 9v97c0 5 2 7 7 7h60v19c0 126 74 212 186 212c26 0 44 -3 57 -8c6 -3 7 -5 7 -11v-109c0 -4 -2 -7 -8 -6c-9 2 -20 4 -34 4c-33 0 -57 -17 -57 -86zM358 489h61v10
c0 119 63 221 195 221c31 0 53 -4 66 -9c6 -3 7 -5 7 -11v-110c0 -4 -2 -8 -9 -6c-9 3 -24 6 -38 6c-37 0 -71 -17 -71 -88v-492c0 -6 -1 -10 -10 -10h-130c-8 0 -10 3 -10 10v363l-61 3c-5 1 -7 3 -7 9v97c0 5 3 7 7 7z" />
    <glyph glyph-name="longs_longs_i" horiz-adv-x="960" 
d="M244 504v-494c0 -6 -1 -10 -10 -10h-130c-8 0 -10 3 -10 10v363l-61 3c-5 1 -7 3 -7 9v97c0 5 3 7 7 7h61v19c0 126 74 212 186 212c25 0 44 -3 57 -8c6 -3 6 -5 6 -11v-109c0 -4 -2 -7 -8 -6c-9 2 -19 4 -33 4c-33 0 -58 -17 -58 -86zM726 10v470c0 6 3 9 9 9h132
c7 0 9 -2 9 -9v-470c0 -7 -1 -10 -9 -10h-130c-8 0 -11 3 -11 10zM568 504v-494c0 -6 -2 -10 -10 -10h-131c-7 0 -10 3 -10 10v363l-60 3c-6 1 -7 3 -7 9v97c0 5 2 7 7 7h60v19c0 126 74 212 186 212c26 0 44 -3 57 -8c6 -3 7 -5 7 -11v-109c0 -4 -2 -7 -8 -6
c-9 2 -20 4 -34 4c-33 0 -57 -17 -57 -86zM802 539c-48 0 -81 29 -81 74c0 44 34 74 83 74s79 -30 79 -74c0 -45 -32 -74 -81 -74z" />
    <glyph glyph-name="longs_longs_l" horiz-adv-x="980" 
d="M244 504v-494c0 -6 -1 -10 -10 -10h-130c-8 0 -10 3 -10 10v363l-61 3c-5 1 -7 3 -7 9v97c0 5 3 7 7 7h61v19c0 126 74 212 186 212c25 0 44 -3 57 -8c6 -3 6 -5 6 -11v-109c0 -4 -2 -7 -8 -6c-9 2 -19 4 -33 4c-33 0 -58 -17 -58 -86zM568 504v-494c0 -6 -2 -10 -10 -10
h-131c-7 0 -10 3 -10 10v363l-60 3c-6 1 -7 3 -7 9v97c0 5 2 7 7 7h60v19c0 126 74 212 186 212c26 0 44 -3 57 -8c6 -3 7 -5 7 -11v-109c0 -4 -2 -7 -8 -6c-9 2 -20 4 -34 4c-33 0 -57 -17 -57 -86zM729 701c0 6 2 9 10 9h130c7 0 10 -2 10 -9v-559c0 -29 11 -35 30 -35
c5 0 16 1 24 1c3 1 5 -1 5 -6l-1 -88c0 -8 -1 -10 -7 -13c-12 -5 -39 -11 -75 -11c-78 0 -126 33 -126 136v575z" />
    <glyph glyph-name="longs_t" unicode="&#xfb05;" horiz-adv-x="698" 
d="M244 504v-494c0 -6 -1 -10 -10 -10h-130c-8 0 -10 3 -10 10v363l-61 3c-5 1 -7 3 -7 9v97c0 5 3 7 7 7h61v19c0 126 74 212 186 212c25 0 44 -3 57 -8c6 -3 6 -5 6 -11v-109c0 -4 -2 -7 -8 -6c-9 2 -19 4 -33 4c-33 0 -58 -17 -58 -86zM656 109v-88c0 -7 -1 -11 -7 -13
c-30 -14 -64 -18 -101 -18c-91 0 -144 44 -144 147v236l-61 3c-6 1 -8 4 -8 10v94c0 7 2 9 9 9h60c2 33 6 94 12 124c1 4 4 8 9 9l127 24c5 1 8 1 8 -6c-3 -32 -5 -103 -6 -151h100c6 0 8 -2 8 -8v-97c0 -6 -2 -7 -7 -8l-101 -3v-199c0 -44 11 -64 55 -64c12 0 23 1 40 6
c3 1 7 0 7 -7z" />
    <glyph glyph-name="Eng" unicode="&#x14a;" horiz-adv-x="768" 
d="M96 647c0 6 2 8 9 8h169c5 0 7 -1 11 -8l158 -273c42 -84 67 -124 90 -173h1c-1 19 -3 78 -3 169v276c0 7 2 9 9 9h124c5 0 8 -2 8 -7v-576c1 -155 -14 -204 -49 -250c-36 -43 -89 -55 -137 -55c-10 0 -39 1 -52 5c-6 1 -7 6 -7 12l1 92c0 7 2 11 7 11c72 -1 89 25 90 87
l-194 326c-33 62 -72 130 -97 195h-1c4 -61 3 -118 4 -200v-286c0 -6 -2 -9 -7 -9h-125c-6 0 -9 1 -9 8v639z" />
    <glyph glyph-name="uni019F" unicode="&#x19f;" horiz-adv-x="807" 
d="M408 666c201 0 327 -154 327 -335c1 -210 -137 -341 -329 -341c-208 0 -333 133 -334 338c0 194 132 338 336 338zM230 394l348 1c-9 77 -67 150 -176 150c-101 0 -163 -65 -172 -151zM581 275h-353c8 -89 73 -164 182 -164c100 0 164 69 171 164z" />
    <glyph glyph-name="uni018F" unicode="&#x18f;" horiz-adv-x="774" 
d="M79 363c6 3 108 4 170 4h298v8c-2 62 -57 158 -201 158c-91 0 -154 -19 -224 -55c-5 -2 -9 -1 -9 6v113c0 6 1 10 5 13c57 31 143 56 242 56c236 0 341 -165 341 -338c0 -191 -119 -338 -330 -338c-206 0 -304 140 -304 290c0 43 5 77 12 83zM543 248h-240
c-58 0 -71 0 -74 -1c-1 -6 0 -10 0 -14c0 -46 41 -119 153 -119c89 0 149 52 161 134z" />
    <glyph glyph-name="uni021C" unicode="&#x21c;" horiz-adv-x="619" 
d="M512 552c-59 -59 -146 -138 -185 -176c126 -8 231 -69 231 -197c0 -169 -159 -239 -303 -239c-80 0 -150 16 -187 40c-5 4 -6 7 -6 13v111c0 6 4 8 8 6c48 -25 123 -45 187 -45c104 0 149 43 149 103c0 66 -64 98 -157 98c-40 0 -78 -5 -101 -11c-4 -1 -7 -1 -7 4v77
c0 6 1 7 4 10l205 193c-21 -1 -74 -2 -114 -2h-170c-5 0 -7 2 -7 9l24 102c2 5 4 7 10 7h419c4 0 5 -2 5 -6v-86c0 -6 -3 -9 -5 -11z" />
    <glyph glyph-name="eng" unicode="&#x14b;" horiz-adv-x="632" 
d="M83 371c0 35 -2 88 -4 110c-1 5 1 8 7 8h114c8 0 12 -4 14 -8c4 -6 7 -22 9 -34c53 36 99 52 156 52c81 0 170 -46 170 -215v-214c0 -147 -12 -201 -49 -247c-35 -42 -91 -55 -136 -55c-9 0 -30 1 -43 4c-6 2 -9 4 -9 11l1 89c0 7 2 11 7 11c65 2 79 21 79 94v305
c0 60 -27 90 -79 90c-27 0 -60 -11 -87 -35v-325c0 -9 -3 -12 -13 -12h-126c-7 0 -11 3 -11 11v360z" />
    <glyph glyph-name="kgreenlandic" unicode="&#x138;" horiz-adv-x="613" 
d="M83 476c0 5 1 8 7 8h135c7 0 8 -3 8 -8v-184h47c6 0 10 2 13 7c28 44 91 143 115 179c3 4 8 6 13 6h138c6 0 9 -4 5 -9c-34 -49 -130 -175 -165 -218c33 -36 144 -179 198 -247c4 -5 2 -10 -5 -10h-170c-8 0 -12 3 -14 7c-7 6 -113 174 -118 179c-8 7 -10 7 -16 7h-41
v-185c0 -6 -3 -8 -10 -8h-131c-7 0 -9 2 -9 8v468z" />
    <glyph glyph-name="uni0275" unicode="&#x275;" horiz-adv-x="650" 
d="M328 499c170 0 260 -118 260 -251c0 -160 -103 -258 -258 -258c-194 0 -268 124 -268 251c0 146 105 258 266 258zM213 302h225c-5 42 -41 85 -111 85c-67 0 -106 -38 -114 -85zM440 190l-227 1c7 -50 49 -89 116 -89c58 0 103 27 111 88z" />
    <glyph glyph-name="uni0259" unicode="&#x259;" horiz-adv-x="597" 
d="M72 273c6 4 36 6 105 6h213v3c0 47 -38 100 -138 100c-53 0 -103 -9 -149 -27c-7 -2 -10 1 -10 7v77c0 10 3 12 9 16c54 28 121 39 177 39c191 0 261 -125 261 -251c0 -140 -98 -253 -256 -253c-156 0 -224 117 -224 217c0 49 8 63 12 66zM390 191h-151
c-23 0 -31 -1 -33 -6s-2 -10 -2 -18c0 -34 23 -83 88 -83c59 0 94 44 98 107z" />
    <glyph glyph-name="uni021D" unicode="&#x21d;" horiz-adv-x="518" 
d="M445 389c-50 -59 -122 -141 -156 -178c94 -7 197 -62 197 -197c0 -170 -140 -241 -281 -241c-60 0 -133 13 -170 37c-7 4 -7 7 -7 15v112c0 4 4 8 8 5c44 -28 109 -45 169 -45c88 0 129 43 129 102c0 66 -42 103 -145 103c-35 0 -49 -2 -66 -5c-7 0 -11 2 -11 7v72
c0 6 0 8 5 14l169 185c-21 -1 -61 -2 -99 -2h-151c-7 0 -9 4 -9 12l16 95c1 6 4 9 11 9h389c4 0 7 -2 7 -10v-78c0 -7 -4 -9 -5 -12z" />
    <glyph glyph-name="a.sc" horiz-adv-x="638" 
d="M392 114h-161l-36 -107c-2 -5 -4 -7 -10 -7h-132c-6 0 -8 3 -6 10l165 465c2 7 5 16 8 46c0 4 2 6 6 6h161c7 0 9 -3 11 -8l193 -510c3 -6 -1 -9 -7 -9h-141c-8 0 -10 2 -12 8zM255 232h109c-12 37 -41 127 -56 177h-1c-13 -49 -36 -126 -52 -177z" />
    <glyph glyph-name="b.sc" horiz-adv-x="618" 
d="M98 10v508c0 6 2 7 6 8c43 2 141 3 212 3c177 0 218 -71 218 -140c0 -62 -35 -95 -80 -112c56 -15 103 -55 103 -125c0 -99 -83 -154 -268 -154c-81 0 -135 1 -184 3c-5 1 -7 3 -7 9zM245 215v-114c15 -1 39 -2 62 -2c63 0 96 17 96 59c0 38 -31 57 -97 57h-61zM245 426
v-109h64c63 0 83 24 83 56c0 35 -25 54 -83 54c-24 0 -44 0 -64 -1z" />
    <glyph glyph-name="c.sc" horiz-adv-x="590" 
d="M520 19c-37 -20 -90 -28 -156 -28c-152 0 -293 84 -293 272c0 153 116 273 303 273c61 0 114 -9 143 -24c5 -4 6 -7 6 -13v-105c0 -6 -3 -8 -8 -6c-32 17 -77 28 -132 28c-98 0 -162 -58 -162 -150c0 -105 80 -152 168 -152c59 0 94 11 131 26c3 2 7 1 7 -5v-105
c0 -6 -1 -9 -7 -11z" />
    <glyph glyph-name="d.sc" horiz-adv-x="680" 
d="M98 10v507c0 6 1 8 6 9c10 1 133 3 202 3c207 0 303 -103 303 -260c0 -224 -193 -271 -312 -271c-79 0 -148 1 -193 3c-5 0 -6 4 -6 9zM248 411v-295c5 0 28 -1 50 -1c100 0 156 49 156 151c0 95 -57 146 -147 146c-21 0 -52 -1 -59 -1z" />
    <glyph glyph-name="e.sc" horiz-adv-x="566" 
d="M509 107l-13 -100c-1 -4 -3 -7 -9 -7h-381c-7 0 -8 2 -8 7v512c0 4 3 8 10 8h366c6 0 8 -2 9 -8l10 -97c1 -5 -2 -9 -8 -9h-240v-91h219c6 0 8 -2 8 -8v-97c0 -7 -3 -9 -8 -9h-219v-94h258c5 0 6 -1 6 -7z" />
    <glyph glyph-name="f.sc" horiz-adv-x="543" 
d="M246 179v-172c0 -6 -2 -7 -7 -7h-134c-6 0 -7 4 -7 7v512c0 4 1 8 7 8h369c6 0 8 -3 9 -9l10 -95c1 -6 0 -10 -7 -10h-240v-120h216c6 0 7 -3 7 -8v-96c0 -7 -2 -10 -8 -10h-215z" />
    <glyph glyph-name="g.sc" horiz-adv-x="670" 
d="M572 486v-104c0 -7 -5 -9 -12 -6c-44 25 -100 41 -164 41c-120 0 -170 -72 -170 -160c0 -85 50 -148 159 -148c16 0 45 3 58 9v75l-90 4c-8 0 -8 5 -8 11l2 86c0 7 2 8 8 8h226c8 0 9 -3 9 -11v-247c0 -6 -1 -11 -8 -14c-46 -22 -124 -40 -204 -40
c-222 0 -307 131 -307 267c0 185 148 279 316 279c76 0 148 -15 179 -35c4 -2 6 -6 6 -15z" />
    <glyph glyph-name="h.sc" horiz-adv-x="689" 
d="M583 0h-133c-6 0 -9 2 -9 8v202h-193v-201c0 -6 -3 -9 -9 -9h-133c-6 0 -8 3 -8 9v511c0 4 1 7 7 7h136c5 0 7 -1 7 -7v-192h193v192c0 4 3 7 8 7h134c6 0 8 -2 8 -8v-511c0 -5 -2 -8 -8 -8z" />
    <glyph glyph-name="i.sc" horiz-adv-x="346" 
d="M248 518v-509c0 -6 -4 -9 -9 -9h-133c-6 0 -8 3 -8 9v508c0 5 1 10 9 10h133c6 0 8 -3 8 -9z" />
    <glyph glyph-name="j.sc" horiz-adv-x="438" 
d="M196 527h137c4 0 7 -1 7 -7v-351c-1 -137 -61 -220 -209 -220c-40 0 -84 6 -103 15c-4 2 -6 5 -6 10v106c0 6 4 9 10 7c21 -8 52 -14 74 -14c66 0 84 20 84 105v342c0 4 1 7 6 7z" />
    <glyph glyph-name="k.sc" horiz-adv-x="641" 
d="M240 0h-134c-6 0 -8 3 -8 10v509c0 5 2 8 8 8h134c5 0 6 -2 6 -7v-199h40c8 0 13 1 17 8l124 190c4 7 6 8 14 8h140c8 0 9 -6 4 -12l-175 -239c31 -39 176 -229 203 -267c3 -5 1 -9 -5 -9h-161c-6 0 -9 1 -13 7l-130 192c-5 6 -7 8 -16 8h-42v-199c0 -6 -1 -8 -6 -8z" />
    <glyph glyph-name="l.sc" horiz-adv-x="530" 
d="M248 520v-402h236c5 0 7 -2 6 -8l-13 -104c-1 -4 -3 -6 -8 -6h-365c-4 0 -6 2 -6 7v512c0 4 1 8 7 8h136c5 0 7 -2 7 -7z" />
    <glyph glyph-name="m.sc" horiz-adv-x="831" 
d="M71 9l48 508c1 8 3 10 11 10h185c6 0 8 -2 10 -7c63 -207 87 -313 92 -351h2c8 38 29 127 98 350c2 7 5 8 11 8h187c6 0 9 -2 10 -10l35 -509c0 -7 -3 -8 -9 -8h-136c-6 0 -10 2 -10 9c-6 118 -7 280 -13 406h-2c-8 -40 -31 -147 -106 -406c-1 -6 -4 -9 -10 -9h-123
c-8 0 -10 2 -12 9c-75 271 -96 365 -106 411h-2c-1 -41 -4 -116 -23 -411c-1 -7 -3 -9 -10 -9h-118c-6 0 -9 3 -9 9z" />
    <glyph glyph-name="n.sc" horiz-adv-x="687" 
d="M459 162h2c-1 36 -3 72 -3 123l-3 233c0 7 2 9 9 9h118c5 0 7 -3 7 -9v-510c0 -5 -2 -8 -8 -8h-160c-7 0 -11 3 -14 8l-97 181c-23 49 -58 136 -79 196h-2c2 -48 3 -86 4 -146v-230c0 -7 -4 -9 -10 -9h-117c-6 0 -8 2 -8 9v508c0 7 2 10 9 10h161c5 0 9 -1 12 -7
l112 -199c31 -68 51 -114 67 -159z" />
    <glyph glyph-name="o.sc" horiz-adv-x="705" 
d="M352 536c172 0 282 -119 282 -270c0 -167 -105 -275 -283 -275c-163 0 -280 110 -280 270c0 153 100 275 281 275zM226 266c0 -92 47 -156 127 -156c83 0 126 57 126 152c0 91 -51 154 -129 154c-72 0 -124 -61 -124 -150z" />
    <glyph glyph-name="p.sc" horiz-adv-x="590" 
d="M98 8v509c0 6 1 8 5 8c24 1 107 3 192 3c178 0 244 -89 244 -188c0 -135 -104 -195 -228 -195h-63v-136c0 -7 -3 -9 -9 -9h-133c-6 0 -8 2 -8 8zM248 416v-159c11 -1 24 -1 49 -1c44 0 89 21 89 79c0 52 -29 83 -94 83c-14 0 -36 -1 -44 -2z" />
    <glyph glyph-name="q.sc" horiz-adv-x="705" 
d="M349 416c-69 0 -123 -56 -123 -149c0 -96 49 -157 128 -157c75 0 125 48 125 152c0 97 -53 154 -130 154zM355 536c168 0 279 -118 279 -270c0 -125 -60 -192 -104 -220c48 -44 127 -102 175 -136c3 -2 0 -13 -4 -13l-171 -10c-7 0 -11 1 -17 6c-31 22 -81 67 -121 103
c-5 -2 -13 -4 -21 -5s-16 -1 -24 -1c-154 0 -276 106 -276 269c0 156 101 277 284 277z" />
    <glyph glyph-name="r.sc" horiz-adv-x="619" 
d="M245 189v-181c0 -6 -3 -8 -9 -8h-129c-9 0 -9 2 -9 9v509c0 6 3 8 7 8c29 1 102 3 201 3c144 0 230 -49 230 -161c0 -81 -53 -118 -108 -139c37 -45 141 -182 166 -219c3 -6 0 -10 -5 -10h-157c-8 0 -12 3 -15 8c-22 32 -70 111 -104 169c-6 11 -15 12 -24 12h-44z
M245 419v-124h50c69 0 88 28 88 64c0 40 -28 61 -86 61c-13 0 -36 0 -52 -1z" />
    <glyph glyph-name="s.sc" horiz-adv-x="523" 
d="M247 -10c-68 0 -141 14 -182 42c-5 4 -5 9 -5 13l-1 111c0 6 3 9 9 6c60 -37 138 -57 190 -57c44 0 66 15 66 36c0 23 -15 35 -105 68c-118 44 -157 87 -157 164c0 82 71 162 216 162c76 0 131 -17 156 -35c5 -3 6 -7 6 -14v-103c0 -7 -3 -8 -9 -5c-42 25 -97 43 -164 43
c-50 0 -65 -19 -65 -36c0 -22 21 -34 104 -64c134 -49 165 -98 165 -167c0 -112 -97 -164 -224 -164z" />
    <glyph glyph-name="t.sc" horiz-adv-x="574" 
d="M209 9v400h-166c-7 0 -9 2 -8 10l15 100c1 5 3 8 9 8h460c7 0 8 -3 9 -8l11 -101c1 -8 -3 -10 -7 -10c0 0 -173 1 -173 0v-399c0 -7 -3 -9 -9 -9h-132c-7 0 -9 3 -9 9z" />
    <glyph glyph-name="u.sc" horiz-adv-x="677" 
d="M244 518v-308c0 -62 32 -105 94 -105c56 0 96 31 96 105v308c0 7 3 9 8 9h135c5 0 7 -2 7 -8v-307c0 -159 -123 -222 -252 -222c-141 0 -238 73 -238 216v312c0 6 1 9 8 9h134c6 0 8 -3 8 -9z" />
    <glyph glyph-name="v.sc" horiz-adv-x="629" 
d="M324 137h1c12 47 24 88 118 382c3 7 6 8 12 8h134c7 0 9 -5 6 -11l-192 -509c-2 -7 -5 -7 -10 -7h-149c-7 0 -9 2 -12 8l-199 508c-2 5 -1 11 6 11h142c7 0 9 -2 11 -7c107 -297 121 -341 132 -383z" />
    <glyph glyph-name="w.sc" horiz-adv-x="886" 
d="M533 519c43 -177 69 -275 88 -381h4c6 44 13 107 62 380c1 6 4 9 10 9h136c5 0 8 -4 6 -10l-135 -509c-3 -6 -6 -8 -12 -8h-140c-7 0 -10 1 -13 9c-61 237 -83 322 -94 368l-1 1c-8 -45 -40 -164 -99 -370c-2 -6 -5 -8 -12 -8h-139c-6 0 -10 1 -12 8l-135 510
c-2 6 1 9 6 9h144c5 0 7 -2 8 -7c62 -282 71 -344 77 -384h2c6 42 20 108 86 381c2 7 6 10 12 10h141c6 0 9 -1 10 -8z" />
    <glyph glyph-name="x.sc" horiz-adv-x="619" 
d="M566 518l-157 -250l168 -257c4 -4 2 -11 -5 -11h-154c-8 0 -10 2 -14 8l-100 189h-2l-101 -190c-3 -6 -7 -7 -13 -7h-141c-6 0 -7 4 -5 9l165 255l-158 253c-3 5 -1 10 6 10h155c5 0 7 -1 9 -6l95 -185h2l97 185c2 4 4 6 12 6h136c6 0 7 -5 5 -9z" />
    <glyph glyph-name="y.sc" horiz-adv-x="603" 
d="M218 214l-184 303c-4 6 -1 10 4 10h154c9 0 10 -2 13 -7l64 -127l43 -90l1 1c10 25 25 57 40 92l60 122c3 8 6 9 11 9h141c5 0 8 -5 4 -10l-184 -303c-3 -8 -8 -17 -8 -35v-171c0 -6 -1 -8 -9 -8h-132c-7 0 -9 2 -9 8v173c0 16 0 20 -9 33z" />
    <glyph glyph-name="z.sc" horiz-adv-x="581" 
d="M507 0h-442c-6 0 -7 2 -7 7v74c0 7 1 8 4 13l260 315c-15 0 -48 -1 -106 -1h-149c-6 0 -10 2 -9 8l18 103c1 4 3 8 9 8h413c6 0 7 -2 7 -7v-81c0 -6 -3 -9 -6 -14l-251 -308c33 1 80 1 116 1h163c5 0 6 -3 5 -9l-17 -103c-1 -4 -3 -6 -8 -6z" />
    <glyph glyph-name="germandbls.sc" horiz-adv-x="1046" 
d="M247 -10c-68 0 -141 14 -182 42c-5 4 -5 9 -5 13l-1 111c0 6 3 9 9 6c60 -37 138 -57 190 -57c44 0 66 15 66 36c0 23 -15 35 -105 68c-118 44 -157 87 -157 164c0 82 71 162 216 162c76 0 131 -17 156 -35c5 -3 6 -7 6 -14v-103c0 -7 -3 -8 -9 -5c-42 25 -97 43 -164 43
c-50 0 -65 -19 -65 -36c0 -22 21 -34 104 -64c134 -49 165 -98 165 -167c0 -112 -97 -164 -224 -164zM770 -10c-68 0 -141 14 -182 42c-5 4 -5 9 -5 13l-1 111c0 6 3 9 9 6c60 -37 138 -57 190 -57c44 0 66 15 66 36c0 23 -15 35 -105 68c-118 44 -157 87 -157 164
c0 82 71 162 216 162c76 0 131 -17 156 -35c5 -3 6 -7 6 -14v-103c0 -7 -3 -8 -9 -5c-42 25 -97 43 -164 43c-50 0 -65 -19 -65 -36c0 -22 21 -34 104 -64c134 -49 165 -98 165 -167c0 -112 -97 -164 -224 -164z" />
    <glyph glyph-name="ae.sc" horiz-adv-x="825" 
d="M172 0h-128c-3 0 -8 2 -5 9l225 511c1 4 3 7 10 7h426c7 0 9 -1 10 -8l14 -97c0 -6 -1 -9 -9 -9h-220l13 -91h205c4 0 7 -2 7 -7v-101c0 -5 -2 -6 -6 -6h-190l15 -94h218c6 0 8 -4 7 -9l-15 -97c-1 -5 -3 -8 -10 -8h-316c-5 0 -7 4 -8 7l-18 127h-160l-54 -128
c-3 -6 -5 -6 -11 -6zM276 246h106c-19 139 -23 172 -25 195h-3c-8 -28 -19 -58 -78 -195z" />
    <glyph glyph-name="oe.sc" horiz-adv-x="904" 
d="M437 110v305c-14 3 -30 5 -57 5c-86 0 -154 -48 -154 -154s57 -159 154 -159c21 0 45 1 57 3zM825 0h-324c-19 -1 -36 -2 -56 -3c-19 -1 -42 -2 -74 -2c-189 0 -300 102 -300 267c0 177 134 270 306 270c43 0 81 -3 114 -5h323c6 0 7 -2 8 -7l10 -99c1 -6 -1 -8 -7 -8
h-241v-91h221c5 0 6 -2 6 -7v-97c0 -7 -2 -10 -7 -10h-220v-94h256c4 0 7 -3 7 -8l-12 -99c-1 -6 -3 -7 -10 -7z" />
    <glyph glyph-name="eng.sc" horiz-adv-x="689" 
d="M99 517c-1 8 2 10 9 10h161c7 0 9 -3 12 -7c112 -194 150 -273 178 -330h2c0 13 0 24 -5 328c0 8 2 9 9 9h118c5 0 7 -3 7 -9v-446c1 -155 -13 -204 -48 -250c-37 -43 -91 -55 -138 -55c-9 0 -38 1 -50 5c-6 1 -8 4 -8 10l1 98c0 6 2 7 6 7c70 -1 97 13 97 76
c-1 7 -3 14 -9 26c-21 39 -136 248 -213 397c2 -48 5 -88 5 -378c0 -5 -1 -8 -7 -8h-119c-3 0 -8 1 -8 8v509z" />
    <glyph glyph-name="eth.sc" horiz-adv-x="690" 
d="M355 225h-97v-112c12 -1 28 -1 50 -1c96 0 156 37 156 154c0 107 -69 148 -157 148c-16 0 -40 0 -49 -1v-99h96c6 0 8 -1 8 -9v-70c0 -7 -1 -10 -7 -10zM108 225h-43c-8 0 -11 1 -11 8v73c0 6 2 8 9 8h45v203c0 5 1 8 7 9c37 1 112 3 188 3c210 0 316 -99 316 -260
c0 -233 -196 -271 -322 -271c-81 0 -148 1 -180 3c-6 0 -9 4 -9 11v213z" />
    <glyph glyph-name="uni0275.sc" horiz-adv-x="705" 
d="M353 536c170 0 281 -119 281 -270c0 -166 -107 -275 -286 -275c-162 0 -277 110 -277 270c0 153 100 275 282 275zM483 212h-262c9 -60 51 -112 133 -112c79 0 119 46 129 112zM483 316c-12 66 -59 111 -134 111c-76 0 -125 -46 -130 -111h264z" />
    <glyph glyph-name="oslash.sc" horiz-adv-x="705" 
d="M349 427c-71 0 -128 -60 -128 -157c0 -29 8 -67 26 -86l156 230c-13 8 -27 13 -54 13zM485 530c2 3 4 5 9 5h82c6 0 7 -5 4 -9l-38 -55c59 -50 92 -116 92 -205c0 -167 -104 -275 -279 -275c-48 0 -92 9 -127 26l-11 -17c-3 -5 -6 -6 -13 -6h-82c-9 0 -10 0 -8 3l43 61
c-52 48 -86 114 -86 203c0 155 103 275 280 275c53 0 102 -13 121 -25zM459 357l-162 -241c13 -8 39 -14 57 -14c79 0 130 53 130 162c0 39 -10 78 -25 93z" />
    <glyph glyph-name="uni0259.sc" horiz-adv-x="672" 
d="M96 301h348v6c-7 52 -53 109 -147 109c-75 0 -127 -20 -184 -48c-6 -3 -10 1 -10 7v99c0 5 -1 9 5 12c48 27 125 50 211 50c200 -1 281 -131 281 -272c0 -153 -99 -273 -275 -273c-185 0 -259 115 -259 235c0 40 4 58 6 64c2 7 5 11 24 11zM441 204l-216 1
c-6 0 -9 -1 -11 -4c-1 -5 -1 -7 -1 -11c0 -29 21 -91 115 -91c71 0 109 52 113 105z" />
    <glyph glyph-name="thorn.sc" horiz-adv-x="604" 
d="M98 8v510c0 6 2 9 8 9h134c6 0 8 -1 8 -8v-76h68c129 0 222 -57 222 -176c0 -128 -105 -183 -235 -183c-19 0 -44 1 -55 2v-77c0 -6 -1 -9 -8 -9h-134c-5 0 -8 2 -8 8zM246 339v-150c9 -1 25 -1 42 -1c69 0 97 32 97 76c0 51 -35 76 -94 76c-20 0 -36 -1 -45 -1z" />
    <glyph glyph-name="uni021D.sc" horiz-adv-x="561" 
d="M456 438c-53 -54 -110 -105 -145 -134c104 -10 186 -58 186 -165c0 -138 -135 -191 -259 -191c-63 0 -136 12 -171 32c-4 3 -7 7 -7 14v101c0 4 4 7 7 4c42 -20 99 -39 160 -39c72 0 117 26 117 76c0 54 -50 70 -118 70c-35 0 -69 -6 -87 -10c-6 -2 -9 1 -9 6v65
c0 4 0 6 4 11l162 133h-233c-8 0 -10 2 -9 8l22 100c1 5 3 7 8 7h371c4 0 6 -2 6 -6v-72c-1 -5 -3 -8 -5 -10z" />
    <glyph glyph-name="ampersand.sc" horiz-adv-x="699" 
d="M320 536c51 0 93 -8 119 -24c5 -2 7 -5 7 -12v-91c0 -6 -3 -7 -9 -5c-20 13 -58 27 -93 27c-36 0 -54 -17 -54 -42c0 -21 17 -40 57 -62h262c7 0 7 -2 7 -8l-15 -91c-1 -7 -3 -8 -10 -8c-1 0 -137 1 -147 1c26 -20 45 -44 67 -69c31 -36 63 -47 84 -46c8 0 11 1 19 1
c4 1 7 0 7 -7v-93c0 -7 -2 -9 -8 -12c-9 -3 -36 -5 -57 -5c-66 0 -111 31 -169 107c-65 81 -111 120 -124 120c-23 0 -54 -16 -54 -54c0 -34 27 -62 80 -62c26 0 45 4 61 9c3 1 5 -3 5 -6v-91c0 -4 -1 -8 -5 -10c-12 -6 -40 -13 -86 -13c-96 0 -191 50 -191 165
c0 71 53 117 116 139c-26 22 -49 52 -49 102c0 85 79 140 180 140z" />
    <glyph glyph-name="exclam.sc" horiz-adv-x="375" 
d="M207 571c22 0 63 -4 76 -11c6 -3 7 -6 7 -9v-72c0 -84 -23 -237 -27 -267c0 -3 -1 -6 -7 -6h-100c-5 0 -7 3 -8 7c-4 28 -25 179 -25 262v71c0 4 3 9 6 11c14 8 59 14 78 14zM205 -8c-49 0 -83 30 -83 77s35 80 83 80c50 0 84 -33 84 -80c0 -48 -34 -77 -84 -77z" />
    <glyph glyph-name="exclamdown.sc" horiz-adv-x="363" 
d="M170 -44c-19 0 -64 6 -78 14c-3 2 -6 7 -6 11v71c0 83 21 234 25 262c1 4 3 7 8 7h100c6 0 7 -3 7 -6c4 -30 27 -183 27 -267v-72c0 -3 -1 -6 -7 -9c-13 -7 -54 -11 -76 -11zM168 535c50 0 84 -29 84 -77c0 -47 -34 -80 -84 -80c-48 0 -83 33 -83 80s34 77 83 77z" />
    <glyph glyph-name="question.sc" horiz-adv-x="532" 
d="M285 572c113 0 186 -59 186 -137c0 -39 -13 -73 -70 -114c-44 -29 -72 -47 -72 -53c0 -9 10 -29 25 -53c2 -4 2 -10 -7 -10h-102c-4 0 -10 1 -15 4c-23 23 -45 66 -45 86c0 11 12 25 55 53c76 49 86 55 86 74s-20 41 -71 41c-43 0 -104 -18 -142 -40c-5 -3 -9 -1 -9 5
l-1 85c0 6 0 8 4 12c24 17 84 47 178 47zM297 -9c-49 0 -84 30 -84 77s33 80 82 80c50 0 86 -33 86 -80c0 -48 -35 -77 -84 -77z" />
    <glyph glyph-name="questiondown.sc" horiz-adv-x="497" 
d="M215 -46c-113 0 -186 59 -186 137c0 39 13 73 70 114c44 29 72 47 72 53c0 9 -10 29 -25 53c-2 4 -2 10 7 10h102c4 0 10 -1 15 -4c23 -23 45 -66 45 -86c0 -11 -12 -25 -55 -53c-76 -49 -86 -55 -86 -74s20 -41 71 -41c43 0 104 18 142 40c5 3 9 1 9 -5l1 -85
c0 -6 0 -8 -4 -12c-24 -17 -84 -47 -178 -47zM203 535c49 0 84 -30 84 -77s-33 -80 -82 -80c-50 0 -86 33 -86 80c0 48 35 77 84 77z" />
    <glyph glyph-name="parenleft.sc" horiz-adv-x="385" 
d="M65 254c0 180 75 321 135 395c2 4 5 6 11 6h114c5 0 6 -4 4 -8c-88 -118 -139 -243 -139 -389c0 -163 57 -291 136 -394c2 -3 1 -8 -4 -8l-110 -1c-7 0 -9 1 -13 5c-71 80 -134 218 -134 394z" />
    <glyph glyph-name="parenright.sc" horiz-adv-x="385" 
d="M319 256c0 -181 -75 -322 -134 -395c-3 -5 -5 -6 -12 -6h-113c-6 0 -7 4 -4 7c87 118 138 244 138 389c0 164 -56 292 -135 394c-3 4 -2 9 3 9l110 1c8 0 10 -1 13 -6c71 -79 134 -217 134 -393z" />
    <glyph glyph-name="bracketleft.sc" horiz-adv-x="388" 
d="M87 639c0 5 1 8 7 8h230c3 0 5 -1 5 -6v-74c0 -5 -3 -6 -6 -6h-123v-610h124c5 0 6 -1 6 -7v-75c0 -4 -1 -5 -6 -5h-229c-6 0 -8 2 -8 7v768z" />
    <glyph glyph-name="bracketright.sc" horiz-adv-x="388" 
d="M304 -129c0 -5 -2 -7 -7 -7h-230c-3 0 -5 1 -5 6v73c0 5 2 6 5 6h124l-1 610h-123c-5 0 -6 1 -6 7v75c0 4 1 6 6 6h229c6 0 8 -3 8 -8v-768z" />
    <glyph glyph-name="braceleft.sc" horiz-adv-x="414" 
d="M57 209c-6 0 -7 1 -7 6l1 87c0 5 3 5 6 6c67 0 98 18 100 70c1 38 -5 92 -5 130c0 52 42 152 200 162c5 0 8 -2 8 -7l1 -81c0 -5 -2 -8 -7 -9c-70 -13 -82 -48 -82 -74c0 -38 5 -92 5 -128c0 -58 -38 -94 -101 -109v-3c75 -17 103 -62 104 -113c0 -41 -8 -95 -8 -135
c0 -30 14 -58 84 -70c7 -1 7 -1 7 -7v-85c0 -6 -2 -8 -8 -8c-135 5 -203 66 -203 162c0 49 7 79 7 128c0 52 -22 78 -102 78z" />
    <glyph glyph-name="braceright.sc" horiz-adv-x="414" 
d="M358 308c5 0 6 -1 6 -6v-87c0 -5 -4 -5 -6 -6c-68 0 -98 -18 -100 -70c-1 -38 4 -98 4 -136c0 -52 -41 -152 -199 -162c-6 0 -8 2 -8 7l-2 81c0 5 2 8 8 9c70 13 81 48 81 74c0 39 -5 98 -5 134c0 58 38 94 101 109v3c-74 17 -102 62 -103 113c0 41 7 89 7 129
c0 31 -13 58 -84 70c-7 1 -7 2 -7 7v85c0 6 2 8 8 8c135 -5 203 -66 203 -162c0 -48 -7 -73 -7 -121c0 -53 23 -79 103 -79z" />
    <glyph glyph-name="slash.sc" horiz-adv-x="330" 
d="M305 559l-147 -592c-2 -6 -5 -6 -9 -6h-114c-5 0 -9 2 -7 8l146 590c1 4 4 6 8 6h118c4 0 6 -2 5 -6z" />
    <glyph glyph-name="at.sc" horiz-adv-x="816" 
d="M427 101l45 215c-4 2 -14 4 -22 4c-68 0 -109 -56 -109 -127c0 -57 29 -87 86 -92zM449 568c170 0 310 -105 310 -280s-130 -283 -310 -283c-115 0 -220 50 -220 182c0 136 118 222 247 222c42 0 88 -8 110 -20c2 -2 4 -3 3 -8l-56 -279c51 10 128 59 128 181
c0 127 -85 198 -220 198c-160 0 -280 -111 -280 -288c0 -112 39 -189 138 -240c5 -3 6 -5 7 -9v-96c-1 -5 -5 -6 -8 -4c-168 67 -241 193 -241 343c0 224 168 381 392 381z" />
    <glyph glyph-name="zero.oldstyle" horiz-adv-x="689" 
d="M348 536c171 0 262 -128 262 -271c0 -169 -110 -275 -266 -275c-187 0 -266 134 -266 271c0 159 103 275 270 275zM342 422c-64 0 -112 -59 -112 -154c0 -89 41 -160 117 -160c61 0 111 50 111 152c0 89 -35 162 -116 162z" />
    <glyph glyph-name="one.oldstyle" 
d="M162 10v388c-33 -11 -57 -14 -80 -18c-8 -1 -10 1 -10 8v84c0 6 2 8 8 9c43 10 89 25 130 42c2 2 10 4 15 4h80c5 0 7 -2 7 -8v-509c0 -7 -3 -10 -10 -10h-130c-7 0 -10 3 -10 10z" />
    <glyph glyph-name="two.oldstyle" horiz-adv-x="559" 
d="M461 0h-389c-6 0 -7 2 -7 6v76c0 3 1 6 5 9c22 16 77 55 131 96c88 67 111 106 111 147s-26 81 -96 81c-47 0 -93 -14 -140 -41c-5 -4 -8 1 -8 6v98c0 5 1 9 6 11c54 33 119 47 180 47c139 0 202 -93 202 -180c0 -76 -41 -130 -92 -175c-35 -30 -63 -53 -86 -70l218 4
c4 0 7 -3 5 -8l-29 -99c-2 -6 -3 -8 -11 -8z" />
    <glyph glyph-name="three.oldstyle" horiz-adv-x="568" 
d="M153 176v100c0 5 1 8 8 8h64c58 0 90 20 90 65c0 39 -28 66 -93 66c-45 0 -96 -15 -136 -38c-6 -4 -10 0 -10 5v101c0 7 1 9 6 11c45 26 104 42 173 42c129 0 204 -71 204 -164c0 -67 -39 -107 -95 -131v-1c61 -17 124 -62 124 -149c0 -115 -103 -177 -241 -177
c-56 0 -125 11 -168 37c-4 3 -5 7 -5 13v105c0 6 4 9 9 6c48 -25 105 -41 153 -41c73 0 101 28 101 67c0 45 -37 67 -109 67h-67c-5 0 -8 2 -8 8z" />
    <glyph glyph-name="four.oldstyle" horiz-adv-x="644" 
d="M55 88v69c0 5 2 9 6 16c53 78 207 269 272 348c3 4 7 6 14 6h119c7 0 8 -2 8 -8v-336h108c6 0 8 -2 7 -8l-12 -89c-1 -6 -3 -7 -10 -7h-93v-138c0 -8 -2 -10 -9 -11c-42 -4 -122 -12 -129 -12c-5 0 -9 2 -9 10v151h-265c-6 0 -7 4 -7 9zM187 181h140c0 116 1 155 3 191
h-1c-39 -53 -96 -124 -142 -191z" />
    <glyph glyph-name="five.oldstyle" horiz-adv-x="561" 
d="M180 526h282c6 0 9 -2 7 -9l-29 -101c-2 -6 -4 -8 -11 -8h-176c-6 -12 -25 -67 -31 -87c165 -29 260 -83 260 -207c0 -133 -106 -199 -245 -199c-65 0 -128 15 -164 37c-5 4 -7 8 -7 14l-1 107c0 7 5 8 9 6c50 -27 116 -44 166 -44c61 0 94 24 94 66
c0 53 -51 77 -238 107c-6 1 -9 2 -9 10l-1 53c10 48 85 249 85 249c2 5 5 6 9 6z" />
    <glyph glyph-name="six.oldstyle" horiz-adv-x="656" 
d="M325 312c-25 0 -56 -8 -79 -23c-6 -4 -8 -7 -11 -13c-5 -13 -7 -33 -7 -48c0 -83 45 -123 100 -123c64 0 98 47 98 102c0 60 -31 105 -101 105zM511 639v-114c0 -6 -1 -8 -7 -9c-115 -26 -186 -64 -223 -111c24 9 47 17 84 17c119 0 213 -77 213 -206
c0 -105 -73 -226 -252 -226c-159 0 -249 108 -249 249c0 231 222 373 425 405c5 1 8 0 9 -5z" />
    <glyph glyph-name="seven.oldstyle" horiz-adv-x="577" 
d="M84 527h428c5 0 7 -1 7 -6v-75c0 -6 -3 -12 -4 -15c-39 -95 -184 -408 -235 -509c-3 -5 -5 -5 -10 -5h-141c-5 0 -7 5 -5 9c51 97 221 442 237 482h-297c-5 0 -7 2 -6 9l19 104c1 4 2 6 7 6z" />
    <glyph glyph-name="eight.oldstyle" horiz-adv-x="629" 
d="M309 534c-56 0 -85 -37 -85 -84c0 -30 14 -56 33 -69c8 -6 17 -9 28 -9h52c11 0 20 2 28 9c18 15 29 40 29 70c0 52 -36 83 -85 83zM308 95c58 0 91 35 91 82c0 38 -20 61 -39 73c-6 7 -11 10 -21 10h-61c-10 0 -18 -2 -24 -7c-23 -15 -40 -39 -40 -73
c0 -45 34 -85 94 -85zM311 638c158 0 219 -98 219 -177c0 -61 -22 -108 -74 -141c60 -31 90 -80 90 -142c0 -126 -111 -188 -240 -188c-130 0 -235 70 -235 182c0 53 22 103 93 142c-50 32 -80 79 -80 145c0 96 84 179 227 179z" />
    <glyph glyph-name="nine.oldstyle" horiz-adv-x="660" 
d="M166 -98l-1 112c0 5 1 8 7 9c84 14 169 46 214 106c-27 -14 -53 -22 -96 -22c-125 0 -210 80 -210 201c0 122 90 228 252 228c155 0 248 -108 248 -259c0 -236 -206 -357 -406 -382c-6 -1 -8 2 -8 7zM338 219c30 0 61 9 80 24c5 3 9 6 10 14c2 10 4 24 4 44
c0 75 -36 122 -102 122c-56 0 -98 -41 -98 -103c0 -59 35 -101 106 -101z" />
    <glyph glyph-name="dollar.oldstyle" horiz-adv-x="620" 
d="M245 526v66c0 4 3 5 6 5h114c4 0 4 0 4 -3v-65c34 -1 93 -13 120 -31c3 -3 4 -4 4 -9v-112c0 -5 -2 -5 -6 -4c-38 20 -113 49 -182 49c-50 0 -62 -21 -62 -33c0 -23 22 -35 111 -64c145 -48 174 -94 174 -166c0 -100 -85 -147 -159 -155v-69c0 -4 -2 -4 -6 -4h-114
c-4 0 -4 2 -4 5v65c-39 4 -97 15 -142 43c-6 3 -6 6 -6 13v110c0 4 3 7 7 5c65 -36 136 -60 202 -60c53 0 71 15 71 34c1 21 -12 33 -105 63c-127 42 -178 82 -178 164c0 66 46 133 151 153z" />
    <glyph glyph-name="cent.oldstyle" horiz-adv-x="620" 
d="M421 3v-85c0 -6 -1 -8 -8 -8h-98c-7 0 -9 3 -9 9v85c-122 17 -204 102 -204 233c0 125 94 210 205 230v82c0 5 1 7 7 7h100c4 0 7 0 7 -5v-80c26 0 68 -9 89 -19c4 -2 5 -5 5 -10l-1 -107c0 -6 -3 -9 -8 -6c-31 15 -79 25 -123 25c-79 0 -134 -43 -134 -118
c0 -88 70 -118 135 -118c48 0 86 10 126 28c5 3 8 -1 8 -5v-101c0 -5 -2 -9 -7 -12c-26 -15 -64 -23 -90 -25z" />
    <glyph glyph-name="Euro.oldstyle" horiz-adv-x="620" 
d="M554 128v-99c0 -6 -2 -10 -7 -12c-31 -15 -80 -26 -140 -26c-156 0 -257 83 -284 207h-52c-4 0 -5 1 -5 5v49c0 4 2 5 5 5h43c0 14 0 25 1 38h-43c-4 0 -6 1 -6 5v49c0 4 2 5 5 5h54c33 120 138 203 285 203c64 0 105 -8 133 -20c5 -3 7 -4 7 -11v-97c0 -7 -3 -9 -7 -7
c-26 10 -66 20 -117 20c-89 0 -138 -39 -154 -88h203c2 0 5 -1 5 -5v-49c0 -4 -2 -5 -5 -5h-216c-2 -12 -1 -27 -1 -38h217c4 0 5 -1 5 -5v-49c0 -4 -2 -5 -6 -5h-205c18 -57 79 -90 157 -90c44 0 83 8 121 24c2 1 7 2 7 -4z" />
    <glyph glyph-name="florin.oldstyle" horiz-adv-x="620" 
d="M158 251v75c0 8 4 9 8 9h86l8 52c13 73 59 192 202 192c29 0 55 -3 77 -12c8 -4 9 -7 9 -11v-97c0 -5 -2 -7 -6 -5c-16 7 -39 11 -64 11c-45 0 -72 -35 -81 -93l-5 -37h96c5 0 9 -2 9 -8v-75c0 -8 -4 -9 -9 -9h-108l-24 -180c-13 -108 -61 -190 -186 -190
c-45 1 -72 7 -90 16c-6 3 -8 6 -8 13v93c0 6 4 9 9 7c29 -12 55 -15 71 -15c44 0 60 25 67 82l21 174h-74c-5 0 -8 1 -8 8z" />
    <glyph glyph-name="sterling.oldstyle" horiz-adv-x="620" 
d="M507 0h-417c-6 0 -8 2 -8 7v73c0 5 1 9 7 10c72 22 92 63 92 116c0 7 0 13 -1 18h-76c-8 0 -9 2 -9 7v79c0 5 3 5 9 5h71c0 10 -1 23 -1 36c0 125 82 208 212 208c46 0 92 -7 113 -19c4 -2 5 -5 5 -10v-98c0 -6 -3 -9 -9 -6c-23 11 -58 18 -88 18c-69 0 -98 -40 -98 -105
v-24h134c5 0 7 0 7 -4v-81c0 -3 -1 -6 -6 -6h-133c-5 -52 -18 -88 -55 -115h272c6 0 9 -1 8 -8l-17 -90c-2 -9 -5 -11 -12 -11z" />
    <glyph glyph-name="yen.oldstyle" horiz-adv-x="620" 
d="M374 0h-136c-6 1 -7 4 -7 8v97h-119c-5 0 -6 1 -6 6v63c0 5 1 7 8 7h117v49h-119c-4 0 -6 1 -6 7v63c0 4 1 5 6 5h102l-166 237c-3 3 -2 8 4 8h147c8 0 10 -3 13 -7c83 -145 92 -163 102 -183h2c10 20 19 38 99 183c3 5 6 7 11 7h141c7 0 8 -3 5 -8l-171 -237h103
c3 0 5 -2 5 -5v-64c0 -3 0 -6 -5 -6h-123v-49h122c5 0 6 -1 6 -6v-63c0 -5 -1 -7 -6 -7h-122v-97c0 -7 -2 -8 -7 -8z" />
    <glyph glyph-name="lira.oldstyle" horiz-adv-x="620" 
d="M174 347h-70h70zM181 245c0 14 0 31 -1 35h-76c-8 0 -9 1 -9 7v52c0 5 3 8 9 8h70v13c0 118 81 199 211 199c48 0 89 -8 110 -19c7 -4 9 -6 9 -14v-94c0 -7 -5 -10 -10 -7c-24 11 -58 19 -87 19c-75 0 -98 -43 -98 -84v-13h134c5 0 7 -2 7 -7v-54c0 -3 -1 -6 -6 -6h-132
c0 -9 0 -24 -1 -35h132c5 0 7 -1 7 -6v-54c0 -4 -1 -6 -6 -6h-144c-4 -27 -21 -53 -44 -70h273c5 0 8 -1 7 -7l-18 -95c-1 -7 -3 -7 -9 -7h-422c-4 0 -5 3 -5 6v80c0 5 3 8 7 9c56 13 81 51 90 84h-75c-7 0 -9 1 -9 7v52c0 5 3 7 9 7h77z" />
    <glyph glyph-name="R_p.oldstyle" horiz-adv-x="1049" 
d="M242 452v-149h51c66 0 88 34 88 77c0 50 -33 72 -90 73c-12 0 -42 0 -49 -1zM101 535c0 6 2 8 7 8c24 1 113 3 196 3c119 0 214 -46 214 -158c0 -74 -34 -116 -104 -145c-2 -1 120 -170 155 -207v278c0 13 -3 42 -4 51c-1 6 0 9 5 11c47 12 125 29 199 29
c143 0 216 -90 216 -198c0 -139 -104 -213 -231 -216c-10 0 -33 1 -46 7l-2 -160c0 -5 -1 -8 -6 -9l-123 -10c-5 0 -8 1 -8 8v173h-132c-6 0 -10 4 -14 8c-25 31 -84 134 -117 186c-7 14 -13 14 -23 14h-41v-200c0 -6 -4 -8 -8 -8h-127c-5 0 -6 3 -6 8v527zM759 305
c-16 0 -39 -2 -53 -8v-202c17 -6 37 -10 53 -10c44 0 86 34 86 113c0 70 -38 107 -86 107z" />
    <glyph glyph-name="colonmonetary.oldstyle" horiz-adv-x="620" 
d="M347 430c-72 -8 -128 -63 -128 -150c0 -64 18 -105 65 -133zM477 597h35c3 0 4 -2 3 -4l-12 -58c12 -3 27 -7 36 -12c4 -2 5 -4 5 -9v-105c0 -5 -4 -8 -8 -6c-15 6 -36 15 -54 18l-65 -300c32 -2 78 9 121 29c4 2 6 1 6 -5v-97c0 -6 -1 -9 -6 -12
c-33 -19 -88 -35 -147 -36l-8 -40c-1 -5 -2 -7 -7 -7h-33c-3 0 -6 1 -5 7l9 41c-11 0 -32 2 -46 6l-11 -48c-1 -5 -3 -6 -7 -6h-33c-5 0 -6 2 -5 7l13 57c-123 37 -184 130 -184 255c0 148 109 267 296 277l8 44c0 2 3 4 6 4h37c3 0 3 -3 3 -6l-10 -43c13 0 34 -1 47 -3
l10 48c0 2 2 4 6 4zM438 429c-18 3 -25 3 -46 3l-66 -302c13 -5 33 -7 44 -9z" />
    <glyph glyph-name="franc.oldstyle" horiz-adv-x="620" 
d="M88 167h50v368c0 6 3 8 10 8h371c6 0 7 -1 8 -6l12 -95c1 -6 0 -8 -6 -8h-249v-106h217c9 0 12 -3 12 -8v-89c0 -8 -5 -11 -12 -11h-217v-53h83c8 0 10 -1 10 -9v-65c0 -8 -2 -9 -11 -9h-82v-76c-1 -7 -3 -8 -11 -8h-127c-5 0 -8 3 -8 7v77h-48c-7 0 -10 1 -10 9v65
c0 8 2 9 8 9z" />
    <glyph glyph-name="peseta.oldstyle" horiz-adv-x="1147" 
d="M477 382h63v96c0 3 2 8 5 8c55 1 67 4 112 21c6 2 9 -1 9 -5v-120h88c6 0 7 -2 7 -7v-78c0 -5 -1 -7 -6 -8l-90 -4v-136c0 -36 18 -53 49 -53c19 0 44 7 76 29c3 2 5 3 10 0c46 -24 84 -39 125 -39c27 0 37 13 37 23c0 14 -10 22 -53 38c-87 33 -125 62 -125 125
c0 65 59 119 155 119c52 0 94 -13 119 -26c7 -4 7 -10 7 -15l-1 -75c0 -6 -4 -10 -10 -7c-26 12 -72 30 -115 30c-27 0 -39 -12 -39 -21c0 -13 12 -19 55 -36c95 -34 132 -66 132 -124c0 -93 -90 -125 -160 -125c-44 0 -94 9 -131 33c-25 -18 -66 -34 -121 -34
c-72 0 -136 35 -136 125v169l-69 5c-24 -78 -91 -123 -201 -123c-10 0 -28 0 -47 2v-161c0 -7 -3 -8 -9 -8h-114c-6 0 -9 3 -9 8v509c0 4 3 5 6 5c49 2 114 4 161 4c150 0 211 -69 220 -144zM222 427v-158c9 -2 26 -3 40 -3c49 0 94 18 94 80c0 50 -28 82 -97 82
c-10 0 -29 0 -37 -1z" />
    <glyph glyph-name="uni20B4.oldstyle" horiz-adv-x="620" 
d="M380 253h152c3 0 5 -1 5 -6v-47c0 -5 -3 -6 -7 -6h-247c-25 -16 -35 -27 -35 -44c0 -20 22 -44 74 -44c67 0 124 13 184 48c6 3 6 -2 6 -5v-99c0 -4 -2 -8 -7 -12c-44 -29 -114 -47 -179 -47c-124 0 -217 53 -217 148c0 21 5 39 18 55h-37c-5 0 -7 0 -7 5v48c0 6 4 6 6 6
h79c15 12 46 31 58 39h-136c-5 0 -7 1 -7 6v48c0 5 4 6 6 6h235c33 17 48 34 48 53c0 28 -26 45 -78 45c-58 0 -106 -19 -154 -43c-3 -2 -7 0 -7 4v97c0 6 0 7 6 11c36 20 103 40 166 40c151 0 196 -77 196 -139c0 -34 -13 -52 -28 -68h57c2 0 7 -1 7 -6v-48
c0 -6 -5 -6 -6 -6h-95c-15 -10 -36 -27 -56 -39z" />
    <glyph glyph-name="uni20B1.oldstyle" horiz-adv-x="626" 
d="M512 415h39c3 0 4 -1 4 -4v-36c0 -4 -1 -4 -5 -4h-31c0 -11 1 -24 -1 -31h33c3 0 4 -1 4 -4v-36c0 -3 -1 -4 -5 -4h-40c-26 -103 -119 -145 -217 -145c-12 0 -33 1 -53 2v-146c0 -4 -2 -7 -7 -7h-115c-7 0 -7 3 -7 8v288h-44c-3 0 -5 2 -5 5v34c0 5 2 5 5 5h44v31h-44
c-4 0 -5 1 -5 5v34c0 4 2 5 5 5h44v133c0 5 2 6 6 6c24 1 110 4 161 4c152 0 214 -70 234 -143zM240 340h151c1 10 2 20 0 31h-151v-31zM240 296v-50c13 -1 32 -1 45 -1c46 0 84 12 98 51h-143zM240 415h141c-14 34 -49 49 -96 49c-19 0 -35 -1 -45 -2v-47z" />
    <glyph glyph-name="uni20B5.oldstyle" horiz-adv-x="620" 
d="M295 127v1l69 310c-80 -1 -143 -62 -143 -165c0 -82 32 -125 74 -146zM400 106c55 0 91 12 122 26c5 2 9 0 9 -5v-94c0 -5 -2 -9 -8 -12c-32 -17 -80 -29 -144 -29c-5 0 -13 0 -22 2l-8 -45c-1 -2 -3 -3 -6 -3h-80c-2 0 -4 0 -4 4l11 55c-110 30 -191 122 -191 262
c0 162 125 280 305 281l9 42c0 1 2 4 6 4h80c3 0 3 -3 3 -4l-10 -48c18 -2 38 -6 54 -15c3 -3 4 -4 4 -9v-97c0 -5 -3 -9 -8 -6c-20 9 -44 18 -71 21l-72 -328c8 -1 16 -2 21 -2z" />
    <glyph glyph-name="numbersign.oldstyle" horiz-adv-x="620" 
d="M180 -38h-77c-6 0 -8 2 -6 7l42 146h-69c-5 0 -7 1 -7 8v88c0 5 3 6 6 6h98l22 84h-71c-2 0 -4 0 -4 5v93c0 3 1 4 5 4h100l37 130c2 6 3 7 9 7h77c4 0 5 -2 4 -7l-35 -130h81l36 132c1 4 3 5 6 5h80c5 0 6 -2 5 -6l-37 -131h69c5 0 6 -1 6 -6v-90c0 -5 -2 -6 -7 -6h-97
l-22 -84h67c5 0 6 -1 6 -6v-91c0 -5 -4 -5 -6 -5h-94l-41 -145c-2 -5 -3 -8 -9 -8h-76c-6 0 -9 3 -6 8l39 145h-81l-41 -147c-1 -3 -3 -6 -9 -6zM281 301l-23 -84h82l24 84h-83z" />
    <glyph glyph-name="percent.oldstyle" horiz-adv-x="934" 
d="M238 559c119 0 176 -70 176 -167c0 -76 -57 -165 -176 -165c-123 0 -175 76 -175 162c0 109 83 170 175 170zM178 393c0 -44 21 -82 64 -82c35 0 56 32 56 79c0 55 -20 86 -60 86c-36 0 -60 -35 -60 -83zM695 322c118 0 176 -70 176 -167c0 -77 -57 -165 -176 -165
c-123 0 -176 76 -176 162c0 109 84 170 176 170zM635 156c0 -44 21 -82 63 -82c36 0 57 31 57 79c0 54 -20 86 -60 86c-36 0 -60 -35 -60 -83zM716 542l-399 -536c-5 -6 -6 -6 -15 -6h-86c-4 0 -9 4 -4 10l404 535c3 4 5 5 10 5h87c5 0 5 -5 3 -8z" />
    <glyph glyph-name="perthousand.oldstyle" horiz-adv-x="1317" 
d="M1078 322c119 0 176 -70 176 -167c0 -77 -57 -165 -176 -165c-123 0 -176 76 -176 162c0 109 83 170 176 170zM1018 156c0 -44 21 -82 63 -82c36 0 57 31 57 79c0 54 -20 86 -60 86c-36 0 -60 -35 -60 -83zM238 559c119 0 176 -70 176 -167c0 -76 -57 -165 -176 -165
c-123 0 -175 76 -175 162c0 109 83 170 175 170zM178 393c0 -44 21 -82 64 -82c35 0 56 32 56 79c0 55 -20 86 -60 86c-36 0 -60 -35 -60 -83zM695 322c118 0 176 -70 176 -167c0 -77 -57 -165 -176 -165c-123 0 -176 76 -176 162c0 109 84 170 176 170zM635 156
c0 -44 21 -82 63 -82c36 0 57 31 57 79c0 54 -20 86 -60 86c-36 0 -60 -35 -60 -83zM716 542l-399 -536c-5 -6 -6 -6 -15 -6h-86c-4 0 -9 4 -4 10l404 535c3 4 5 5 10 5h87c5 0 5 -5 3 -8z" />
    <glyph glyph-name="currency.oldstyle" horiz-adv-x="620" 
d="M215 267c0 -83 50 -110 94 -110c46 0 94 24 94 110c0 62 -32 111 -95 111c-56 0 -93 -43 -93 -111zM107 267c0 48 14 80 30 103l-79 75c-2 3 -3 6 0 10l58 60c4 4 8 3 11 -1l76 -75c28 18 60 30 105 30c46 0 78 -11 107 -30l77 73c3 3 7 4 10 0l57 -58c4 -4 3 -6 -1 -9
l-76 -75c15 -23 30 -57 30 -104c0 -52 -13 -78 -30 -105l74 -72c3 -3 4 -6 0 -11l-57 -55c-4 -4 -8 -3 -12 1l-69 72c-23 -17 -63 -31 -109 -31c-50 0 -85 13 -110 30l-66 -72c-5 -4 -8 -6 -13 -1l-56 53c-6 5 -6 8 -1 13l73 72c-17 25 -29 54 -29 107z" />
    <glyph glyph-name="zero.taboldstyle" horiz-adv-x="620" 
d="M313 536c167 0 253 -128 253 -271c0 -169 -102 -275 -256 -275c-181 0 -257 134 -257 271c0 159 98 274 260 275zM307 422c-61 0 -101 -59 -101 -154c0 -89 34 -160 107 -160c58 0 101 50 101 152c0 89 -28 162 -107 162z" />
    <glyph glyph-name="one.taboldstyle" horiz-adv-x="620" 
d="M280 10v388c-33 -11 -57 -14 -80 -18c-8 -1 -10 1 -10 8v84c0 6 2 8 8 9c43 10 89 25 130 42c2 2 10 4 15 4h80c5 0 7 -2 7 -8v-509c0 -7 -3 -10 -10 -10h-130c-7 0 -10 3 -10 10z" />
    <glyph glyph-name="two.taboldstyle" horiz-adv-x="620" 
d="M487 0h-389c-6 0 -7 2 -7 6v76c0 3 1 6 5 9c22 16 77 55 131 96c88 67 111 106 111 147s-26 81 -96 81c-47 0 -93 -14 -140 -41c-5 -4 -8 1 -8 6v98c0 5 1 9 6 11c54 33 119 47 180 47c139 0 202 -93 202 -180c0 -76 -41 -130 -92 -175c-35 -30 -63 -53 -86 -70l218 4
c4 0 7 -3 5 -8l-29 -99c-2 -6 -3 -8 -11 -8z" />
    <glyph glyph-name="three.taboldstyle" horiz-adv-x="620" 
d="M182 176v100c0 5 1 8 8 8h64c58 0 90 20 90 65c0 39 -28 66 -93 66c-45 0 -96 -15 -136 -38c-6 -4 -10 0 -10 5v101c0 7 1 9 6 11c45 26 104 42 173 42c129 0 204 -71 204 -164c0 -67 -39 -107 -95 -131v-1c61 -17 124 -62 124 -149c0 -115 -103 -177 -241 -177
c-56 0 -125 11 -168 37c-4 3 -5 7 -5 13v105c0 6 4 9 9 6c48 -25 105 -41 153 -41c73 0 101 28 101 67c0 45 -37 67 -109 67h-67c-5 0 -8 2 -8 8z" />
    <glyph glyph-name="four.taboldstyle" horiz-adv-x="620" 
d="M43 88v69c0 5 2 9 6 16c53 78 207 269 272 348c3 4 7 6 14 6h119c7 0 8 -2 8 -8v-336h108c6 0 8 -2 7 -8l-12 -89c-1 -6 -3 -7 -10 -7h-93v-138c0 -8 -2 -10 -9 -11c-42 -4 -122 -12 -129 -12c-5 0 -9 2 -9 10v151h-265c-6 0 -7 4 -7 9zM175 181h140c0 116 1 155 3 191
h-1c-39 -53 -96 -124 -142 -191z" />
    <glyph glyph-name="five.taboldstyle" horiz-adv-x="620" 
d="M216 526h282c6 0 9 -2 7 -9l-29 -101c-2 -6 -4 -8 -11 -8h-176c-6 -12 -25 -67 -31 -87c165 -29 260 -83 260 -207c0 -133 -106 -199 -245 -199c-65 0 -128 15 -164 37c-5 4 -7 8 -7 14l-1 107c0 7 5 8 9 6c50 -27 116 -44 166 -44c61 0 94 24 94 66
c0 53 -51 77 -238 107c-6 1 -9 2 -9 10l-1 53c10 48 85 249 85 249c2 5 5 6 9 6z" />
    <glyph glyph-name="six.taboldstyle" horiz-adv-x="620" 
d="M307 312c-25 0 -56 -8 -79 -23c-6 -4 -8 -7 -11 -13c-5 -13 -7 -33 -7 -48c0 -83 45 -123 100 -123c64 0 98 47 98 102c0 60 -31 105 -101 105zM493 639v-114c0 -6 -1 -8 -7 -9c-115 -26 -186 -64 -223 -111c24 9 47 17 84 17c119 0 213 -77 213 -206
c0 -105 -73 -226 -252 -226c-159 0 -249 108 -249 249c0 231 222 373 425 405c5 1 8 0 9 -5z" />
    <glyph glyph-name="seven.taboldstyle" horiz-adv-x="620" 
d="M106 527h428c5 0 7 -1 7 -6v-75c0 -6 -3 -12 -4 -15c-39 -95 -184 -408 -235 -509c-3 -5 -5 -5 -10 -5h-141c-5 0 -7 5 -5 9c51 97 221 442 237 482h-297c-5 0 -7 2 -6 9l19 104c1 4 2 6 7 6z" />
    <glyph glyph-name="eight.taboldstyle" horiz-adv-x="620" 
d="M311 534c-56 0 -85 -37 -85 -84c0 -30 14 -56 33 -69c8 -6 17 -9 28 -9h52c11 0 20 2 28 9c18 15 29 40 29 70c0 52 -36 83 -85 83zM310 95c58 0 91 35 91 82c0 38 -20 61 -39 73c-6 7 -11 10 -21 10h-61c-10 0 -18 -2 -24 -7c-23 -15 -40 -39 -40 -73
c0 -45 34 -85 94 -85zM313 638c158 0 219 -98 219 -177c0 -61 -22 -108 -74 -141c60 -31 90 -80 90 -142c0 -126 -111 -188 -240 -188c-130 0 -235 70 -235 182c0 53 22 103 93 142c-50 32 -80 79 -80 145c0 96 84 179 227 179z" />
    <glyph glyph-name="nine.taboldstyle" horiz-adv-x="620" 
d="M146 -98l-1 112c0 5 1 8 7 9c84 14 169 46 214 106c-27 -14 -53 -22 -96 -22c-125 0 -210 80 -210 201c0 122 90 228 252 228c155 0 248 -108 248 -259c0 -236 -206 -357 -406 -382c-6 -1 -8 2 -8 7zM318 219c30 0 61 9 80 24c5 3 9 6 10 14c2 10 4 24 4 44
c0 75 -36 122 -102 122c-56 0 -98 -41 -98 -103c0 -59 35 -101 106 -101z" />
    <glyph glyph-name="zero.slashfitted" horiz-adv-x="618" 
d="M314 95c76 0 114 74 114 214c0 45 -5 80 -16 105l-165 -288c20 -23 41 -31 67 -31zM308 528c-61 0 -116 -52 -116 -218c0 -29 5 -66 16 -93l162 285c-16 18 -37 26 -62 26zM310 630c203 -1 259 -183 259 -319c0 -166 -68 -321 -258 -321c-188 0 -262 142 -262 321
c0 181 93 319 261 319z" />
    <glyph glyph-name="zero.fitted" horiz-adv-x="670" 
d="M334 521c-64 0 -104 -65 -104 -211c0 -126 33 -211 109 -211s102 84 102 210c0 135 -29 212 -107 212zM337 -10c-189 0 -262 144 -262 321c0 178 94 319 261 319c204 -1 259 -185 259 -320c0 -163 -69 -320 -258 -320z" />
    <glyph glyph-name="one.fitted" horiz-adv-x="421" 
d="M156 9v482c-33 -8 -74 -15 -94 -17c-6 0 -9 1 -9 8v86c0 5 2 8 7 9c38 7 99 22 140 40c2 1 9 3 15 3h84c6 0 7 -2 7 -8v-602c0 -7 -1 -10 -9 -10h-132c-7 0 -9 3 -9 9z" />
    <glyph glyph-name="two.fitted" horiz-adv-x="616" 
d="M520 0h-439c-7 0 -8 5 -8 9v74c0 6 1 8 5 11c41 33 104 82 191 161c77 67 95 110 95 155c0 59 -38 94 -114 94c-55 0 -114 -19 -162 -45c-4 -3 -8 -1 -8 5v101c0 8 1 10 10 14c46 26 115 51 200 51c149 0 227 -91 227 -198c0 -82 -31 -137 -99 -202
c-60 -59 -105 -92 -132 -115c52 0 180 3 265 3c5 0 7 -3 6 -8l-25 -100c-2 -7 -4 -10 -12 -10z" />
    <glyph glyph-name="three.fitted" horiz-adv-x="603" 
d="M175 261v101c0 6 2 9 9 9h79c68 0 95 26 95 66c0 46 -40 74 -114 74c-50 0 -109 -17 -160 -45c-6 -3 -10 -1 -10 6v96c0 7 2 9 7 12c55 32 126 50 201 50c135 0 223 -71 223 -166c0 -75 -43 -114 -98 -138v-1c65 -15 130 -56 130 -142c0 -123 -117 -193 -262 -193
c-81 0 -148 14 -198 42c-8 4 -9 7 -9 15v108c0 6 5 7 10 5c64 -33 128 -51 184 -51c87 0 118 33 118 75c0 47 -44 69 -114 69h-81c-7 0 -10 2 -10 8z" />
    <glyph glyph-name="four.fitted" horiz-adv-x="623" 
d="M50 161v64c0 9 1 11 4 16c49 72 226 308 278 370c8 8 11 9 18 9h115c6 0 8 -2 8 -8v-360h99c4 0 7 -2 6 -9l-15 -81c-1 -8 -4 -9 -12 -9h-78v-146c0 -6 -1 -7 -7 -7h-133c-5 0 -7 2 -7 7v146l-269 1c-6 0 -7 2 -7 7zM180 252h146v63c0 66 1 115 3 150h-1
c-32 -45 -130 -183 -148 -213z" />
    <glyph glyph-name="five.fitted" horiz-adv-x="598" 
d="M185 620h312c5 0 7 -3 6 -8l-28 -100c-2 -9 -5 -10 -11 -10h-209c-5 -16 -23 -79 -28 -99c191 -20 299 -79 299 -209c0 -128 -106 -204 -263 -204c-63 0 -137 14 -185 40c-5 2 -8 6 -8 15v105c0 7 5 9 12 6c59 -28 123 -47 189 -47c74 0 104 28 104 68
c-1 70 -117 98 -275 107c-5 0 -8 1 -8 8l-1 47c8 42 86 276 86 276c1 4 4 5 8 5z" />
    <glyph glyph-name="six.fitted" horiz-adv-x="644" 
d="M320 302c-36 0 -71 -14 -85 -27c-3 -14 -5 -35 -5 -52c0 -84 40 -129 98 -129c59 0 91 42 91 102c0 71 -42 106 -99 106zM505 638v-104c0 -8 -2 -13 -8 -14c-140 -36 -196 -91 -228 -134c27 11 57 21 101 21c115 0 204 -80 204 -198c0 -114 -86 -219 -250 -219
c-160 0 -249 95 -249 243c0 234 234 374 420 413c7 1 10 0 10 -8z" />
    <glyph glyph-name="seven.fitted" horiz-adv-x="593" 
d="M64 620h464c6 0 7 -2 7 -6v-67c0 -5 -1 -8 -4 -15c-48 -118 -188 -394 -253 -525c-2 -4 -4 -7 -11 -7h-147c-6 0 -8 3 -5 9c213 406 235 452 259 493h-309c-4 0 -7 1 -7 6v107c0 4 1 5 6 5z" />
    <glyph glyph-name="eight.fitted" horiz-adv-x="635" 
d="M316 527c-56 0 -81 -39 -81 -82c0 -33 14 -57 33 -72c9 -7 16 -10 28 -10h45c11 0 18 3 24 8c21 15 34 44 34 75c0 48 -32 81 -83 81zM320 92c61 0 88 39 89 83c1 35 -18 59 -37 73c-7 7 -13 9 -26 9h-56c-12 0 -16 -2 -23 -8c-24 -14 -40 -42 -40 -70
c0 -48 34 -87 93 -87zM321 630c157 0 223 -94 223 -176c0 -62 -30 -107 -87 -139c73 -30 104 -82 104 -138c0 -117 -100 -187 -250 -187c-147 0 -237 78 -237 180c0 48 24 100 107 138c-61 31 -93 79 -93 144c0 95 86 178 233 178z" />
    <glyph glyph-name="nine.fitted" horiz-adv-x="639" 
d="M150 -19v112c0 6 1 8 6 9c92 24 174 69 215 131c-32 -17 -68 -22 -93 -22c-125 0 -208 77 -208 198s99 221 250 221c138 0 244 -89 244 -255c0 -223 -193 -371 -402 -400c-9 -2 -12 0 -12 6zM322 315c41 0 72 15 85 29c3 8 5 34 5 44c0 90 -35 138 -97 138
c-55 0 -93 -42 -93 -105c0 -70 47 -106 100 -106z" />
    <glyph glyph-name="dollar.fitted" horiz-adv-x="618" 
d="M368 14v-77c0 -5 -2 -6 -6 -6h-100c-5 0 -7 1 -7 7v71c-57 4 -116 19 -160 47c-5 4 -6 8 -6 16v112c0 5 4 8 8 5c74 -49 149 -68 205 -68c67 0 85 23 85 50c0 25 -26 46 -109 76c-146 53 -191 98 -191 193c0 77 58 151 168 171v71c0 5 2 7 7 7h99c5 0 7 -1 7 -7v-69
c56 -5 104 -18 130 -37c4 -2 5 -5 5 -10v-109c0 -5 -5 -7 -9 -4c-42 26 -102 49 -178 49c-73 0 -88 -31 -88 -51c0 -27 33 -47 123 -79c157 -55 185 -114 185 -190c0 -110 -100 -158 -168 -168z" />
    <glyph glyph-name="cent.fitted" horiz-adv-x="618" 
d="M421 81v-86c0 -6 -2 -7 -7 -7h-101c-6 0 -7 3 -7 8v86c-117 17 -206 102 -206 233c0 134 97 216 206 237v84c0 5 2 6 7 6h101c4 0 7 -1 7 -6v-79c22 0 68 -8 87 -19c5 -2 6 -5 6 -11l-1 -103c0 -6 -4 -9 -11 -6c-28 11 -66 21 -113 21c-85 0 -140 -45 -140 -119
c0 -91 79 -121 144 -121c48 0 84 8 117 22c5 1 7 -1 7 -7v-100c0 -6 -3 -9 -8 -11c-25 -14 -63 -20 -88 -22z" />
    <glyph glyph-name="sterling.fitted" horiz-adv-x="618" 
d="M520 0h-442c-4 0 -5 3 -5 7v82c0 5 1 7 5 8c74 22 101 80 101 144v15h-83c-5 0 -6 1 -6 7v82c0 5 1 7 7 7h75c-2 16 -2 38 -2 47c0 135 81 231 223 231c53 0 96 -9 114 -19c6 -3 6 -7 6 -12v-106c0 -5 -3 -6 -7 -5c-23 10 -49 17 -86 17c-74 0 -106 -47 -106 -121v-32
h136c5 0 7 -2 7 -7v-82c0 -6 -2 -7 -7 -7h-132c-4 -62 -26 -105 -66 -137h288c6 0 8 -3 7 -8l-17 -103c-1 -6 -4 -8 -10 -8z" />
    <glyph glyph-name="yen.fitted" horiz-adv-x="618" 
d="M370 0h-129c-6 0 -8 4 -8 10v125h-132c-5 0 -8 2 -8 8v66c0 5 1 7 7 7h133v60h-132c-5 0 -8 1 -8 8v63c0 6 3 7 8 7h111l-174 258c-3 4 -2 8 3 8h150c6 0 7 -1 9 -6l69 -126c16 -33 30 -60 44 -92h1c12 25 27 60 42 92l66 125c2 5 6 7 11 7h142c5 0 8 -3 4 -9l-171 -257
h106c4 0 7 -1 7 -6v-65c0 -5 -1 -7 -7 -7h-136v-60h136c6 0 7 -3 7 -7v-67c0 -5 -4 -7 -7 -7h-136v-126c0 -5 -2 -9 -8 -9z" />
    <glyph glyph-name="currency.fitted" horiz-adv-x="618" 
d="M214 314c0 -83 50 -110 94 -110c46 0 94 24 94 110c0 62 -32 111 -95 111c-56 0 -93 -43 -93 -111zM106 314c0 48 14 80 30 103l-79 75c-2 3 -3 6 0 10l58 60c4 4 8 3 11 -1l76 -75c28 18 60 30 105 30c46 0 78 -11 107 -30l77 73c3 3 7 4 10 0l57 -58c4 -4 3 -6 -1 -9
l-76 -75c15 -23 30 -57 30 -104c0 -52 -13 -78 -30 -105l74 -72c3 -3 4 -6 0 -11l-57 -55c-4 -4 -8 -3 -12 1l-69 72c-23 -17 -63 -31 -109 -31c-50 0 -85 13 -110 30l-66 -72c-5 -4 -8 -6 -13 -1l-56 53c-6 5 -6 8 -1 13l73 72c-17 25 -29 54 -29 107z" />
    <glyph glyph-name="Euro.fitted" horiz-adv-x="618" 
d="M544 127v-102c0 -5 -2 -9 -7 -11c-32 -17 -83 -25 -139 -25c-159 0 -257 87 -281 234h-49c-5 0 -7 1 -7 7v53c0 3 2 6 6 6h40c0 16 0 30 1 44h-40c-5 0 -7 1 -7 7v53c0 5 2 6 6 6h51c30 141 141 231 291 231c57 0 99 -9 127 -23c5 -3 7 -5 7 -13v-102c0 -7 -4 -9 -8 -6
c-24 12 -65 24 -114 24c-91 0 -141 -49 -158 -111h202c3 0 7 0 7 -6v-53c0 -7 -5 -7 -7 -7h-209c-2 -12 -1 -31 -1 -44h210c4 0 7 -1 7 -6v-53c0 -4 -1 -7 -7 -7h-200c16 -74 79 -112 159 -112c42 0 82 7 113 20c5 2 7 0 7 -4z" />
    <glyph glyph-name="franc.fitted" horiz-adv-x="618" 
d="M129 189v422c0 7 2 9 8 9h387c4 0 8 0 9 -5l11 -104c1 -6 -1 -9 -8 -9h-256v-132h227c8 0 9 -3 9 -9v-101c0 -7 -4 -8 -11 -8h-225v-63h95c6 0 8 -1 8 -7v-74c0 -5 -2 -8 -9 -8h-94v-92c0 -6 -4 -8 -9 -8h-133c-7 0 -9 3 -9 9v91h-55c-5 0 -8 2 -8 8v74c0 6 2 7 7 7h56z
" />
    <glyph glyph-name="lira.fitted" horiz-adv-x="618" 
d="M514 598v-102c0 -7 -3 -10 -10 -7c-21 9 -46 16 -83 16c-76 0 -104 -50 -105 -112h133c5 0 8 -1 8 -7v-55c0 -5 -2 -8 -8 -8h-132c0 -19 1 -37 -1 -51h133c5 0 8 -1 8 -7v-54c0 -5 -2 -8 -8 -8h-147c-7 -42 -22 -61 -48 -84h284c7 0 10 -2 9 -9l-17 -99
c-1 -8 -5 -11 -14 -11h-438c-4 0 -5 3 -5 7v80c0 5 1 9 8 10c70 17 92 77 93 106h-79c-5 0 -7 2 -7 9v53c0 6 3 7 7 7h84c0 8 0 44 -1 51h-83c-5 0 -7 3 -7 8v55c0 5 2 7 7 7h79v19c0 118 81 218 223 218c48 0 86 -7 109 -19c5 -3 8 -7 8 -13z" />
    <glyph glyph-name="uni20B4.fitted" horiz-adv-x="618" 
d="M360 286h169c5 0 7 -1 7 -6v-52c0 -5 -1 -7 -7 -7h-253c-21 -17 -35 -32 -35 -56c0 -26 25 -55 95 -55c68 0 123 16 169 46c5 3 7 -2 7 -6v-98c0 -8 -4 -12 -11 -17c-46 -31 -111 -45 -179 -45c-125 0 -219 58 -219 165c0 26 11 48 25 66h-45c-3 0 -5 0 -5 6v53
c0 6 3 6 5 6h95c16 14 49 35 63 43h-157c-4 0 -6 1 -6 7v53c0 6 3 6 5 6h243c27 18 46 35 46 64c0 32 -27 59 -81 59c-59 0 -109 -21 -156 -47c-3 -2 -8 1 -8 5v98c0 7 0 8 6 13c29 19 97 43 166 43c151 0 201 -85 201 -158c0 -38 -10 -57 -29 -77h59c2 0 6 0 6 -6v-53
c0 -7 -4 -7 -6 -7h-110c-15 -11 -40 -28 -60 -43z" />
    <glyph glyph-name="uni20B5.fitted" horiz-adv-x="618" 
d="M370 503c-86 -1 -144 -78 -144 -191c0 -87 31 -141 72 -167zM451 501l-74 -382c7 -2 16 -2 21 -2c55 0 101 10 136 29c4 1 6 0 6 -4v-99c0 -6 1 -9 -5 -13c-31 -20 -91 -33 -157 -33c-6 0 -13 0 -23 2l-9 -57c0 -3 -2 -4 -5 -4h-73c-3 0 -6 1 -5 4l12 66
c-113 35 -203 126 -203 297c0 184 135 314 318 316l9 47c0 2 3 5 7 5h72c4 0 4 -3 4 -5l-11 -55c19 -3 46 -7 62 -18c5 -2 5 -4 5 -10v-102c0 -5 -3 -7 -8 -4c-21 12 -53 20 -79 22z" />
    <glyph glyph-name="uni20B1.fitted" horiz-adv-x="618" 
d="M528 464h42c2 0 4 0 4 -3v-44c0 -3 -1 -4 -4 -4h-35c0 -12 0 -27 -1 -36h35c3 0 5 0 5 -3v-44c0 -3 -1 -4 -4 -4h-44c-27 -109 -132 -163 -235 -163c-28 0 -40 1 -51 2v-157c0 -5 -2 -8 -7 -8h-119c-6 0 -9 3 -9 9v317h-48c-3 0 -4 2 -4 6v41c0 3 1 4 4 4h48v36h-48
c-3 0 -4 0 -4 4v43c0 3 1 4 4 4h48v150c0 7 3 7 8 8c46 2 122 4 176 4c150 0 218 -78 239 -162zM240 377h160c0 10 1 27 0 36h-160v-36zM240 464h149c-12 39 -52 57 -101 57c-13 0 -38 -1 -48 -2v-55zM240 326v-57c12 -2 28 -2 45 -2c50 0 91 19 104 59h-149z" />
    <glyph glyph-name="a.superior" horiz-adv-x="425" 
d="M205 600c103 0 158 -57 158 -136l-1 -158c0 -6 -3 -7 -7 -9c-49 -15 -103 -25 -152 -25c-82 0 -159 25 -159 106c0 89 129 101 211 103v4c0 12 -11 33 -65 33c-35 0 -70 -6 -103 -18c-4 -1 -7 1 -7 6v67c0 3 1 4 3 5c38 16 83 22 122 22zM151 381c0 -20 17 -33 59 -33
c20 0 38 3 46 5v63c-40 -1 -105 -3 -105 -35z" />
    <glyph glyph-name="b.superior" horiz-adv-x="465" 
d="M260 600c98 0 156 -67 156 -151c0 -116 -88 -177 -205 -177c-40 0 -101 9 -144 29c-2 1 -5 3 -5 7v416c0 5 2 6 8 6h100c6 0 8 -1 8 -6v-141c25 12 56 17 82 17zM228 513c-20 0 -34 -6 -50 -14v-132c17 -7 27 -9 45 -9c42 0 76 27 76 78c0 56 -34 77 -71 77z" />
    <glyph glyph-name="c.superior" horiz-adv-x="383" 
d="M337 369v-68c1 -5 -2 -7 -7 -9c-27 -14 -58 -20 -99 -20c-116 0 -182 64 -182 162c0 105 86 166 195 166c40 0 68 -7 84 -14c6 -3 6 -6 6 -11l-1 -65c0 -5 -2 -8 -7 -6c-20 7 -43 11 -69 11c-62 0 -87 -35 -87 -79c0 -53 41 -77 87 -77c34 0 53 6 74 14c4 2 6 -1 6 -4z
" />
    <glyph glyph-name="d.superior" horiz-adv-x="466" 
d="M241 272c-111 0 -192 53 -192 164c0 99 79 164 201 164c16 0 31 -2 39 -4v128c0 4 3 6 7 6h101c5 0 7 -1 7 -6v-415c0 -3 -1 -6 -5 -8c-46 -20 -97 -29 -158 -29zM289 364v148c-8 4 -19 6 -38 6c-42 0 -84 -26 -84 -81c0 -56 36 -80 81 -80c16 0 31 2 41 7z" />
    <glyph glyph-name="e.superior" horiz-adv-x="431" 
d="M379 412c-10 -2 -28 -4 -93 -4h-127v-3c6 -25 28 -49 98 -49c37 0 71 7 102 18c4 1 7 0 7 -4v-62c0 -6 -1 -9 -4 -11c-37 -19 -86 -25 -126 -25c-133 0 -187 75 -187 163c0 91 63 165 178 165c109 0 159 -70 159 -144c0 -26 -3 -43 -7 -44zM161 475h92c20 0 25 1 27 3
c1 3 1 6 1 9c0 13 -14 43 -57 43c-38 0 -59 -22 -63 -55z" />
    <glyph glyph-name="egrave.superior" horiz-adv-x="431" 
d="M168 646l51 103c3 5 5 6 13 6h98c7 0 7 -4 4 -10l-67 -102c-3 -5 -6 -6 -13 -6h-81c-7 0 -7 5 -5 9zM379 412c-10 -2 -28 -4 -93 -4h-127v-3c6 -25 28 -49 98 -49c37 0 71 7 102 18c4 1 7 0 7 -4v-62c0 -6 -1 -9 -4 -11c-37 -19 -86 -25 -126 -25
c-133 0 -187 75 -187 163c0 91 63 165 178 165c109 0 159 -70 159 -144c0 -26 -3 -43 -7 -44zM161 475h92c20 0 25 1 27 3c1 3 1 6 1 9c0 13 -14 43 -57 43c-38 0 -59 -22 -63 -55z" />
    <glyph glyph-name="f.superior" horiz-adv-x="259" 
d="M70 513l-41 3c-5 0 -6 4 -6 6v66c0 4 2 5 7 5h40v14c0 90 55 127 130 127c23 0 40 -4 48 -7c2 -1 4 -3 4 -5v-67c0 -5 -3 -7 -5 -6c-6 2 -16 4 -25 4c-25 0 -37 -13 -37 -50v-10h58c4 0 5 -1 5 -5v-67c0 -4 0 -6 -6 -6l-57 -4v-226c0 -4 -2 -7 -7 -7h-101c-5 0 -7 2 -7 7
v228z" />
    <glyph glyph-name="g.superior" horiz-adv-x="420" 
d="M202 600c39 0 72 -6 95 -14c10 -3 13 -3 19 -3h75c6 0 6 -2 7 -6v-58c0 -6 -3 -7 -7 -7l-44 3c6 -11 7 -20 7 -31c0 -70 -62 -108 -144 -108h-11c-2 -4 -3 -5 -3 -10c0 -7 12 -15 14 -15c49 -1 103 -7 138 -21c36 -14 56 -38 56 -74c0 -77 -89 -123 -194 -123
c-92 0 -173 41 -173 109c0 36 44 68 87 90c0 1 -16 13 -15 33c1 14 9 22 7 22c-28 8 -70 36 -70 100c0 63 56 113 156 113zM306 239c0 10 -10 16 -25 21c-25 8 -75 11 -106 9c-10 -1 -42 -12 -42 -26c0 -17 29 -39 89 -39s84 18 84 35zM258 488c0 32 -24 45 -58 45
c-31 0 -55 -17 -55 -44c0 -28 21 -46 57 -46c35 0 56 15 56 45z" />
    <glyph glyph-name="h.superior" horiz-adv-x="463" 
d="M62 285v439c0 5 3 6 9 6h99c5 0 7 -2 7 -6v-153c34 21 64 29 102 29c58 0 121 -35 121 -133v-182c0 -6 -2 -7 -6 -7h-101c-6 0 -7 2 -7 8v168c0 37 -18 57 -50 57c-20 0 -40 -6 -59 -22v-203c0 -5 -2 -8 -7 -8h-101c-6 0 -7 3 -7 7z" />
    <glyph glyph-name="i.superior" horiz-adv-x="238" 
d="M120 632c-34 0 -57 19 -57 50s25 51 59 51s56 -20 56 -51s-22 -50 -58 -50zM62 287v298c0 6 3 8 9 8h99c5 0 7 -1 7 -7v-299c0 -8 -1 -9 -9 -9h-96c-9 0 -10 2 -10 9z" />
    <glyph glyph-name="j.superior" horiz-adv-x="247" 
d="M186 334c1 -100 -11 -136 -36 -165c-25 -28 -68 -36 -103 -36c-7 0 -21 1 -30 3c-5 1 -8 4 -8 8v68c0 6 2 8 7 8c50 0 55 16 55 64v303c0 5 3 6 9 6h100c5 0 6 -1 6 -6v-253zM127 632c-35 0 -58 19 -58 50s25 51 59 51s56 -20 56 -51s-22 -50 -57 -50z" />
    <glyph glyph-name="k.superior" horiz-adv-x="448" 
d="M62 725c0 4 1 5 6 5h103c5 0 6 -2 6 -6v-250h22c4 0 8 1 11 4c21 27 57 78 78 111c2 3 4 4 9 4h105c5 0 7 -4 3 -8c-22 -29 -87 -106 -111 -136c-2 -3 -1 -6 1 -8l136 -153c3 -5 0 -10 -5 -10h-122c-7 0 -10 3 -14 8l-83 107c-5 5 -6 6 -11 6h-19v-115c0 -4 -2 -6 -6 -6
h-102c-5 0 -7 2 -7 7v440z" />
    <glyph glyph-name="l.superior" horiz-adv-x="254" 
d="M70 724c0 5 2 6 7 6h101c5 0 6 -1 6 -6v-438c0 -5 -1 -8 -6 -8h-100c-5 0 -8 1 -8 7v439z" />
    <glyph glyph-name="m.superior" horiz-adv-x="697" 
d="M506 600c58 0 121 -36 121 -131v-183c0 -7 -3 -8 -9 -8h-96c-5 0 -9 2 -9 8v169c0 34 -16 55 -49 55c-20 0 -41 -8 -61 -26c1 -9 2 -17 2 -27v-171c0 -7 -4 -8 -9 -8h-96c-4 0 -8 2 -8 8v173c0 31 -16 51 -48 51c-23 0 -41 -8 -61 -26v-198c0 -5 -1 -8 -5 -8h-103
c-4 0 -6 3 -6 7v238c0 24 -2 51 -3 65c0 3 2 5 7 5h92c5 0 6 -2 8 -7c1 -1 5 -24 5 -27c37 28 72 41 113 41c40 0 72 -13 90 -45c43 31 79 45 125 45z" />
    <glyph glyph-name="n.superior" unicode="&#x207f;" horiz-adv-x="463" 
d="M63 285v231c0 24 -1 56 -3 71c0 5 3 6 8 6h91c5 0 8 -1 9 -5s3 -11 5 -25c39 27 72 37 109 37c50 0 119 -30 119 -134v-180c0 -7 -3 -8 -8 -8h-99c-6 0 -8 2 -8 8v170c0 36 -17 56 -46 56c-20 0 -42 -8 -63 -27v-199c0 -5 -1 -8 -6 -8h-101c-5 0 -7 3 -7 7z" />
    <glyph glyph-name="o.superior" horiz-adv-x="479" 
d="M243 600c128 0 186 -75 186 -162c0 -107 -75 -166 -188 -166c-141 0 -192 81 -192 164c0 95 73 164 194 164zM241 521c-41 0 -70 -31 -70 -83c0 -49 26 -84 71 -84c40 0 71 27 71 83c0 46 -20 84 -72 84z" />
    <glyph glyph-name="p.superior" horiz-adv-x="463" 
d="M230 600c119 0 182 -70 182 -157c0 -111 -92 -168 -200 -171c-8 0 -22 0 -35 4v-121c0 -5 -1 -8 -5 -8l-102 -8c-5 0 -8 1 -8 7v379c0 10 -2 35 -3 43c0 3 0 5 4 6c40 10 104 26 167 26zM221 517c-14 0 -30 -2 -44 -7v-149c13 -5 22 -7 41 -7c37 0 76 22 76 80
c0 47 -23 83 -73 83z" />
    <glyph glyph-name="q.superior" horiz-adv-x="465" 
d="M217 272c-106 0 -169 66 -169 159c0 90 74 169 205 169c51 0 114 -15 145 -26c6 -2 8 -2 8 -7c-3 -29 -4 -42 -4 -48v-365c0 -4 -1 -5 -5 -7l-102 -9c-5 0 -7 3 -7 6v141c-22 -10 -43 -13 -71 -13zM288 363v151c-9 3 -18 7 -43 7c-44 0 -78 -28 -78 -85
c0 -53 33 -82 77 -82c12 0 30 1 44 9z" />
    <glyph glyph-name="r.superior" horiz-adv-x="317" 
d="M62 593h92c4 0 6 -1 8 -4c2 -6 6 -25 7 -33c22 23 54 44 99 44c6 0 11 0 16 -1c4 -1 5 -3 5 -8l-1 -87c0 -4 -1 -6 -6 -5c-10 3 -24 4 -36 4c-28 0 -54 -12 -72 -29v-187c0 -5 -2 -9 -7 -9h-101c-5 0 -6 3 -6 7v214c0 26 -2 66 -4 88c0 4 1 6 6 6z" />
    <glyph glyph-name="s.superior" horiz-adv-x="361" 
d="M291 497c-24 9 -61 23 -100 23c-26 0 -35 -9 -35 -17c0 -11 12 -17 55 -30c86 -24 107 -53 107 -99c0 -74 -77 -102 -147 -102c-47 0 -85 9 -118 23c-5 3 -6 8 -6 11v70c0 4 3 7 9 5c39 -19 80 -31 116 -31c24 0 35 6 35 17s-6 17 -50 31c-86 24 -109 57 -109 103
c0 54 50 99 137 99c47 0 86 -10 108 -22c4 -2 6 -5 6 -10l-1 -67c0 -4 -3 -6 -7 -4z" />
    <glyph glyph-name="t.superior" horiz-adv-x="292" 
d="M258 357v-65c0 -5 -3 -7 -7 -9c-21 -10 -46 -11 -75 -11c-56 0 -104 31 -104 109v131l-48 4c-5 1 -6 3 -6 6v66c0 4 1 5 7 5h48c0 18 2 57 5 77c1 3 2 6 6 7l98 17c6 1 8 -2 8 -5c-1 -31 -3 -64 -3 -96h70c6 0 7 -1 7 -6v-65c0 -4 -1 -5 -7 -6l-72 -4v-110
c0 -29 12 -43 35 -43c13 0 21 2 31 4c3 0 7 0 7 -6z" />
    <glyph glyph-name="u.superior" horiz-adv-x="459" 
d="M397 588v-245c0 -25 1 -43 4 -57c0 -3 0 -7 -7 -8h-87c-5 0 -11 2 -11 7c-3 5 -3 14 -5 22c-37 -30 -76 -35 -109 -35c-55 0 -120 31 -120 118v197c0 6 2 6 8 6h103c4 0 5 -2 5 -6v-172c0 -34 20 -51 50 -51c19 0 35 6 53 20v203c0 5 3 6 7 6h103c5 0 6 -1 6 -5z" />
    <glyph glyph-name="v.superior" horiz-adv-x="420" 
d="M267 278h-115c-4 0 -7 1 -9 5c-27 71 -92 225 -122 304c-2 3 -1 6 3 6h113c4 0 5 -1 6 -5c54 -166 63 -190 70 -221h2c7 30 19 62 73 221c1 3 2 5 7 5h100c2 0 6 -1 4 -6c-32 -79 -95 -230 -124 -303c-2 -5 -3 -6 -8 -6z" />
    <glyph glyph-name="w.superior" horiz-adv-x="610" 
d="M474 278h-106c-6 0 -9 3 -10 6l-51 206h-1c-7 -30 -27 -108 -58 -205c-1 -4 -4 -7 -8 -7h-110c-5 0 -7 2 -9 7l-97 304c-1 3 0 4 4 4h109c4 0 7 -1 8 -5c37 -138 50 -185 54 -210h1c1 5 16 63 56 210c1 5 5 6 9 6h102c4 0 6 -1 7 -5c31 -121 48 -189 53 -215h2
c0 5 13 72 50 214c1 6 4 5 8 5h95c4 0 5 -2 4 -5l-103 -303c-2 -6 -5 -7 -9 -7z" />
    <glyph glyph-name="x.superior" horiz-adv-x="423" 
d="M136 430l-109 156c-2 4 -1 7 3 7h116c5 0 7 0 10 -5l57 -97h1l58 97c2 4 4 5 8 5h104c4 0 5 -2 2 -7c-29 -42 -78 -111 -107 -146c35 -46 94 -119 119 -155c3 -4 0 -7 -5 -7h-115c-5 0 -8 2 -10 6l-61 97h-1l-62 -98c-2 -3 -5 -5 -9 -5h-106c-4 0 -5 4 -3 7
c27 37 79 105 110 145z" />
    <glyph glyph-name="y.superior" horiz-adv-x="419" 
d="M26 593h112c4 0 7 -3 8 -6c57 -145 66 -171 73 -195h1c24 61 47 130 68 196c1 3 3 5 8 5h97c5 0 6 -3 5 -7c-24 -82 -74 -209 -121 -294c-33 -60 -80 -125 -105 -147c-6 -5 -9 -6 -17 -6h-109c-5 0 -6 5 -2 9c38 37 92 104 110 137c2 3 4 9 3 14
c-23 50 -106 218 -136 287c-1 3 1 7 5 7z" />
    <glyph glyph-name="z.superior" horiz-adv-x="388" 
d="M334 278h-288c-2 0 -3 1 -3 5v48c0 3 1 5 2 7l160 172c-15 0 -36 -1 -63 -1h-96c-4 0 -5 1 -5 6l13 73c1 4 2 5 7 5h272c3 0 5 0 6 -4v-51c0 -5 -2 -7 -5 -10c-83 -94 -130 -146 -148 -166h162c5 0 8 -1 7 -7l-15 -72c0 -4 -2 -5 -6 -5z" />
    <glyph glyph-name="zero.superior" unicode="&#x2070;" horiz-adv-x="419" 
d="M209 716c-36 0 -58 -32 -58 -113c0 -65 20 -112 61 -112c42 0 56 43 56 110c0 69 -17 115 -59 115zM210 414c-118 0 -163 85 -163 189c0 105 57 188 163 188c128 -1 162 -108 162 -188c0 -94 -42 -189 -162 -189z" />
    <glyph glyph-name="one.superior" horiz-adv-x="330" 
d="M131 428v265c-23 -8 -48 -13 -65 -17c-5 -1 -7 1 -7 5v65c0 3 3 5 5 5c25 7 70 22 96 33c1 0 6 2 10 2h72c3 -1 4 -3 4 -6v-353c0 -5 -1 -7 -6 -7h-102c-5 0 -7 2 -7 8z" />
    <glyph glyph-name="two.superior" horiz-adv-x="395" 
d="M331 420h-281c-5 0 -6 3 -6 6v52c0 4 2 6 3 7c56 36 174 100 174 163c0 29 -18 54 -67 54c-36 0 -65 -10 -96 -26c-7 -3 -10 -1 -10 4v69c0 5 1 8 7 11c32 18 72 30 127 31c100 0 147 -56 147 -124c0 -71 -54 -116 -118 -160h139c4 0 5 0 5 -5l-16 -76c-2 -4 -3 -6 -8 -6
z" />
    <glyph glyph-name="three.superior" horiz-adv-x="392" 
d="M118 572v60c0 5 0 6 5 6h42c45 0 56 18 56 34c0 20 -19 37 -64 37c-31 0 -64 -7 -96 -24c-5 -2 -7 0 -7 3v66c0 5 1 6 4 7c36 19 77 30 124 30c92 0 140 -43 140 -96c0 -37 -22 -64 -64 -79v-1c46 -12 83 -37 83 -87c0 -81 -74 -114 -166 -114c-46 0 -87 9 -120 26
c-5 2 -5 7 -5 10v70c0 4 3 5 6 4c40 -21 79 -29 115 -29c46 0 64 17 64 36c0 25 -21 36 -74 36h-38c-3 0 -5 1 -5 5z" />
    <glyph glyph-name="four.superior" unicode="&#x2074;" horiz-adv-x="395" 
d="M34 510v44c0 4 1 7 4 10c32 37 137 176 170 216c4 5 7 6 13 6h75c5 0 7 -2 7 -7v-208h60c3 0 5 -2 4 -5l-9 -56c-1 -4 -2 -6 -6 -6h-49v-77c0 -4 -1 -7 -7 -7h-91c-3 0 -6 2 -6 7v77l-159 1c-4 0 -6 2 -6 5zM118 571h81c0 77 2 93 3 114h-2c-18 -28 -67 -95 -82 -114z
" />
    <glyph glyph-name="five.superior" unicode="&#x2075;" horiz-adv-x="384" 
d="M112 786h198c6 0 7 -2 6 -6l-21 -70c-1 -5 -2 -6 -7 -7h-126c-3 -9 -8 -32 -11 -42c132 -17 179 -57 179 -128c0 -74 -61 -119 -157 -119c-43 0 -86 8 -117 24c-2 2 -5 6 -5 9v70c0 4 1 6 6 4c37 -17 72 -27 110 -27c46 0 61 14 61 32c0 27 -41 47 -158 56
c-3 0 -6 0 -6 5v34c5 28 43 161 43 161c1 2 2 4 5 4z" />
    <glyph glyph-name="six.superior" unicode="&#x2076;" horiz-adv-x="397" 
d="M196 591c-14 0 -37 -5 -50 -15c-3 -5 -5 -15 -5 -24c0 -43 26 -67 60 -67c35 0 54 22 54 52c0 33 -20 54 -59 54zM312 795v-66c0 -4 -1 -5 -6 -6c-85 -24 -112 -51 -132 -75c16 6 33 11 56 11c69 0 124 -42 124 -114c0 -65 -49 -128 -154 -128c-102 0 -156 60 -156 143
c0 147 160 217 264 239c3 1 4 -1 4 -4z" />
    <glyph glyph-name="seven.superior" unicode="&#x2077;" horiz-adv-x="377" 
d="M58 787l272 -1c4 0 5 -2 5 -6v-50c0 -2 -2 -8 -3 -10c-22 -51 -113 -232 -147 -296c-2 -2 -3 -4 -8 -4h-95c-4 0 -6 3 -2 8l114 216c11 22 22 41 31 56h-178c-4 0 -5 3 -5 6l10 77c1 3 2 4 6 4z" />
    <glyph glyph-name="eight.superior" unicode="&#x2078;" horiz-adv-x="395" 
d="M199 727c-31 0 -46 -20 -46 -42c0 -17 8 -29 17 -37c4 -3 8 -5 12 -6c7 -3 28 -3 35 -1c5 1 8 2 12 5c9 7 18 19 18 39c0 25 -20 42 -48 42zM198 482c34 0 51 19 51 41c1 18 -8 31 -20 38c-3 3 -5 4 -9 5c-5 1 -34 2 -46 0c-4 -1 -7 -4 -9 -5c-14 -9 -21 -22 -21 -37
c0 -23 19 -42 54 -42zM200 791c105 0 139 -59 139 -103c0 -38 -18 -65 -55 -82c48 -19 66 -44 66 -84c0 -67 -58 -108 -156 -108c-87 0 -147 45 -147 104c0 33 15 63 66 84c-39 19 -59 46 -59 86c0 54 48 103 146 103z" />
    <glyph glyph-name="nine.superior" unicode="&#x2079;" horiz-adv-x="394" 
d="M92 416v68c0 4 0 5 4 6c59 15 97 35 122 70c-17 -8 -32 -11 -48 -11c-70 0 -124 42 -124 117c0 69 58 125 153 125c86 0 151 -55 151 -147c0 -138 -126 -214 -252 -232c-5 -1 -6 1 -6 4zM200 613c23 0 38 8 48 17c4 4 5 12 5 24c0 41 -19 68 -58 68
c-34 0 -54 -24 -54 -54c0 -36 26 -55 59 -55z" />
    <glyph glyph-name="period.superior" horiz-adv-x="190" 
d="M96 414c-38 0 -67 27 -67 65c0 37 28 64 67 64s66 -29 66 -64c0 -38 -28 -65 -66 -65z" />
    <glyph glyph-name="comma.superior" horiz-adv-x="182" 
d="M94 356h-78c-6 0 -6 3 -4 7c32 65 36 106 36 136c0 19 -3 43 -4 53c0 3 1 5 3 5h93c5 0 7 -2 9 -6c3 -9 6 -26 6 -48c0 -40 -12 -90 -51 -144c-2 -2 -5 -3 -10 -3z" />
    <glyph glyph-name="dollar.superior" horiz-adv-x="386" 
d="M243 824v-44c25 -2 55 -11 69 -21c4 -3 5 -5 5 -11v-63c0 -3 -4 -6 -6 -4c-27 15 -71 30 -110 30c-33 0 -46 -13 -46 -25c0 -14 8 -21 62 -40c106 -38 120 -73 120 -118c0 -54 -38 -89 -94 -100v-49c0 -2 -1 -2 -3 -2h-81c-2 0 -3 1 -3 3v44c-37 3 -69 15 -89 27
c-6 3 -8 6 -8 11v69c0 3 3 6 7 5c46 -26 90 -40 129 -41c32 -1 43 10 43 25c0 13 -11 24 -63 42c-88 32 -119 60 -119 114c0 43 30 88 100 101v47c0 1 0 2 3 2h82c2 0 2 0 2 -2z" />
    <glyph glyph-name="cent.superior" horiz-adv-x="388" 
d="M268 459v-52c0 -4 -1 -5 -5 -5h-78c-4 0 -5 2 -5 5v53c-82 13 -129 65 -129 143c0 83 62 132 130 146v55c0 4 2 6 6 6h76c3 0 5 -1 5 -6v-51c17 0 40 -6 52 -12c3 -2 5 -3 5 -7v-69c0 -3 -2 -6 -7 -4c-20 8 -47 16 -73 16c-56 0 -82 -28 -82 -69c0 -51 41 -71 86 -71
c33 0 52 6 73 14c3 1 5 -1 5 -3v-66c0 -4 -2 -7 -5 -9c-15 -9 -37 -13 -54 -14z" />
    <glyph glyph-name="hyphen.superior" horiz-adv-x="249" 
d="M213 577h-172c-6 0 -7 2 -7 8v73c0 3 1 5 6 5h173c4 0 7 -1 7 -6v-75c0 -5 -5 -5 -7 -5z" />
    <glyph glyph-name="parenleft.superior" unicode="&#x207d;" horiz-adv-x="286" 
d="M55 599c0 120 57 212 102 260c4 4 7 6 11 6h85c4 0 5 -5 3 -8c-66 -76 -105 -158 -105 -254c0 -109 43 -196 103 -262c2 -2 2 -7 -3 -7l-82 -1c-6 0 -9 1 -12 5c-55 53 -102 144 -102 261z" />
    <glyph glyph-name="parenright.superior" unicode="&#x207e;" horiz-adv-x="284" 
d="M238 601c0 -123 -56 -214 -102 -261c-2 -4 -6 -7 -14 -7h-79c-7 0 -7 5 -5 8c68 77 104 160 104 256c0 109 -42 195 -103 260c-2 3 -2 8 5 8h78c7 0 12 -1 14 -5c55 -53 102 -143 102 -259z" />
    <glyph glyph-name="zero.inferior" unicode="&#x2080;" horiz-adv-x="419" 
d="M209 138c-36 0 -58 -32 -58 -113c0 -65 20 -112 61 -112c42 0 56 43 56 110c0 69 -17 115 -59 115zM210 -164c-118 0 -163 85 -163 189c0 105 57 188 163 188c128 -1 162 -108 162 -188c0 -94 -42 -189 -162 -189z" />
    <glyph glyph-name="one.inferior" unicode="&#x2081;" horiz-adv-x="330" 
d="M131 -150v265c-23 -8 -48 -13 -65 -17c-5 -1 -7 1 -7 5v65c0 3 3 5 5 5c25 7 70 22 96 33c1 0 6 2 10 2h72c3 -1 4 -3 4 -6v-353c0 -5 -1 -7 -6 -7h-102c-5 0 -7 2 -7 8z" />
    <glyph glyph-name="two.inferior" unicode="&#x2082;" horiz-adv-x="395" 
d="M331 -158h-281c-5 0 -6 3 -6 6v52c0 4 2 6 3 7c56 36 174 100 174 163c0 29 -18 54 -67 54c-36 0 -65 -10 -96 -26c-7 -3 -10 -1 -10 4v69c0 5 1 8 7 11c32 18 72 30 127 31c100 0 147 -56 147 -124c0 -71 -54 -116 -118 -160h139c4 0 5 0 5 -5l-16 -76
c-2 -4 -3 -6 -8 -6z" />
    <glyph glyph-name="three.inferior" unicode="&#x2083;" horiz-adv-x="392" 
d="M118 -6v60c0 5 0 6 5 6h42c45 0 56 18 56 34c0 20 -19 37 -64 37c-31 0 -64 -7 -96 -24c-5 -2 -7 0 -7 3v66c0 5 1 6 4 7c36 19 77 30 124 30c92 0 140 -43 140 -96c0 -37 -22 -64 -64 -79v-1c46 -12 83 -37 83 -87c0 -81 -74 -114 -166 -114c-46 0 -87 9 -120 26
c-5 2 -5 7 -5 10v70c0 4 3 5 6 4c40 -21 79 -29 115 -29c46 0 64 17 64 36c0 25 -21 36 -74 36h-38c-3 0 -5 1 -5 5z" />
    <glyph glyph-name="four.inferior" unicode="&#x2084;" horiz-adv-x="395" 
d="M34 -68v44c0 4 1 7 4 10c32 37 137 176 170 216c4 5 7 6 13 6h75c5 0 7 -2 7 -7v-208h60c3 0 5 -2 4 -5l-9 -56c-1 -4 -2 -6 -6 -6h-49v-77c0 -4 -1 -7 -7 -7h-91c-3 0 -6 2 -6 7v77l-159 1c-4 0 -6 2 -6 5zM118 -7h81c0 77 2 93 3 114h-2c-18 -28 -67 -95 -82 -114z" />
    <glyph glyph-name="five.inferior" unicode="&#x2085;" horiz-adv-x="384" 
d="M112 208h198c6 0 7 -2 6 -6l-21 -70c-1 -5 -2 -6 -7 -7h-126c-3 -9 -8 -32 -11 -42c132 -17 179 -57 179 -128c0 -74 -61 -119 -157 -119c-43 0 -86 8 -117 24c-2 2 -5 6 -5 9v70c0 4 1 6 6 4c37 -17 72 -27 110 -27c46 0 61 14 61 32c0 27 -41 47 -158 56
c-3 0 -6 0 -6 5v34c5 28 43 161 43 161c1 2 2 4 5 4z" />
    <glyph glyph-name="six.inferior" unicode="&#x2086;" horiz-adv-x="397" 
d="M196 13c-14 0 -37 -5 -50 -15c-3 -5 -5 -15 -5 -24c0 -43 26 -67 60 -67c35 0 54 22 54 52c0 33 -20 54 -59 54zM312 217v-66c0 -4 -1 -5 -6 -6c-85 -24 -112 -51 -132 -75c16 6 33 11 56 11c69 0 124 -42 124 -114c0 -65 -49 -128 -154 -128c-102 0 -156 60 -156 143
c0 147 160 217 264 239c3 1 4 -1 4 -4z" />
    <glyph glyph-name="seven.inferior" unicode="&#x2087;" horiz-adv-x="377" 
d="M58 209l272 -1c4 0 5 -2 5 -6v-50c0 -2 -2 -8 -3 -10c-22 -51 -113 -232 -147 -296c-2 -2 -3 -4 -8 -4h-95c-4 0 -6 3 -2 8l114 216c11 22 22 41 31 56h-178c-4 0 -5 3 -5 6l10 77c1 3 2 4 6 4z" />
    <glyph glyph-name="eight.inferior" unicode="&#x2088;" horiz-adv-x="395" 
d="M199 149c-31 0 -46 -20 -46 -42c0 -17 8 -29 17 -37c4 -3 8 -5 12 -6c7 -3 28 -3 35 -1c5 1 8 2 12 5c9 7 18 19 18 39c0 25 -20 42 -48 42zM198 -96c34 0 51 19 51 41c1 18 -8 31 -20 38c-3 3 -5 4 -9 5c-5 1 -34 2 -46 0c-4 -1 -7 -4 -9 -5c-14 -9 -21 -22 -21 -37
c0 -23 19 -42 54 -42zM200 213c105 0 139 -59 139 -103c0 -38 -18 -65 -55 -82c48 -19 66 -44 66 -84c0 -67 -58 -108 -156 -108c-87 0 -147 45 -147 104c0 33 15 63 66 84c-39 19 -59 46 -59 86c0 54 48 103 146 103z" />
    <glyph glyph-name="nine.inferior" unicode="&#x2089;" horiz-adv-x="394" 
d="M92 -162v68c0 4 0 5 4 6c59 15 97 35 122 70c-17 -8 -32 -11 -48 -11c-70 0 -124 42 -124 117c0 69 58 125 153 125c86 0 151 -55 151 -147c0 -138 -126 -214 -252 -232c-5 -1 -6 1 -6 4zM200 35c23 0 38 8 48 17c4 4 5 12 5 24c0 41 -19 68 -58 68
c-34 0 -54 -24 -54 -54c0 -36 26 -55 59 -55z" />
    <glyph glyph-name="period.inferior" horiz-adv-x="190" 
d="M96 -164c-38 0 -67 27 -67 65c0 37 28 64 67 64s66 -29 66 -64c0 -38 -28 -65 -66 -65z" />
    <glyph glyph-name="comma.inferior" horiz-adv-x="182" 
d="M94 -222h-78c-6 0 -6 3 -4 7c32 65 36 106 36 136c0 19 -3 43 -4 53c0 3 1 5 3 5h93c5 0 7 -2 9 -6c3 -9 6 -26 6 -48c0 -40 -12 -90 -51 -144c-2 -2 -5 -3 -10 -3z" />
    <glyph glyph-name="dollar.inferior" horiz-adv-x="386" 
d="M243 246v-44c25 -2 55 -11 69 -21c4 -3 5 -5 5 -11v-63c0 -3 -4 -6 -6 -4c-27 15 -71 30 -110 30c-33 0 -46 -13 -46 -25c0 -14 8 -21 62 -40c106 -38 120 -73 120 -118c0 -54 -38 -89 -94 -100v-49c0 -2 -1 -2 -3 -2h-81c-2 0 -3 1 -3 3v44c-37 3 -69 15 -89 27
c-6 3 -8 6 -8 11v69c0 3 3 6 7 5c46 -26 90 -40 129 -41c32 -1 43 10 43 25c0 13 -11 24 -63 42c-88 32 -119 60 -119 114c0 43 30 88 100 101v47c0 1 0 2 3 2h82c2 0 2 0 2 -2z" />
    <glyph glyph-name="cent.inferior" horiz-adv-x="388" 
d="M268 -119v-52c0 -4 -1 -5 -5 -5h-78c-4 0 -5 2 -5 5v53c-82 13 -129 65 -129 143c0 83 62 132 130 146v55c0 4 2 6 6 6h76c3 0 5 -1 5 -6v-51c17 0 40 -6 52 -12c3 -2 5 -3 5 -7v-69c0 -3 -2 -6 -7 -4c-20 8 -47 16 -73 16c-56 0 -82 -28 -82 -69c0 -51 41 -71 86 -71
c33 0 52 6 73 14c3 1 5 -1 5 -3v-66c0 -4 -2 -7 -5 -9c-15 -9 -37 -13 -54 -14z" />
    <glyph glyph-name="hyphen.inferior" horiz-adv-x="249" 
d="M213 -1h-172c-6 0 -7 2 -7 8v73c0 3 1 5 6 5h173c4 0 7 -1 7 -6v-75c0 -5 -5 -5 -7 -5z" />
    <glyph glyph-name="parenleft.inferior" unicode="&#x208d;" horiz-adv-x="286" 
d="M55 21c0 120 57 212 102 260c4 4 7 6 11 6h85c4 0 5 -5 3 -8c-66 -76 -105 -158 -105 -254c0 -109 43 -196 103 -262c2 -2 2 -7 -3 -7l-82 -1c-6 0 -9 1 -12 5c-55 53 -102 144 -102 261z" />
    <glyph glyph-name="parenright.inferior" unicode="&#x208e;" horiz-adv-x="284" 
d="M238 23c0 -123 -56 -214 -102 -261c-2 -4 -6 -7 -14 -7h-79c-7 0 -7 5 -5 8c68 77 104 160 104 256c0 109 -42 195 -103 260c-2 3 -2 8 5 8h78c7 0 12 -1 14 -5c55 -53 102 -143 102 -259z" />
    <glyph glyph-name="zero.numerator" horiz-adv-x="419" 
d="M209 555c-36 0 -58 -32 -58 -113c0 -65 20 -112 61 -112c42 0 56 43 56 110c0 69 -17 115 -59 115zM210 253c-118 0 -163 85 -163 189c0 105 57 188 163 188c128 -1 162 -108 162 -188c0 -94 -42 -189 -162 -189z" />
    <glyph glyph-name="one.numerator" horiz-adv-x="330" 
d="M131 267v265c-23 -8 -48 -13 -65 -17c-5 -1 -7 1 -7 5v65c0 3 3 5 5 5c25 7 70 22 96 33c1 0 6 2 10 2h72c3 -1 4 -3 4 -6v-353c0 -5 -1 -7 -6 -7h-102c-5 0 -7 2 -7 8z" />
    <glyph glyph-name="two.numerator" horiz-adv-x="395" 
d="M331 259h-281c-5 0 -6 3 -6 6v52c0 4 2 6 3 7c56 36 174 100 174 163c0 29 -18 54 -67 54c-36 0 -65 -10 -96 -26c-7 -3 -10 -1 -10 4v69c0 5 1 8 7 11c32 18 72 30 127 31c100 0 147 -56 147 -124c0 -71 -54 -116 -118 -160h139c4 0 5 0 5 -5l-16 -76c-2 -4 -3 -6 -8 -6
z" />
    <glyph glyph-name="three.numerator" horiz-adv-x="392" 
d="M118 411v60c0 5 0 6 5 6h42c45 0 56 18 56 34c0 20 -19 37 -64 37c-31 0 -64 -7 -96 -24c-5 -2 -7 0 -7 3v66c0 5 1 6 4 7c36 19 77 30 124 30c92 0 140 -43 140 -96c0 -37 -22 -64 -64 -79v-1c46 -12 83 -37 83 -87c0 -81 -74 -114 -166 -114c-46 0 -87 9 -120 26
c-5 2 -5 7 -5 10v70c0 4 3 5 6 4c40 -21 79 -29 115 -29c46 0 64 17 64 36c0 25 -21 36 -74 36h-38c-3 0 -5 1 -5 5z" />
    <glyph glyph-name="four.numerator" horiz-adv-x="395" 
d="M34 349v44c0 4 1 7 4 10c32 37 137 176 170 216c4 5 7 6 13 6h75c5 0 7 -2 7 -7v-208h60c3 0 5 -2 4 -5l-9 -56c-1 -4 -2 -6 -6 -6h-49v-77c0 -4 -1 -7 -7 -7h-91c-3 0 -6 2 -6 7v77l-159 1c-4 0 -6 2 -6 5zM118 410h81c0 77 2 93 3 114h-2c-18 -28 -67 -95 -82 -114z
" />
    <glyph glyph-name="five.numerator" horiz-adv-x="384" 
d="M112 625h198c6 0 7 -2 6 -6l-21 -70c-1 -5 -2 -6 -7 -7h-126c-3 -9 -8 -32 -11 -42c132 -17 179 -57 179 -128c0 -74 -61 -119 -157 -119c-43 0 -86 8 -117 24c-2 2 -5 6 -5 9v70c0 4 1 6 6 4c37 -17 72 -27 110 -27c46 0 61 14 61 32c0 27 -41 47 -158 56
c-3 0 -6 0 -6 5v34c5 28 43 161 43 161c1 2 2 4 5 4z" />
    <glyph glyph-name="six.numerator" horiz-adv-x="397" 
d="M196 430c-14 0 -37 -5 -50 -15c-3 -5 -5 -15 -5 -24c0 -43 26 -67 60 -67c35 0 54 22 54 52c0 33 -20 54 -59 54zM312 634v-66c0 -4 -1 -5 -6 -6c-85 -24 -112 -51 -132 -75c16 6 33 11 56 11c69 0 124 -42 124 -114c0 -65 -49 -128 -154 -128c-102 0 -156 60 -156 143
c0 147 160 217 264 239c3 1 4 -1 4 -4z" />
    <glyph glyph-name="seven.numerator" horiz-adv-x="377" 
d="M58 626l272 -1c4 0 5 -2 5 -6v-50c0 -2 -2 -8 -3 -10c-22 -51 -113 -232 -147 -296c-2 -2 -3 -4 -8 -4h-95c-4 0 -6 3 -2 8l114 216c11 22 22 41 31 56h-178c-4 0 -5 3 -5 6l10 77c1 3 2 4 6 4z" />
    <glyph glyph-name="eight.numerator" horiz-adv-x="395" 
d="M199 566c-31 0 -46 -20 -46 -42c0 -17 8 -29 17 -37c4 -3 8 -5 12 -6c7 -3 28 -3 35 -1c5 1 8 2 12 5c9 7 18 19 18 39c0 25 -20 42 -48 42zM198 321c34 0 51 19 51 41c1 18 -8 31 -20 38c-3 3 -5 4 -9 5c-5 1 -34 2 -46 0c-4 -1 -7 -4 -9 -5c-14 -9 -21 -22 -21 -37
c0 -23 19 -42 54 -42zM200 630c105 0 139 -59 139 -103c0 -38 -18 -65 -55 -82c48 -19 66 -44 66 -84c0 -67 -58 -108 -156 -108c-87 0 -147 45 -147 104c0 33 15 63 66 84c-39 19 -59 46 -59 86c0 54 48 103 146 103z" />
    <glyph glyph-name="nine.numerator" horiz-adv-x="394" 
d="M92 255v68c0 4 0 5 4 6c59 15 97 35 122 70c-17 -8 -32 -11 -48 -11c-70 0 -124 42 -124 117c0 69 58 125 153 125c86 0 151 -55 151 -147c0 -138 -126 -214 -252 -232c-5 -1 -6 1 -6 4zM200 452c23 0 38 8 48 17c4 4 5 12 5 24c0 41 -19 68 -58 68
c-34 0 -54 -24 -54 -54c0 -36 26 -55 59 -55z" />
    <glyph glyph-name="period.numerator" horiz-adv-x="190" 
d="M96 253c-38 0 -67 27 -67 65c0 37 28 64 67 64s66 -29 66 -64c0 -38 -28 -65 -66 -65z" />
    <glyph glyph-name="comma.numerator" horiz-adv-x="182" 
d="M94 195h-78c-6 0 -6 3 -4 7c32 65 36 106 36 136c0 19 -3 43 -4 53c0 3 1 5 3 5h93c5 0 7 -2 9 -6c3 -9 6 -26 6 -48c0 -40 -12 -90 -51 -144c-2 -2 -5 -3 -10 -3z" />
    <glyph glyph-name="dollar.numerator" horiz-adv-x="386" 
d="M243 663v-44c25 -2 55 -11 69 -21c4 -3 5 -5 5 -11v-63c0 -3 -4 -6 -6 -4c-27 15 -71 30 -110 30c-33 0 -46 -13 -46 -25c0 -14 8 -21 62 -40c106 -38 120 -73 120 -118c0 -54 -38 -89 -94 -100v-49c0 -2 -1 -2 -3 -2h-81c-2 0 -3 1 -3 3v44c-37 3 -69 15 -89 27
c-6 3 -8 6 -8 11v69c0 3 3 6 7 5c46 -26 90 -40 129 -41c32 -1 43 10 43 25c0 13 -11 24 -63 42c-88 32 -119 60 -119 114c0 43 30 88 100 101v47c0 1 0 2 3 2h82c2 0 2 0 2 -2z" />
    <glyph glyph-name="cent.numerator" horiz-adv-x="388" 
d="M268 298v-52c0 -4 -1 -5 -5 -5h-78c-4 0 -5 2 -5 5v53c-82 13 -129 65 -129 143c0 83 62 132 130 146v55c0 4 2 6 6 6h76c3 0 5 -1 5 -6v-51c17 0 40 -6 52 -12c3 -2 5 -3 5 -7v-69c0 -3 -2 -6 -7 -4c-20 8 -47 16 -73 16c-56 0 -82 -28 -82 -69c0 -51 41 -71 86 -71
c33 0 52 6 73 14c3 1 5 -1 5 -3v-66c0 -4 -2 -7 -5 -9c-15 -9 -37 -13 -54 -14z" />
    <glyph glyph-name="hyphen.numerator" horiz-adv-x="249" 
d="M213 416h-172c-6 0 -7 2 -7 8v73c0 3 1 5 6 5h173c4 0 7 -1 7 -6v-75c0 -5 -5 -5 -7 -5z" />
    <glyph glyph-name="parenleft.numerator" horiz-adv-x="286" 
d="M55 438c0 120 57 212 102 260c4 4 7 6 11 6h85c4 0 5 -5 3 -8c-66 -76 -105 -158 -105 -254c0 -109 43 -196 103 -262c2 -2 2 -7 -3 -7l-82 -1c-6 0 -9 1 -12 5c-55 53 -102 144 -102 261z" />
    <glyph glyph-name="parenright.numerator" horiz-adv-x="284" 
d="M238 440c0 -123 -56 -214 -102 -261c-2 -4 -6 -7 -14 -7h-79c-7 0 -7 5 -5 8c68 77 104 160 104 256c0 109 -42 195 -103 260c-2 3 -2 8 5 8h78c7 0 12 -1 14 -5c55 -53 102 -143 102 -259z" />
    <glyph glyph-name="zero.denominator" horiz-adv-x="419" 
d="M209 267c-36 0 -58 -32 -58 -113c0 -65 20 -112 61 -112c42 0 56 43 56 110c0 69 -17 115 -59 115zM210 -35c-118 0 -163 85 -163 189c0 105 57 188 163 188c128 -1 162 -108 162 -188c0 -94 -42 -189 -162 -189z" />
    <glyph glyph-name="one.denominator" horiz-adv-x="330" 
d="M131 -21v265c-23 -8 -48 -13 -65 -17c-5 -1 -7 1 -7 5v65c0 3 3 5 5 5c25 7 70 22 96 33c1 0 6 2 10 2h72c3 -1 4 -3 4 -6v-353c0 -5 -1 -7 -6 -7h-102c-5 0 -7 2 -7 8z" />
    <glyph glyph-name="two.denominator" horiz-adv-x="395" 
d="M331 -29h-281c-5 0 -6 3 -6 6v52c0 4 2 6 3 7c56 36 174 100 174 163c0 29 -18 54 -67 54c-36 0 -65 -10 -96 -26c-7 -3 -10 -1 -10 4v69c0 5 1 8 7 11c32 18 72 30 127 31c100 0 147 -56 147 -124c0 -71 -54 -116 -118 -160h139c4 0 5 0 5 -5l-16 -76c-2 -4 -3 -6 -8 -6
z" />
    <glyph glyph-name="three.denominator" horiz-adv-x="392" 
d="M118 123v60c0 5 0 6 5 6h42c45 0 56 18 56 34c0 20 -19 37 -64 37c-31 0 -64 -7 -96 -24c-5 -2 -7 0 -7 3v66c0 5 1 6 4 7c36 19 77 30 124 30c92 0 140 -43 140 -96c0 -37 -22 -64 -64 -79v-1c46 -12 83 -37 83 -87c0 -81 -74 -114 -166 -114c-46 0 -87 9 -120 26
c-5 2 -5 7 -5 10v70c0 4 3 5 6 4c40 -21 79 -29 115 -29c46 0 64 17 64 36c0 25 -21 36 -74 36h-38c-3 0 -5 1 -5 5z" />
    <glyph glyph-name="four.denominator" horiz-adv-x="395" 
d="M34 61v44c0 4 1 7 4 10c32 37 137 176 170 216c4 5 7 6 13 6h75c5 0 7 -2 7 -7v-208h60c3 0 5 -2 4 -5l-9 -56c-1 -4 -2 -6 -6 -6h-49v-77c0 -4 -1 -7 -7 -7h-91c-3 0 -6 2 -6 7v77l-159 1c-4 0 -6 2 -6 5zM118 122h81c0 77 2 93 3 114h-2c-18 -28 -67 -95 -82 -114z" />
    <glyph glyph-name="five.denominator" horiz-adv-x="384" 
d="M112 337h198c6 0 7 -2 6 -6l-21 -70c-1 -5 -2 -6 -7 -7h-126c-3 -9 -8 -32 -11 -42c132 -17 179 -57 179 -128c0 -74 -61 -119 -157 -119c-43 0 -86 8 -117 24c-2 2 -5 6 -5 9v70c0 4 1 6 6 4c37 -17 72 -27 110 -27c46 0 61 14 61 32c0 27 -41 47 -158 56
c-3 0 -6 0 -6 5v34c5 28 43 161 43 161c1 2 2 4 5 4z" />
    <glyph glyph-name="six.denominator" horiz-adv-x="397" 
d="M196 142c-14 0 -37 -5 -50 -15c-3 -5 -5 -15 -5 -24c0 -43 26 -67 60 -67c35 0 54 22 54 52c0 33 -20 54 -59 54zM312 346v-66c0 -4 -1 -5 -6 -6c-85 -24 -112 -51 -132 -75c16 6 33 11 56 11c69 0 124 -42 124 -114c0 -65 -49 -128 -154 -128c-102 0 -156 60 -156 143
c0 147 160 217 264 239c3 1 4 -1 4 -4z" />
    <glyph glyph-name="seven.denominator" horiz-adv-x="377" 
d="M58 338l272 -1c4 0 5 -2 5 -6v-50c0 -2 -2 -8 -3 -10c-22 -51 -113 -232 -147 -296c-2 -2 -3 -4 -8 -4h-95c-4 0 -6 3 -2 8l114 216c11 22 22 41 31 56h-178c-4 0 -5 3 -5 6l10 77c1 3 2 4 6 4z" />
    <glyph glyph-name="eight.denominator" horiz-adv-x="395" 
d="M199 278c-31 0 -46 -20 -46 -42c0 -17 8 -29 17 -37c4 -3 8 -5 12 -6c7 -3 28 -3 35 -1c5 1 8 2 12 5c9 7 18 19 18 39c0 25 -20 42 -48 42zM198 33c34 0 51 19 51 41c1 18 -8 31 -20 38c-3 3 -5 4 -9 5c-5 1 -34 2 -46 0c-4 -1 -7 -4 -9 -5c-14 -9 -21 -22 -21 -37
c0 -23 19 -42 54 -42zM200 342c105 0 139 -59 139 -103c0 -38 -18 -65 -55 -82c48 -19 66 -44 66 -84c0 -67 -58 -108 -156 -108c-87 0 -147 45 -147 104c0 33 15 63 66 84c-39 19 -59 46 -59 86c0 54 48 103 146 103z" />
    <glyph glyph-name="nine.denominator" horiz-adv-x="394" 
d="M92 -33v68c0 4 0 5 4 6c59 15 97 35 122 70c-17 -8 -32 -11 -48 -11c-70 0 -124 42 -124 117c0 69 58 125 153 125c86 0 151 -55 151 -147c0 -138 -126 -214 -252 -232c-5 -1 -6 1 -6 4zM200 164c23 0 38 8 48 17c4 4 5 12 5 24c0 41 -19 68 -58 68
c-34 0 -54 -24 -54 -54c0 -36 26 -55 59 -55z" />
    <glyph glyph-name="period.denominator" horiz-adv-x="190" 
d="M96 -35c-38 0 -67 27 -67 65c0 37 28 64 67 64s66 -29 66 -64c0 -38 -28 -65 -66 -65z" />
    <glyph glyph-name="comma.denominator" horiz-adv-x="182" 
d="M94 -93h-78c-6 0 -6 3 -4 7c32 65 36 106 36 136c0 19 -3 43 -4 53c0 3 1 5 3 5h93c5 0 7 -2 9 -6c3 -9 6 -26 6 -48c0 -40 -12 -90 -51 -144c-2 -2 -5 -3 -10 -3z" />
    <glyph glyph-name="dollar.denominator" horiz-adv-x="386" 
d="M243 375v-44c25 -2 55 -11 69 -21c4 -3 5 -5 5 -11v-63c0 -3 -4 -6 -6 -4c-27 15 -71 30 -110 30c-33 0 -46 -13 -46 -25c0 -14 8 -21 62 -40c106 -38 120 -73 120 -118c0 -54 -38 -89 -94 -100v-49c0 -2 -1 -2 -3 -2h-81c-2 0 -3 1 -3 3v44c-37 3 -69 15 -89 27
c-6 3 -8 6 -8 11v69c0 3 3 6 7 5c46 -26 90 -40 129 -41c32 -1 43 10 43 25c0 13 -11 24 -63 42c-88 32 -119 60 -119 114c0 43 30 88 100 101v47c0 1 0 2 3 2h82c2 0 2 0 2 -2z" />
    <glyph glyph-name="cent.denominator" horiz-adv-x="388" 
d="M268 10v-52c0 -4 -1 -5 -5 -5h-78c-4 0 -5 2 -5 5v53c-82 13 -129 65 -129 143c0 83 62 132 130 146v55c0 4 2 6 6 6h76c3 0 5 -1 5 -6v-51c17 0 40 -6 52 -12c3 -2 5 -3 5 -7v-69c0 -3 -2 -6 -7 -4c-20 8 -47 16 -73 16c-56 0 -82 -28 -82 -69c0 -51 41 -71 86 -71
c33 0 52 6 73 14c3 1 5 -1 5 -3v-66c0 -4 -2 -7 -5 -9c-15 -9 -37 -13 -54 -14z" />
    <glyph glyph-name="hyphen.denominator" horiz-adv-x="249" 
d="M213 128h-172c-6 0 -7 2 -7 8v73c0 3 1 5 6 5h173c4 0 7 -1 7 -6v-75c0 -5 -5 -5 -7 -5z" />
    <glyph glyph-name="parenleft.denominator" horiz-adv-x="286" 
d="M55 150c0 120 57 212 102 260c4 4 7 6 11 6h85c4 0 5 -5 3 -8c-66 -76 -105 -158 -105 -254c0 -109 43 -196 103 -262c2 -2 2 -7 -3 -7l-82 -1c-6 0 -9 1 -12 5c-55 53 -102 144 -102 261z" />
    <glyph glyph-name="parenright.denominator" horiz-adv-x="284" 
d="M238 152c0 -123 -56 -214 -102 -261c-2 -4 -6 -7 -14 -7h-79c-7 0 -7 5 -5 8c68 77 104 160 104 256c0 109 -42 195 -103 260c-2 3 -2 8 5 8h78c7 0 12 -1 14 -5c55 -53 102 -143 102 -259z" />
    <glyph glyph-name="at.cap" horiz-adv-x="904" 
d="M475 102l54 261c-3 2 -12 3 -25 3c-77 0 -127 -75 -127 -152c0 -68 30 -102 89 -111c3 -1 6 -1 9 -1zM498 631c191 0 344 -117 344 -310c0 -198 -156 -316 -343 -316c-139 0 -242 60 -242 201c0 155 130 248 275 248c41 0 94 -7 118 -20c4 -2 5 -3 5 -8l-67 -324
c57 10 147 74 147 214c0 152 -97 231 -247 231c-178 0 -312 -136 -312 -333c0 -116 48 -211 158 -268c5 -3 6 -5 6 -12v-95c0 -7 -1 -7 -8 -5c-175 65 -269 207 -269 375c0 238 176 422 435 422z" />
    <glyph glyph-name="emdash.cap" horiz-adv-x="795" 
d="M84 407c0 5 1 7 7 7h613c4 0 7 -1 7 -7v-91c0 -5 -2 -7 -7 -7h-611c-6 0 -9 1 -9 7v91z" />
    <glyph glyph-name="uni2014.cap" horiz-adv-x="682" 
d="M84 407c0 5 3 7 8 7h498c7 0 8 -2 8 -8v-89c0 -7 -3 -8 -10 -8h-495c-5 0 -9 0 -9 9v89z" />
    <glyph glyph-name="endash.cap" horiz-adv-x="567" 
d="M84 407c0 6 2 7 7 7h386c5 0 6 -2 6 -6v-93c0 -5 -2 -6 -6 -6h-386c-6 0 -7 2 -7 7v91z" />
    <glyph glyph-name="exclamdown.cap" horiz-adv-x="332" 
d="M134 -212c-24 0 -63 4 -76 11c-6 4 -6 9 -6 12v70c0 84 20 302 24 332c1 3 2 7 9 7h100c4 0 6 -3 7 -8c3 -27 23 -244 23 -328v-69c0 -4 0 -9 -6 -12c-15 -9 -57 -15 -75 -15zM135 463c51 0 86 -31 86 -81c0 -47 -35 -82 -86 -82c-52 0 -87 34 -87 82c0 50 35 81 87 81z
" />
    <glyph glyph-name="guillemotleft.cap" horiz-adv-x="732" 
d="M94 313v76c0 4 2 7 6 9l242 176c6 3 11 1 11 -6v-98c0 -8 -1 -11 -8 -14l-134 -106l136 -106c4 -4 6 -7 6 -12v-103c0 -8 -5 -9 -11 -6l-243 180c-4 3 -5 5 -5 10zM381 313v76c0 4 2 5 6 6l242 179c5 3 9 1 9 -6v-98c0 -8 0 -11 -6 -14l-135 -106l135 -105
c5 -4 6 -6 6 -13v-103c0 -8 -4 -9 -10 -6l-242 180c-4 3 -5 5 -5 10z" />
    <glyph glyph-name="guillemotright.cap" horiz-adv-x="732" 
d="M638 384v-76c0 -4 -1 -7 -6 -9l-242 -176c-5 -3 -10 -1 -10 6v98c0 8 1 10 7 14l134 106l-134 105c-5 4 -7 6 -7 13v103c0 8 5 9 11 6l242 -180c4 -3 5 -6 5 -10zM352 384v-76c0 -4 -2 -5 -6 -7l-242 -178c-6 -3 -10 -1 -10 6v98c0 8 1 10 7 14l134 106l-134 105
c-5 4 -7 6 -7 13v103c0 8 4 9 10 6l242 -180c5 -3 6 -6 6 -10z" />
    <glyph glyph-name="guilsinglleft.cap" horiz-adv-x="501" 
d="M94 313v76c0 4 2 7 6 9l298 176c5 3 9 1 9 -6v-97c0 -7 -1 -10 -7 -14l-178 -107l178 -107c5 -3 7 -6 7 -13v-101c0 -8 -4 -9 -10 -6l-298 180c-4 3 -5 5 -5 10z" />
    <glyph glyph-name="guilsinglright.cap" horiz-adv-x="501" 
d="M407 384v-76c0 -4 -2 -7 -6 -9l-297 -176c-6 -3 -10 -1 -10 6v97c0 7 1 10 7 13l178 108l-178 107c-5 3 -7 6 -7 13v101c0 8 4 9 10 6l298 -180c4 -3 5 -6 5 -10z" />
    <glyph glyph-name="hyphen.cap" horiz-adv-x="372" 
d="M314 299h-255c-5 0 -7 4 -7 8v108c0 4 2 7 8 7h253c5 0 7 -1 7 -7v-108c0 -7 -2 -8 -6 -8z" />
    <glyph glyph-name="questiondown.cap" horiz-adv-x="480" 
d="M235 -212c-129 0 -206 72 -206 167c0 110 143 175 143 226c0 17 -5 29 -15 46c-2 5 0 8 5 8l111 2c5 0 7 1 13 -5c18 -19 26 -47 26 -67c0 -78 -130 -124 -130 -195c0 -34 27 -62 85 -62c43 0 89 11 129 26c4 1 8 0 8 -5l1 -96c0 -5 0 -9 -5 -11
c-27 -13 -82 -34 -165 -34zM223 464c49 0 85 -31 85 -84c0 -51 -36 -83 -85 -83c-51 0 -86 35 -86 83c0 50 31 84 86 84z" />
    <glyph glyph-name="braceleft.cap" horiz-adv-x="447" 
d="M55 240c-5 0 -5 3 -5 7v96c0 3 2 5 5 5c88 0 118 21 120 83c1 43 -5 112 -5 156c0 63 43 168 218 191c5 1 8 0 8 -6v-91c0 -5 -1 -6 -6 -7c-84 -16 -98 -61 -98 -98c0 -45 6 -107 6 -149c0 -70 -35 -111 -111 -130v-3c88 -19 112 -72 113 -132c1 -48 -8 -112 -8 -159
c0 -42 19 -79 101 -93c6 -2 6 -2 6 -9v-91c0 -5 -2 -7 -6 -7c-134 10 -223 77 -223 190c0 57 8 98 8 155c0 62 -29 92 -123 92z" />
    <glyph glyph-name="braceright.cap" horiz-adv-x="447" 
d="M394 347c5 0 6 -3 6 -7v-96c0 -3 -2 -5 -6 -5c-88 0 -118 -20 -120 -83c-1 -43 5 -117 5 -161c0 -64 -43 -169 -218 -191c-5 -1 -7 0 -7 6l-1 90c0 6 1 7 6 8c85 15 98 60 98 97c0 45 -5 113 -5 155c0 70 35 111 110 130v3c-88 19 -112 72 -113 132c0 48 8 107 8 154
c0 41 -18 79 -100 93c-7 1 -7 2 -7 8v92c0 5 3 7 6 7c135 -10 223 -78 223 -191c0 -57 -8 -92 -8 -149c0 -62 30 -92 123 -92z" />
    <glyph glyph-name="bracketleft.cap" horiz-adv-x="381" 
d="M199 677v-768l127 -5c3 0 4 -3 4 -6v-71c-1 -4 -2 -6 -7 -6h-227c-6 0 -9 3 -9 10v922c0 7 2 9 9 9h228c4 0 5 -1 5 -5v-71c0 -4 -2 -5 -5 -5z" />
    <glyph glyph-name="bracketright.cap" horiz-adv-x="383" 
d="M194 -94v768l-127 5c-3 0 -4 3 -4 6v70c1 4 2 7 7 7h227c6 0 9 -3 9 -10v-922c0 -7 -2 -9 -9 -9h-228c-4 0 -5 1 -5 5v71c0 4 2 5 5 5z" />
    <glyph glyph-name="parenleft.cap" horiz-adv-x="411" 
d="M69 290c0 217 93 379 163 466c3 3 6 6 12 6h116c6 0 9 -6 4 -12c-102 -136 -163 -287 -163 -454c0 -190 68 -346 161 -464c3 -5 2 -10 -4 -10l-114 -1c-9 0 -12 3 -16 7c-85 94 -159 254 -159 462z" />
    <glyph glyph-name="parenright.cap" horiz-adv-x="408" 
d="M337 293c0 -221 -87 -376 -158 -463c-5 -6 -8 -9 -16 -9h-114c-11 0 -10 6 -6 10c103 138 163 286 163 456c0 191 -67 348 -160 466c-4 4 -2 8 3 8l115 1c7 0 10 -2 17 -9c83 -94 156 -246 156 -460z" />
    <glyph glyph-name="bullet.cap" horiz-adv-x="450" 
d="M94 368c0 73 50 127 131 127s131 -56 131 -127c0 -74 -49 -128 -131 -128c-81 0 -131 56 -131 128z" />
    <glyph glyph-name="periodcentered.cap" horiz-adv-x="367" 
d="M185 279c-52 0 -90 34 -90 89c0 54 38 88 90 88c53 0 89 -37 89 -88c0 -52 -33 -89 -89 -89z" />
    <glyph glyph-name="uni2032" unicode="&#x2032;" horiz-adv-x="240" 
d="M55 393l-2 256c0 8 2 10 8 10h124c6 0 8 -2 7 -6l-21 -261c-1 -6 -5 -6 -10 -6h-98c-5 0 -8 3 -8 7z" />
    <glyph glyph-name="uni2033" unicode="&#x2033;" horiz-adv-x="440" 
d="M54 395l-3 254c0 7 3 10 10 10h120c7 0 10 -3 9 -10l-20 -256c-1 -6 -6 -7 -9 -7h-96c-8 0 -11 3 -11 9zM256 395l-2 252c-1 8 3 12 10 12h119c9 0 10 -5 9 -12l-20 -254c-1 -7 -6 -7 -9 -7h-97c-6 0 -10 3 -10 9z" />
    <glyph glyph-name="uni2190" unicode="&#x2190;" horiz-adv-x="704" 
d="M658 225h-494l195 -174v-84l-314 289v1l314 287v-85l-195 -174h494v-60z" />
    <glyph glyph-name="uni2192" unicode="&#x2192;" horiz-adv-x="704" 
d="M45 285h494l-195 175v84l314 -287v-1l-314 -289v83l195 175h-494v60z" />
    <glyph glyph-name="arrowup" unicode="&#x2191;" horiz-adv-x="738" 
d="M338 0v494l-184 -195h-88l303 314h1l302 -314h-90l-182 195v-494h-62z" />
    <glyph glyph-name="arrowdown" unicode="&#x2193;" horiz-adv-x="738" 
d="M400 598v-494l183 195h89l-304 -314h-1l-301 314h89l183 -195v494h62z" />
    <glyph glyph-name="uni25C0" unicode="&#x25c0;" horiz-adv-x="620" 
d="M537 482v-457h-2l-477 226v1l477 232z" />
    <glyph glyph-name="uni25B6" unicode="&#x25b6;" horiz-adv-x="620" 
d="M84 26v458h1l479 -225v-1l-479 -233z" />
    <glyph glyph-name="triagup" unicode="&#x25b2;" horiz-adv-x="650" 
d="M551 15h-480v2l236 477h1l244 -476z" />
    <glyph glyph-name="triagdn" unicode="&#x25bc;" horiz-adv-x="650" 
d="M99 494h481v-1l-236 -478h-1l-245 478z" />
    <glyph glyph-name="uni25C1" unicode="&#x25c1;" horiz-adv-x="620" 
d="M482 111v291l-306 -146zM537 485v-459h-2l-477 227v3l477 230z" />
    <glyph glyph-name="uni25B7" unicode="&#x25b7;" horiz-adv-x="620" 
d="M137 402l1 -291l307 148zM84 27v459h1l479 -224v-3l-479 -233z" />
    <glyph glyph-name="uni25B3" unicode="&#x25b3;" horiz-adv-x="650" 
d="M159 72h306l-154 306zM552 17h-481v2l237 477h3l242 -477z" />
    <glyph glyph-name="uni25BD" unicode="&#x25bd;" horiz-adv-x="650" 
d="M493 443l-306 -1l156 -307zM99 496h482v-1l-236 -478h-2l-245 478z" />
    <glyph glyph-name="uni25C9" unicode="&#x25c9;" horiz-adv-x="492" 
d="M246 463h1c104 0 187 -88 187 -193s-83 -191 -188 -191c-106 0 -188 84 -188 191c0 108 82 193 188 193zM246 409h-1c-72 0 -127 -63 -127 -139s55 -139 128 -139c76 0 128 65 128 139c0 76 -52 139 -128 139zM245 346h1c40 0 71 -35 71 -76c0 -39 -31 -76 -71 -76
c-42 0 -69 35 -69 76s27 76 68 76z" />
    <glyph glyph-name="uni25C6" unicode="&#x25c6;" horiz-adv-x="501" 
d="M50 262l197 199l205 -205l-199 -201z" />
    <glyph glyph-name="uni25A0" unicode="&#x25a0;" horiz-adv-x="433" 
d="M75 404h283v-290h-283v290z" />
    <glyph glyph-name="uni2752" unicode="&#x2752;" horiz-adv-x="519" 
d="M79 372l83 80h277v-291l-77 -81h-283v292zM123 362v-239h226v239h-226z" />
    <glyph glyph-name="uni2713" unicode="&#x2713;" horiz-adv-x="748" 
d="M575 727h126c6 0 7 -2 5 -7l-346 -738c-3 -5 -4 -5 -9 -5h-105c-6 0 -8 2 -11 7l-194 451c-2 5 1 8 5 8h132c5 0 7 -2 9 -6l120 -302l260 587c3 5 5 5 8 5z" />
    <glyph glyph-name="uni2610" unicode="&#x2610;" horiz-adv-x="861" 
d="M140 675h628v-637l-50 -50h-625v641zM127 617v-594h580v594h-580z" />
    <glyph glyph-name="uni2611" unicode="&#x2611;" horiz-adv-x="861" 
d="M140 675h628v-637l-50 -50h-625v641zM127 617v-594h580v594h-580zM568 567h81c6 0 7 -3 4 -9l-233 -482c-4 -5 -6 -5 -13 -5h-64c-8 0 -9 1 -12 7l-124 290c-3 6 0 8 4 8h86c5 0 7 -3 9 -6l76 -194l176 384c4 5 5 7 10 7z" />
    <glyph glyph-name="lessequal" unicode="&#x2264;" horiz-adv-x="604" 
d="M81 83c0 5 1 6 6 6h426c5 0 6 -1 6 -6v-91c0 -6 -1 -7 -7 -7h-424c-5 0 -7 2 -7 8v90zM84 331v75c0 9 1 11 6 14l421 187c3 2 8 2 8 -4v-97c0 -6 -1 -7 -6 -9l-310 -128v-2l310 -128c5 -2 6 -4 6 -9v-96c0 -4 -2 -6 -6 -5l-422 188c-5 4 -7 6 -7 14z" />
    <glyph glyph-name="greaterequal" unicode="&#x2265;" horiz-adv-x="604" 
d="M81 83c0 5 1 6 6 6h426c5 0 6 -1 6 -6v-91c0 -6 -1 -7 -7 -7h-424c-5 0 -7 2 -7 8v90zM519 406v-75c0 -9 -1 -11 -6 -14l-421 -187c-3 -2 -8 -2 -8 4v97c0 6 1 7 6 9l310 128v2l-310 128c-5 2 -6 4 -6 9v96c0 4 2 6 6 5l422 -188c5 -4 7 -6 7 -14z" />
    <glyph glyph-name="approxequal" unicode="&#x2248;" horiz-adv-x="599" 
d="M549 436v-89c0 -9 -2 -12 -6 -16c-32 -34 -73 -51 -122 -51c-47 0 -82 19 -116 37c-34 19 -69 37 -117 37c-49 0 -93 -25 -130 -65c-5 -5 -8 -2 -8 4v89c0 7 2 11 5 15c34 35 80 58 136 58c53 0 92 -19 127 -37c36 -19 68 -38 106 -38c44 0 76 14 117 60c5 4 8 1 8 -4z
M549 224v-84c0 -10 -2 -12 -8 -19c-23 -30 -69 -51 -119 -51c-45 0 -79 18 -114 37c-35 18 -70 36 -120 36c-49 0 -95 -29 -130 -64c-5 -6 -8 -3 -8 3v89c0 7 2 10 5 15c35 34 81 59 136 59s95 -19 131 -37c36 -19 68 -38 103 -38c46 0 73 14 113 59c8 8 11 2 11 -5z" />
    <glyph glyph-name="notequal" unicode="&#x2260;" horiz-adv-x="604" 
d="M545 109h-263l-55 -89c-2 -4 -5 -6 -11 -6h-93c-5 0 -6 3 -4 8l53 87h-116c-4 0 -7 1 -7 7v91c0 5 2 6 6 6h167l59 97h-225c-5 0 -7 1 -7 7v90c0 6 2 7 6 7h277l56 90c4 6 5 8 13 8h91c4 0 8 -2 5 -9l-54 -89h104c6 0 8 -1 8 -6v-90c0 -5 -1 -8 -8 -8h-155l-58 -97h211
c8 0 10 -2 10 -10v-83c0 -8 -2 -11 -10 -11z" />
    <glyph glyph-name="uni2213" unicode="&#x2213;" horiz-adv-x="604" 
d="M555 518c0 -6 -3 -8 -9 -8h-487c-7 0 -10 1 -10 9v85c0 7 3 11 10 11h484c7 0 12 -2 12 -9v-88zM348 -29h-93c-6 0 -8 3 -8 9v184h-189c-8 0 -9 2 -9 8v88c0 7 3 9 8 9h190v186c0 6 2 8 8 8h94c6 0 7 -2 7 -7v-187h191c5 0 8 -4 8 -8v-89c0 -7 -2 -8 -7 -8h-192v-185
c0 -6 -3 -8 -8 -8z" />
    <glyph glyph-name="infinity" unicode="&#x221e;" horiz-adv-x="793" 
d="M574 93h-1c-70 0 -125 51 -177 103c-51 -49 -101 -103 -186 -103c-94 0 -160 71 -160 166c0 87 66 165 168 165c74 0 131 -56 180 -104c50 49 99 104 184 104c96 0 160 -71 160 -165c0 -88 -67 -166 -168 -166zM573 181h1c42 0 75 35 75 78c0 44 -32 77 -73 77
c-47 0 -85 -40 -120 -76c35 -34 69 -79 117 -79zM217 180h1c47 0 84 41 120 77c-31 31 -69 79 -118 79c-44 0 -75 -36 -75 -77c0 -45 31 -79 72 -79z" />
    </font>
</defs>
</svg>
